<?xml version="1.0" encoding="UTF-8" standalone="no"?><svg xmlns="http://www.w3.org/2000/svg" xmlns:xlink="http://www.w3.org/1999/xlink" contentScriptType="application/ecmascript" contentStyleType="text/css" height="308px" preserveAspectRatio="none" style="width:301px;height:308px;" version="1.1" viewBox="0 0 301 308" width="301px" zoomAndPan="magnify"><defs><filter height="300%" id="f8p2os8qvqeky" width="300%" x="-1" y="-1"><feGaussianBlur result="blurOut" stdDeviation="2.0"/><feColorMatrix in="blurOut" result="blurOut2" type="matrix" values="0 0 0 0 0 0 0 0 0 0 0 0 0 0 0 0 0 0 .4 0"/><feOffset dx="4.0" dy="4.0" in="blurOut2" result="blurOut3"/><feBlend in="SourceGraphic" in2="blurOut3" mode="normal"/></filter></defs><g><!--cluster java.lang--><polygon fill="#FFFFFF" filter="url(#f8p2os8qvqeky)" points="161,89,230,89,237,111.4883,279,111.4883,279,185,161,185,161,89" style="stroke: #000000; stroke-width: 1.5;"/><line style="stroke: #000000; stroke-width: 1.5;" x1="161" x2="237" y1="111.4883" y2="111.4883"/><text fill="#000000" font-family="sans-serif" font-size="14" font-weight="bold" lengthAdjust="spacingAndGlyphs" textLength="63" x="165" y="104.5352">java.lang</text><!--class java.lang.Cloneable--><rect fill="#FEFECE" filter="url(#f8p2os8qvqeky)" height="60.9551" id="java.lang.Cloneable" style="stroke: #A80036; stroke-width: 1.5;" width="101" x="169.5" y="116"/><ellipse cx="189.9" cy="132" fill="#B4A7E5" rx="11" ry="11" style="stroke: #A80036; stroke-width: 1.0;"/><path d="M186.3277,128.2651 L186.3277,126.1069 L193.7071,126.1069 L193.7071,128.2651 L191.2418,128.2651 L191.2418,136.3418 L193.7071,136.3418 L193.7071,138.5 L186.3277,138.5 L186.3277,136.3418 L188.7931,136.3418 L188.7931,128.2651 Z "/><text fill="#000000" font-family="sans-serif" font-size="12" font-style="italic" lengthAdjust="spacingAndGlyphs" textLength="57" x="205.1" y="136.5352">Cloneable</text><line style="stroke: #A80036; stroke-width: 1.5;" x1="170.5" x2="269.5" y1="148" y2="148"/><line style="stroke: #A80036; stroke-width: 1.5;" x1="170.5" x2="269.5" y1="156" y2="156"/><polygon fill="#FFFF44" points="180.5,162.9775,184.5,166.9775,180.5,170.9775,176.5,166.9775" style="stroke: #B38D22; stroke-width: 1.0;"/><text fill="#000000" font-family="sans-serif" font-size="11" lengthAdjust="spacingAndGlyphs" textLength="75" x="189.5" y="170.6348">clone():Object</text><!--class Commander--><rect fill="#FEFECE" filter="url(#f8p2os8qvqeky)" height="60.9551" id="Commander" style="stroke: #A80036; stroke-width: 1.5;" width="103" x="24.5" y="237"/><ellipse cx="39.5" cy="253" fill="#A9DCDF" rx="11" ry="11" style="stroke: #A80036; stroke-width: 1.0;"/><path d="M39.6133,248.5981 L38.4595,253.6699 L40.7754,253.6699 Z M38.1191,246.3569 L41.1157,246.3569 L44.4609,258.75 L42.0122,258.75 L41.2485,255.687 L37.9697,255.687 L37.2227,258.75 L34.7739,258.75 Z "/><text fill="#000000" font-family="sans-serif" font-size="12" font-style="italic" lengthAdjust="spacingAndGlyphs" textLength="71" x="53.5" y="257.5352">Commander</text><line style="stroke: #A80036; stroke-width: 1.5;" x1="25.5" x2="126.5" y1="269" y2="269"/><line style="stroke: #A80036; stroke-width: 1.5;" x1="25.5" x2="126.5" y1="277" y2="277"/><polygon fill="#4177AF" points="35.5,284.9775,31.5,290.9775,39.5,290.9775" style="stroke: #1963A0; stroke-width: 1.0;"/><text fill="#000000" font-family="sans-serif" font-size="11" lengthAdjust="spacingAndGlyphs" textLength="75" x="44.5" y="291.6348">clone():Object</text><!--class Monster--><rect fill="#FEFECE" filter="url(#f8p2os8qvqeky)" height="60.9551" id="Monster" style="stroke: #A80036; stroke-width: 1.5;" width="101" x="165.5" y="237"/><ellipse cx="190.85" cy="253" fill="#A9DCDF" rx="11" ry="11" style="stroke: #A80036; stroke-width: 1.0;"/><path d="M190.9633,248.5981 L189.8095,253.6699 L192.1254,253.6699 Z M189.4691,246.3569 L192.4657,246.3569 L195.8109,258.75 L193.3622,258.75 L192.5985,255.687 L189.3197,255.687 L188.5727,258.75 L186.1239,258.75 Z "/><text fill="#000000" font-family="sans-serif" font-size="12" font-style="italic" lengthAdjust="spacingAndGlyphs" textLength="46" x="207.15" y="257.5352">Monster</text><line style="stroke: #A80036; stroke-width: 1.5;" x1="166.5" x2="265.5" y1="269" y2="269"/><line style="stroke: #A80036; stroke-width: 1.5;" x1="166.5" x2="265.5" y1="277" y2="277"/><polygon fill="#4177AF" points="176.5,284.9775,172.5,290.9775,180.5,290.9775" style="stroke: #1963A0; stroke-width: 1.0;"/><text fill="#000000" font-family="sans-serif" font-size="11" lengthAdjust="spacingAndGlyphs" textLength="75" x="185.5" y="291.6348">clone():Object</text><!--class StageService--><rect fill="#FEFECE" filter="url(#f8p2os8qvqeky)" height="48" id="StageService" style="stroke: #A80036; stroke-width: 1.5;" width="103" x="18.5" y="8"/><ellipse cx="33.5" cy="24" fill="#B4A7E5" rx="11" ry="11" style="stroke: #A80036; stroke-width: 1.0;"/><path d="M29.9277,20.2651 L29.9277,18.1069 L37.3071,18.1069 L37.3071,20.2651 L34.8418,20.2651 L34.8418,28.3418 L37.3071,28.3418 L37.3071,30.5 L29.9277,30.5 L29.9277,28.3418 L32.3931,28.3418 L32.3931,20.2651 Z "/><text fill="#000000" font-family="sans-serif" font-size="12" font-style="italic" lengthAdjust="spacingAndGlyphs" textLength="71" x="47.5" y="28.5352">StageService</text><line style="stroke: #A80036; stroke-width: 1.5;" x1="19.5" x2="120.5" y1="40" y2="40"/><line style="stroke: #A80036; stroke-width: 1.5;" x1="19.5" x2="120.5" y1="48" y2="48"/><!--class StageServiceImpl--><rect fill="#FEFECE" filter="url(#f8p2os8qvqeky)" height="48" id="StageServiceImpl" style="stroke: #A80036; stroke-width: 1.5;" width="128" x="6" y="122.5"/><ellipse cx="21" cy="138.5" fill="#ADD1B2" rx="11" ry="11" style="stroke: #A80036; stroke-width: 1.0;"/><path d="M23.4731,144.6431 Q22.8921,144.9419 22.2529,145.0913 Q21.6138,145.2407 20.9082,145.2407 Q18.4014,145.2407 17.0815,143.5889 Q15.7617,141.937 15.7617,138.8159 Q15.7617,135.6865 17.0815,134.0347 Q18.4014,132.3828 20.9082,132.3828 Q21.6138,132.3828 22.2612,132.5322 Q22.9087,132.6816 23.4731,132.9805 L23.4731,135.7031 Q22.8423,135.1221 22.2488,134.8523 Q21.6553,134.5825 21.0244,134.5825 Q19.6797,134.5825 18.9949,135.6492 Q18.3101,136.7158 18.3101,138.8159 Q18.3101,140.9077 18.9949,141.9744 Q19.6797,143.041 21.0244,143.041 Q21.6553,143.041 22.2488,142.7712 Q22.8423,142.5015 23.4731,141.9204 Z "/><text fill="#000000" font-family="sans-serif" font-size="12" lengthAdjust="spacingAndGlyphs" textLength="96" x="35" y="143.0352">StageServiceImpl</text><line style="stroke: #A80036; stroke-width: 1.5;" x1="7" x2="133" y1="154.5" y2="154.5"/><line style="stroke: #A80036; stroke-width: 1.5;" x1="7" x2="133" y1="162.5" y2="162.5"/><!--link java.lang.Cloneable to Commander--><path d="M168.3404,189.9084 C149.7971,205.4899 129.2929,222.7191 112.3257,236.9764 " fill="none" id="java.lang.Cloneable-Commander" style="stroke: #A80036; stroke-width: 1.0; stroke-dasharray: 7.0,7.0;"/><polygon fill="none" points="163.8475,184.5406,183.6627,177.0334,172.8539,195.259,163.8475,184.5406" style="stroke: #A80036; stroke-width: 1.0;"/><!--link java.lang.Cloneable to Monster--><path d="M218.3209,197.2927 C217.8749,210.7857 217.4069,224.9401 217.009,236.9764 " fill="none" id="java.lang.Cloneable-Monster" style="stroke: #A80036; stroke-width: 1.0; stroke-dasharray: 7.0,7.0;"/><polygon fill="none" points="211.3336,196.7912,218.9906,177.0334,225.3259,197.2538,211.3336,196.7912" style="stroke: #A80036; stroke-width: 1.0;"/><!--link StageService to StageServiceImpl--><path d="M70,76.0131 C70,91.6695 70,108.7233 70,122.1343 " fill="none" id="StageService-StageServiceImpl" style="stroke: #A80036; stroke-width: 1.0; stroke-dasharray: 7.0,7.0;"/><polygon fill="none" points="63.0001,76.003,70,56.003,77.0001,76.0029,63.0001,76.003" style="stroke: #A80036; stroke-width: 1.0;"/><!--link StageServiceImpl to Commander--><path d="M71.1998,170.6953 C72.0662,188.1687 73.2506,212.0534 74.2261,231.7255 " fill="none" id="StageServiceImpl-Commander" style="stroke: #A80036; stroke-width: 1.0;"/><polygon fill="#A80036" points="74.4822,236.8909,78.0314,227.7038,74.2345,231.897,70.0412,228.1001,74.4822,236.8909" style="stroke: #A80036; stroke-width: 1.0;"/><!--link StageServiceImpl to Monster--><path d="M99.1944,170.6953 C120.9059,188.6891 150.8212,213.482 174.9414,233.472 " fill="none" id="StageServiceImpl-Monster" style="stroke: #A80036; stroke-width: 1.0;"/><polygon fill="#A80036" points="179.0667,236.8909,174.6897,228.0681,175.217,233.7003,169.5848,234.2276,179.0667,236.8909" style="stroke: #A80036; stroke-width: 1.0;"/><!--
@startuml prototype-pattern

interface java.lang.Cloneable {
  # clone():Object
}

abstract class Commander {
  ~ clone():Object
}

abstract class Monster {
  ~ clone():Object
}

java.lang.Cloneable <|.. Commander
java.lang.Cloneable <|.. Monster

interface StageService {

}

StageService <|.. StageServiceImpl

StageServiceImpl - -> Commander
StageServiceImpl - -> Monster

@enduml

PlantUML version 1.2018.12(Sun Oct 21 18:15:15 CST 2018)
(GPL source distribution)
Java Runtime: Java(TM) SE Runtime Environment
JVM: Java HotSpot(TM) 64-Bit Server VM
Java Version: 1.8.0_171-b11
Operating System: Mac OS X
OS Version: 10.14.3
Default Encoding: UTF-8
Language: zh
Country: CN
--></g></svg>