<?xml version="1.0" encoding="UTF-8" standalone="no"?><svg xmlns="http://www.w3.org/2000/svg" xmlns:xlink="http://www.w3.org/1999/xlink" contentScriptType="application/ecmascript" contentStyleType="text/css" height="296px" preserveAspectRatio="none" style="width:845px;height:296px;" version="1.1" viewBox="0 0 845 296" width="845px" zoomAndPan="magnify"><defs><filter height="300%" id="f1vdesmigr601v" width="300%" x="-1" y="-1"><feGaussianBlur result="blurOut" stdDeviation="2.0"/><feColorMatrix in="blurOut" result="blurOut2" type="matrix" values="0 0 0 0 0 0 0 0 0 0 0 0 0 0 0 0 0 0 .4 0"/><feOffset dx="4.0" dy="4.0" in="blurOut2" result="blurOut3"/><feBlend in="SourceGraphic" in2="blurOut3" mode="normal"/></filter></defs><g><!--class EquipmentDamageComputor--><rect fill="#FEFECE" filter="url(#f1vdesmigr601v)" height="48" id="EquipmentDamageComputor" style="stroke: #A80036; stroke-width: 1.5;" width="199" x="194" y="14.5"/><ellipse cx="209" cy="30.5" fill="#ADD1B2" rx="11" ry="11" style="stroke: #A80036; stroke-width: 1.0;"/><path d="M211.4731,36.6431 Q210.8921,36.9419 210.2529,37.0913 Q209.6138,37.2407 208.9082,37.2407 Q206.4014,37.2407 205.0815,35.5889 Q203.7617,33.937 203.7617,30.8159 Q203.7617,27.6865 205.0815,26.0347 Q206.4014,24.3828 208.9082,24.3828 Q209.6138,24.3828 210.2612,24.5322 Q210.9087,24.6816 211.4731,24.9805 L211.4731,27.7031 Q210.8423,27.1221 210.2488,26.8523 Q209.6553,26.5825 209.0244,26.5825 Q207.6797,26.5825 206.9949,27.6492 Q206.3101,28.7158 206.3101,30.8159 Q206.3101,32.9077 206.9949,33.9744 Q207.6797,35.041 209.0244,35.041 Q209.6553,35.041 210.2488,34.7712 Q210.8423,34.5015 211.4731,33.9204 Z "/><text fill="#000000" font-family="sans-serif" font-size="12" lengthAdjust="spacingAndGlyphs" textLength="167" x="223" y="35.0352">EquipmentDamageComputor</text><line style="stroke: #A80036; stroke-width: 1.5;" x1="195" x2="392" y1="46.5" y2="46.5"/><line style="stroke: #A80036; stroke-width: 1.5;" x1="195" x2="392" y1="54.5" y2="54.5"/><!--class EquipmentDenfenceComputor--><rect fill="#FEFECE" filter="url(#f1vdesmigr601v)" height="48" id="EquipmentDenfenceComputor" style="stroke: #A80036; stroke-width: 1.5;" width="205" x="629" y="237"/><ellipse cx="644" cy="253" fill="#ADD1B2" rx="11" ry="11" style="stroke: #A80036; stroke-width: 1.0;"/><path d="M646.4731,259.1431 Q645.8921,259.4419 645.2529,259.5913 Q644.6138,259.7407 643.9082,259.7407 Q641.4014,259.7407 640.0815,258.0889 Q638.7617,256.437 638.7617,253.3159 Q638.7617,250.1865 640.0815,248.5347 Q641.4014,246.8828 643.9082,246.8828 Q644.6138,246.8828 645.2612,247.0322 Q645.9087,247.1816 646.4731,247.4805 L646.4731,250.2031 Q645.8423,249.6221 645.2488,249.3523 Q644.6553,249.0825 644.0244,249.0825 Q642.6797,249.0825 641.9949,250.1492 Q641.3101,251.2158 641.3101,253.3159 Q641.3101,255.4077 641.9949,256.4744 Q642.6797,257.541 644.0244,257.541 Q644.6553,257.541 645.2488,257.2712 Q645.8423,257.0015 646.4731,256.4204 Z "/><text fill="#000000" font-family="sans-serif" font-size="12" lengthAdjust="spacingAndGlyphs" textLength="173" x="658" y="257.5352">EquipmentDenfenceComputor</text><line style="stroke: #A80036; stroke-width: 1.5;" x1="630" x2="833" y1="269" y2="269"/><line style="stroke: #A80036; stroke-width: 1.5;" x1="630" x2="833" y1="277" y2="277"/><!--class SkillDamageComputor--><rect fill="#FEFECE" filter="url(#f1vdesmigr601v)" height="48" id="SkillDamageComputor" style="stroke: #A80036; stroke-width: 1.5;" width="159" x="6" y="129"/><ellipse cx="21" cy="145" fill="#ADD1B2" rx="11" ry="11" style="stroke: #A80036; stroke-width: 1.0;"/><path d="M23.4731,151.1431 Q22.8921,151.4419 22.2529,151.5913 Q21.6138,151.7407 20.9082,151.7407 Q18.4014,151.7407 17.0815,150.0889 Q15.7617,148.437 15.7617,145.3159 Q15.7617,142.1865 17.0815,140.5347 Q18.4014,138.8828 20.9082,138.8828 Q21.6138,138.8828 22.2612,139.0322 Q22.9087,139.1816 23.4731,139.4805 L23.4731,142.2031 Q22.8423,141.6221 22.2488,141.3523 Q21.6553,141.0825 21.0244,141.0825 Q19.6797,141.0825 18.9949,142.1492 Q18.3101,143.2158 18.3101,145.3159 Q18.3101,147.4077 18.9949,148.4744 Q19.6797,149.541 21.0244,149.541 Q21.6553,149.541 22.2488,149.2712 Q22.8423,149.0015 23.4731,148.4204 Z "/><text fill="#000000" font-family="sans-serif" font-size="12" lengthAdjust="spacingAndGlyphs" textLength="127" x="35" y="149.5352">SkillDamageComputor</text><line style="stroke: #A80036; stroke-width: 1.5;" x1="7" x2="164" y1="161" y2="161"/><line style="stroke: #A80036; stroke-width: 1.5;" x1="7" x2="164" y1="169" y2="169"/><!--class SkillDenfenseComputor--><rect fill="#FEFECE" filter="url(#f1vdesmigr601v)" height="48" id="SkillDenfenseComputor" style="stroke: #A80036; stroke-width: 1.5;" width="165" x="649" y="14.5"/><ellipse cx="664" cy="30.5" fill="#ADD1B2" rx="11" ry="11" style="stroke: #A80036; stroke-width: 1.0;"/><path d="M666.4731,36.6431 Q665.8921,36.9419 665.2529,37.0913 Q664.6138,37.2407 663.9082,37.2407 Q661.4014,37.2407 660.0815,35.5889 Q658.7617,33.937 658.7617,30.8159 Q658.7617,27.6865 660.0815,26.0347 Q661.4014,24.3828 663.9082,24.3828 Q664.6138,24.3828 665.2612,24.5322 Q665.9087,24.6816 666.4731,24.9805 L666.4731,27.7031 Q665.8423,27.1221 665.2488,26.8523 Q664.6553,26.5825 664.0244,26.5825 Q662.6797,26.5825 661.9949,27.6492 Q661.3101,28.7158 661.3101,30.8159 Q661.3101,32.9077 661.9949,33.9744 Q662.6797,35.041 664.0244,35.041 Q664.6553,35.041 665.2488,34.7712 Q665.8423,34.5015 666.4731,33.9204 Z "/><text fill="#000000" font-family="sans-serif" font-size="12" lengthAdjust="spacingAndGlyphs" textLength="133" x="678" y="35.0352">SkillDenfenseComputor</text><line style="stroke: #A80036; stroke-width: 1.5;" x1="650" x2="813" y1="46.5" y2="46.5"/><line style="stroke: #A80036; stroke-width: 1.5;" x1="650" x2="813" y1="54.5" y2="54.5"/><!--class TargetDamageComputor--><rect fill="#FEFECE" filter="url(#f1vdesmigr601v)" height="48" id="TargetDamageComputor" style="stroke: #A80036; stroke-width: 1.5;" width="175" x="97" y="237"/><ellipse cx="112" cy="253" fill="#ADD1B2" rx="11" ry="11" style="stroke: #A80036; stroke-width: 1.0;"/><path d="M114.4731,259.1431 Q113.8921,259.4419 113.2529,259.5913 Q112.6138,259.7407 111.9082,259.7407 Q109.4014,259.7407 108.0815,258.0889 Q106.7617,256.437 106.7617,253.3159 Q106.7617,250.1865 108.0815,248.5347 Q109.4014,246.8828 111.9082,246.8828 Q112.6138,246.8828 113.2612,247.0322 Q113.9087,247.1816 114.4731,247.4805 L114.4731,250.2031 Q113.8423,249.6221 113.2488,249.3523 Q112.6553,249.0825 112.0244,249.0825 Q110.6797,249.0825 109.9949,250.1492 Q109.3101,251.2158 109.3101,253.3159 Q109.3101,255.4077 109.9949,256.4744 Q110.6797,257.541 112.0244,257.541 Q112.6553,257.541 113.2488,257.2712 Q113.8423,257.0015 114.4731,256.4204 Z "/><text fill="#000000" font-family="sans-serif" font-size="12" lengthAdjust="spacingAndGlyphs" textLength="143" x="126" y="257.5352">TargetDamageComputor</text><line style="stroke: #A80036; stroke-width: 1.5;" x1="98" x2="271" y1="269" y2="269"/><line style="stroke: #A80036; stroke-width: 1.5;" x1="98" x2="271" y1="277" y2="277"/><!--class TargetDenfenceComputor--><rect fill="#FEFECE" filter="url(#f1vdesmigr601v)" height="48" id="TargetDenfenceComputor" style="stroke: #A80036; stroke-width: 1.5;" width="181" x="422" y="129"/><ellipse cx="437" cy="145" fill="#ADD1B2" rx="11" ry="11" style="stroke: #A80036; stroke-width: 1.0;"/><path d="M439.4731,151.1431 Q438.8921,151.4419 438.2529,151.5913 Q437.6138,151.7407 436.9082,151.7407 Q434.4014,151.7407 433.0815,150.0889 Q431.7617,148.437 431.7617,145.3159 Q431.7617,142.1865 433.0815,140.5347 Q434.4014,138.8828 436.9082,138.8828 Q437.6138,138.8828 438.2612,139.0322 Q438.9087,139.1816 439.4731,139.4805 L439.4731,142.2031 Q438.8423,141.6221 438.2488,141.3523 Q437.6553,141.0825 437.0244,141.0825 Q435.6797,141.0825 434.9949,142.1492 Q434.3101,143.2158 434.3101,145.3159 Q434.3101,147.4077 434.9949,148.4744 Q435.6797,149.541 437.0244,149.541 Q437.6553,149.541 438.2488,149.2712 Q438.8423,149.0015 439.4731,148.4204 Z "/><text fill="#000000" font-family="sans-serif" font-size="12" lengthAdjust="spacingAndGlyphs" textLength="149" x="451" y="149.5352">TargetDenfenceComputor</text><line style="stroke: #A80036; stroke-width: 1.5;" x1="423" x2="602" y1="161" y2="161"/><line style="stroke: #A80036; stroke-width: 1.5;" x1="423" x2="602" y1="169" y2="169"/><!--class WeaponDamageComputor--><rect fill="#FEFECE" filter="url(#f1vdesmigr601v)" height="48" id="WeaponDamageComputor" style="stroke: #A80036; stroke-width: 1.5;" width="183" x="307" y="237"/><ellipse cx="322" cy="253" fill="#ADD1B2" rx="11" ry="11" style="stroke: #A80036; stroke-width: 1.0;"/><path d="M324.4731,259.1431 Q323.8921,259.4419 323.2529,259.5913 Q322.6138,259.7407 321.9082,259.7407 Q319.4014,259.7407 318.0815,258.0889 Q316.7617,256.437 316.7617,253.3159 Q316.7617,250.1865 318.0815,248.5347 Q319.4014,246.8828 321.9082,246.8828 Q322.6138,246.8828 323.2612,247.0322 Q323.9087,247.1816 324.4731,247.4805 L324.4731,250.2031 Q323.8423,249.6221 323.2488,249.3523 Q322.6553,249.0825 322.0244,249.0825 Q320.6797,249.0825 319.9949,250.1492 Q319.3101,251.2158 319.3101,253.3159 Q319.3101,255.4077 319.9949,256.4744 Q320.6797,257.541 322.0244,257.541 Q322.6553,257.541 323.2488,257.2712 Q323.8423,257.0015 324.4731,256.4204 Z "/><text fill="#000000" font-family="sans-serif" font-size="12" lengthAdjust="spacingAndGlyphs" textLength="151" x="336" y="257.5352">WeaponDamageComputor</text><line style="stroke: #A80036; stroke-width: 1.5;" x1="308" x2="489" y1="269" y2="269"/><line style="stroke: #A80036; stroke-width: 1.5;" x1="308" x2="489" y1="277" y2="277"/><!--class DamageComputorManager--><rect fill="#FEFECE" filter="url(#f1vdesmigr601v)" height="48" id="DamageComputorManager" style="stroke: #A80036; stroke-width: 1.5;" width="187" x="200" y="129"/><ellipse cx="215" cy="145" fill="#ADD1B2" rx="11" ry="11" style="stroke: #A80036; stroke-width: 1.0;"/><path d="M217.4731,151.1431 Q216.8921,151.4419 216.2529,151.5913 Q215.6138,151.7407 214.9082,151.7407 Q212.4014,151.7407 211.0815,150.0889 Q209.7617,148.437 209.7617,145.3159 Q209.7617,142.1865 211.0815,140.5347 Q212.4014,138.8828 214.9082,138.8828 Q215.6138,138.8828 216.2612,139.0322 Q216.9087,139.1816 217.4731,139.4805 L217.4731,142.2031 Q216.8423,141.6221 216.2488,141.3523 Q215.6553,141.0825 215.0244,141.0825 Q213.6797,141.0825 212.9949,142.1492 Q212.3101,143.2158 212.3101,145.3159 Q212.3101,147.4077 212.9949,148.4744 Q213.6797,149.541 215.0244,149.541 Q215.6553,149.541 216.2488,149.2712 Q216.8423,149.0015 217.4731,148.4204 Z "/><text fill="#000000" font-family="sans-serif" font-size="12" lengthAdjust="spacingAndGlyphs" textLength="155" x="229" y="149.5352">DamageComputorManager</text><line style="stroke: #A80036; stroke-width: 1.5;" x1="201" x2="386" y1="161" y2="161"/><line style="stroke: #A80036; stroke-width: 1.5;" x1="201" x2="386" y1="169" y2="169"/><!--class DefenceComputorManager--><rect fill="#FEFECE" filter="url(#f1vdesmigr601v)" height="48" id="DefenceComputorManager" style="stroke: #A80036; stroke-width: 1.5;" width="186" x="638.5" y="129"/><ellipse cx="653.5" cy="145" fill="#ADD1B2" rx="11" ry="11" style="stroke: #A80036; stroke-width: 1.0;"/><path d="M655.9731,151.1431 Q655.3921,151.4419 654.7529,151.5913 Q654.1138,151.7407 653.4082,151.7407 Q650.9014,151.7407 649.5815,150.0889 Q648.2617,148.437 648.2617,145.3159 Q648.2617,142.1865 649.5815,140.5347 Q650.9014,138.8828 653.4082,138.8828 Q654.1138,138.8828 654.7612,139.0322 Q655.4087,139.1816 655.9731,139.4805 L655.9731,142.2031 Q655.3423,141.6221 654.7488,141.3523 Q654.1553,141.0825 653.5244,141.0825 Q652.1797,141.0825 651.4949,142.1492 Q650.8101,143.2158 650.8101,145.3159 Q650.8101,147.4077 651.4949,148.4744 Q652.1797,149.541 653.5244,149.541 Q654.1553,149.541 654.7488,149.2712 Q655.3423,149.0015 655.9731,148.4204 Z "/><text fill="#000000" font-family="sans-serif" font-size="12" lengthAdjust="spacingAndGlyphs" textLength="154" x="667.5" y="149.5352">DefenceComputorManager</text><line style="stroke: #A80036; stroke-width: 1.5;" x1="639.5" x2="823.5" y1="161" y2="161"/><line style="stroke: #A80036; stroke-width: 1.5;" x1="639.5" x2="823.5" y1="169" y2="169"/><!--class CommanderPartner--><rect fill="#FEFECE" filter="url(#f1vdesmigr601v)" height="60.9551" id="CommanderPartner" style="stroke: #A80036; stroke-width: 1.5;" width="145" x="449" y="8"/><ellipse cx="464" cy="24" fill="#ADD1B2" rx="11" ry="11" style="stroke: #A80036; stroke-width: 1.0;"/><path d="M466.4731,30.1431 Q465.8921,30.4419 465.2529,30.5913 Q464.6138,30.7407 463.9082,30.7407 Q461.4014,30.7407 460.0815,29.0889 Q458.7617,27.437 458.7617,24.3159 Q458.7617,21.1865 460.0815,19.5347 Q461.4014,17.8828 463.9082,17.8828 Q464.6138,17.8828 465.2612,18.0322 Q465.9087,18.1816 466.4731,18.4805 L466.4731,21.2031 Q465.8423,20.6221 465.2488,20.3523 Q464.6553,20.0825 464.0244,20.0825 Q462.6797,20.0825 461.9949,21.1492 Q461.3101,22.2158 461.3101,24.3159 Q461.3101,26.4077 461.9949,27.4744 Q462.6797,28.541 464.0244,28.541 Q464.6553,28.541 465.2488,28.2712 Q465.8423,28.0015 466.4731,27.4204 Z "/><text fill="#000000" font-family="sans-serif" font-size="12" lengthAdjust="spacingAndGlyphs" textLength="113" x="478" y="28.5352">CommanderPartner</text><line style="stroke: #A80036; stroke-width: 1.5;" x1="450" x2="593" y1="40" y2="40"/><line style="stroke: #A80036; stroke-width: 1.5;" x1="450" x2="593" y1="48" y2="48"/><ellipse cx="460" cy="59.9775" fill="#84BE84" rx="3" ry="3" style="stroke: #038048; stroke-width: 1.0;"/><text fill="#000000" font-family="sans-serif" font-size="11" lengthAdjust="spacingAndGlyphs" textLength="53" x="469" y="62.6348">attacked()</text><!--link CommanderPartner to DamageComputorManager--><path d="M460.6997,69.0335 C424.9712,86.9761 380.2558,109.4318 346.0591,126.6052 " fill="none" id="CommanderPartner-DamageComputorManager" style="stroke: #008000; stroke-width: 1.0; stroke-dasharray: 7.0,7.0;"/><polygon fill="#008000" points="341.5184,128.8855,351.3563,128.4208,345.9866,126.6415,347.7659,121.2718,341.5184,128.8855" style="stroke: #008000; stroke-width: 1.0;"/><!--link CommanderPartner to DefenceComputorManager--><path d="M577.5003,69.0335 C610.2738,86.9028 651.2572,109.2486 682.7042,126.3947 " fill="none" id="CommanderPartner-DefenceComputorManager" style="stroke: #008000; stroke-width: 1.0; stroke-dasharray: 7.0,7.0;"/><polygon fill="#008000" points="687.2726,128.8855,681.2857,121.0652,682.8827,126.4919,677.456,128.089,687.2726,128.8855" style="stroke: #008000; stroke-width: 1.0;"/><!--link EquipmentDamageComputor to DamageComputorManager--><path d="M293.5,67.6703 C293.5,86.534 293.5,110.8037 293.5,128.6343 " fill="none" id="EquipmentDamageComputor-DamageComputorManager" style="stroke: #A80036; stroke-width: 1.0;"/><polygon fill="#A80036" points="293.5,62.503,289.5,71.503,293.5,67.503,297.5,71.503,293.5,62.503" style="stroke: #A80036; stroke-width: 1.0;"/><!--link DamageComputorManager to TargetDamageComputor--><path d="M269.0383,177.2373 C252.3491,193.7734 230.1947,215.7246 212.7523,233.0069 " fill="none" id="DamageComputorManager-TargetDamageComputor" style="stroke: #A80036; stroke-width: 1.0;"/><polygon fill="#A80036" points="208.8801,236.8436,218.0887,233.3506,212.432,233.3245,212.4581,227.6677,208.8801,236.8436" style="stroke: #A80036; stroke-width: 1.0;"/><!--link DamageComputorManager to WeaponDamageComputor--><path d="M317.064,177.2373 C333.1408,193.7734 354.4822,215.7246 371.2845,233.0069 " fill="none" id="DamageComputorManager-WeaponDamageComputor" style="stroke: #A80036; stroke-width: 1.0;"/><polygon fill="#A80036" points="375.0146,236.8436,371.6089,227.6023,371.5292,233.2586,365.8729,233.179,375.0146,236.8436" style="stroke: #A80036; stroke-width: 1.0;"/><!--link SkillDamageComputor to DamageComputorManager--><path d="M170.2983,153 C180.1911,153 190.084,153 199.9768,153 " fill="none" id="SkillDamageComputor-DamageComputorManager" style="stroke: #A80036; stroke-width: 1.0;"/><polygon fill="#A80036" points="165.125,153,174.125,157,170.125,153,174.125,149,165.125,153" style="stroke: #A80036; stroke-width: 1.0;"/><!--link SkillDenfenseComputor to DefenceComputorManager--><path d="M731.5,67.6703 C731.5,86.534 731.5,110.8037 731.5,128.6343 " fill="none" id="SkillDenfenseComputor-DefenceComputorManager" style="stroke: #A80036; stroke-width: 1.0;"/><polygon fill="#A80036" points="731.5,62.503,727.5,71.503,731.5,67.503,735.5,71.503,731.5,62.503" style="stroke: #A80036; stroke-width: 1.0;"/><!--link TargetDenfenceComputor to DefenceComputorManager--><path d="M608.388,153 C618.3478,153 628.3075,153 638.2673,153 " fill="none" id="TargetDenfenceComputor-DefenceComputorManager" style="stroke: #A80036; stroke-width: 1.0;"/><polygon fill="#A80036" points="603.1797,153,612.1797,157,608.1797,153,612.1797,149,603.1797,153" style="stroke: #A80036; stroke-width: 1.0;"/><!--link DefenceComputorManager to EquipmentDenfenceComputor--><path d="M731.5,182.3947 C731.5,199.4785 731.5,220.7416 731.5,236.8436 " fill="none" id="DefenceComputorManager-EquipmentDenfenceComputor" style="stroke: #A80036; stroke-width: 1.0;"/><polygon fill="#A80036" points="731.5,177.2373,727.5,186.2373,731.5,182.2373,735.5,186.2373,731.5,177.2373" style="stroke: #A80036; stroke-width: 1.0;"/><!--
@startuml facade-pattern



class EquipmentDamageComputor {

}

class EquipmentDenfenceComputor {

}

class SkillDamageComputor {

}

class SkillDenfenseComputor {

}

class TargetDamageComputor {

}

class TargetDenfenceComputor {

}

class WeaponDamageComputor {

}

class DamageComputorManager {

}

class DefenceComputorManager {

}



class CommanderPartner {
  + attacked()
}

CommanderPartner ..[#green]> DamageComputorManager
CommanderPartner ..[#green]> DefenceComputorManager

EquipmentDamageComputor <- - DamageComputorManager
TargetDamageComputor <-down- DamageComputorManager
DamageComputorManager - -> WeaponDamageComputor
DamageComputorManager -left-> SkillDamageComputor

SkillDenfenseComputor <- - DefenceComputorManager
TargetDenfenceComputor <-left- DefenceComputorManager
DefenceComputorManager <- - EquipmentDenfenceComputor

@enduml

PlantUML version 1.2018.12(Sun Oct 21 18:15:15 CST 2018)
(GPL source distribution)
Java Runtime: Java(TM) SE Runtime Environment
JVM: Java HotSpot(TM) 64-Bit Server VM
Java Version: 1.8.0_171-b11
Operating System: Mac OS X
OS Version: 10.14.3
Default Encoding: UTF-8
Language: zh
Country: CN
--></g></svg>