<?xml version="1.0" encoding="UTF-8" standalone="no"?><svg xmlns="http://www.w3.org/2000/svg" xmlns:xlink="http://www.w3.org/1999/xlink" contentScriptType="application/ecmascript" contentStyleType="text/css" height="296px" preserveAspectRatio="none" style="width:981px;height:296px;" version="1.1" viewBox="0 0 981 296" width="981px" zoomAndPan="magnify"><defs><filter height="300%" id="fskhdlomtxl3h" width="300%" x="-1" y="-1"><feGaussianBlur result="blurOut" stdDeviation="2.0"/><feColorMatrix in="blurOut" result="blurOut2" type="matrix" values="0 0 0 0 0 0 0 0 0 0 0 0 0 0 0 0 0 0 .4 0"/><feOffset dx="4.0" dy="4.0" in="blurOut2" result="blurOut3"/><feBlend in="SourceGraphic" in2="blurOut3" mode="normal"/></filter></defs><g><!--class DamageComputor--><rect fill="#FEFECE" filter="url(#fskhdlomtxl3h)" height="60.9551" id="DamageComputor" style="stroke: #A80036; stroke-width: 1.5;" width="137" x="103" y="116"/><ellipse cx="118" cy="132" fill="#B4A7E5" rx="11" ry="11" style="stroke: #A80036; stroke-width: 1.0;"/><path d="M114.4277,128.2651 L114.4277,126.1069 L121.8071,126.1069 L121.8071,128.2651 L119.3418,128.2651 L119.3418,136.3418 L121.8071,136.3418 L121.8071,138.5 L114.4277,138.5 L114.4277,136.3418 L116.8931,136.3418 L116.8931,128.2651 Z "/><text fill="#000000" font-family="sans-serif" font-size="12" font-style="italic" lengthAdjust="spacingAndGlyphs" textLength="105" x="132" y="136.5352">DamageComputor</text><line style="stroke: #A80036; stroke-width: 1.5;" x1="104" x2="239" y1="148" y2="148"/><line style="stroke: #A80036; stroke-width: 1.5;" x1="104" x2="239" y1="156" y2="156"/><ellipse cx="114" cy="167.9775" fill="#84BE84" rx="3" ry="3" style="stroke: #038048; stroke-width: 1.0;"/><text fill="#000000" font-family="sans-serif" font-size="11" lengthAdjust="spacingAndGlyphs" textLength="55" x="123" y="170.6348">compute()</text><!--class DefenceComputor--><rect fill="#FEFECE" filter="url(#fskhdlomtxl3h)" height="60.9551" id="DefenceComputor" style="stroke: #A80036; stroke-width: 1.5;" width="136" x="650.5" y="116"/><ellipse cx="665.5" cy="132" fill="#B4A7E5" rx="11" ry="11" style="stroke: #A80036; stroke-width: 1.0;"/><path d="M661.9277,128.2651 L661.9277,126.1069 L669.3071,126.1069 L669.3071,128.2651 L666.8418,128.2651 L666.8418,136.3418 L669.3071,136.3418 L669.3071,138.5 L661.9277,138.5 L661.9277,136.3418 L664.3931,136.3418 L664.3931,128.2651 Z "/><text fill="#000000" font-family="sans-serif" font-size="12" font-style="italic" lengthAdjust="spacingAndGlyphs" textLength="104" x="679.5" y="136.5352">DefenceComputor</text><line style="stroke: #A80036; stroke-width: 1.5;" x1="651.5" x2="785.5" y1="148" y2="148"/><line style="stroke: #A80036; stroke-width: 1.5;" x1="651.5" x2="785.5" y1="156" y2="156"/><ellipse cx="661.5" cy="167.9775" fill="#84BE84" rx="3" ry="3" style="stroke: #038048; stroke-width: 1.0;"/><text fill="#000000" font-family="sans-serif" font-size="11" lengthAdjust="spacingAndGlyphs" textLength="55" x="670.5" y="170.6348">compute()</text><!--class EquipmentDamageComputor--><rect fill="#FEFECE" filter="url(#fskhdlomtxl3h)" height="48" id="EquipmentDamageComputor" style="stroke: #A80036; stroke-width: 1.5;" width="199" x="42" y="8"/><ellipse cx="57" cy="24" fill="#ADD1B2" rx="11" ry="11" style="stroke: #A80036; stroke-width: 1.0;"/><path d="M59.4731,30.1431 Q58.8921,30.4419 58.2529,30.5913 Q57.6138,30.7407 56.9082,30.7407 Q54.4014,30.7407 53.0815,29.0889 Q51.7617,27.437 51.7617,24.3159 Q51.7617,21.1865 53.0815,19.5347 Q54.4014,17.8828 56.9082,17.8828 Q57.6138,17.8828 58.2612,18.0322 Q58.9087,18.1816 59.4731,18.4805 L59.4731,21.2031 Q58.8423,20.6221 58.2488,20.3523 Q57.6553,20.0825 57.0244,20.0825 Q55.6797,20.0825 54.9949,21.1492 Q54.3101,22.2158 54.3101,24.3159 Q54.3101,26.4077 54.9949,27.4744 Q55.6797,28.541 57.0244,28.541 Q57.6553,28.541 58.2488,28.2712 Q58.8423,28.0015 59.4731,27.4204 Z "/><text fill="#000000" font-family="sans-serif" font-size="12" lengthAdjust="spacingAndGlyphs" textLength="167" x="71" y="28.5352">EquipmentDamageComputor</text><line style="stroke: #A80036; stroke-width: 1.5;" x1="43" x2="240" y1="40" y2="40"/><line style="stroke: #A80036; stroke-width: 1.5;" x1="43" x2="240" y1="48" y2="48"/><!--class EquipmentDenfenceComputor--><rect fill="#FEFECE" filter="url(#fskhdlomtxl3h)" height="48" id="EquipmentDenfenceComputor" style="stroke: #A80036; stroke-width: 1.5;" width="205" x="544" y="237"/><ellipse cx="559" cy="253" fill="#ADD1B2" rx="11" ry="11" style="stroke: #A80036; stroke-width: 1.0;"/><path d="M561.4731,259.1431 Q560.8921,259.4419 560.2529,259.5913 Q559.6138,259.7407 558.9082,259.7407 Q556.4014,259.7407 555.0815,258.0889 Q553.7617,256.437 553.7617,253.3159 Q553.7617,250.1865 555.0815,248.5347 Q556.4014,246.8828 558.9082,246.8828 Q559.6138,246.8828 560.2612,247.0322 Q560.9087,247.1816 561.4731,247.4805 L561.4731,250.2031 Q560.8423,249.6221 560.2488,249.3523 Q559.6553,249.0825 559.0244,249.0825 Q557.6797,249.0825 556.9949,250.1492 Q556.3101,251.2158 556.3101,253.3159 Q556.3101,255.4077 556.9949,256.4744 Q557.6797,257.541 559.0244,257.541 Q559.6553,257.541 560.2488,257.2712 Q560.8423,257.0015 561.4731,256.4204 Z "/><text fill="#000000" font-family="sans-serif" font-size="12" lengthAdjust="spacingAndGlyphs" textLength="173" x="573" y="257.5352">EquipmentDenfenceComputor</text><line style="stroke: #A80036; stroke-width: 1.5;" x1="545" x2="748" y1="269" y2="269"/><line style="stroke: #A80036; stroke-width: 1.5;" x1="545" x2="748" y1="277" y2="277"/><!--class SkillDamageComputor--><rect fill="#FEFECE" filter="url(#fskhdlomtxl3h)" height="48" id="SkillDamageComputor" style="stroke: #A80036; stroke-width: 1.5;" width="159" x="275" y="122.5"/><ellipse cx="290" cy="138.5" fill="#ADD1B2" rx="11" ry="11" style="stroke: #A80036; stroke-width: 1.0;"/><path d="M292.4731,144.6431 Q291.8921,144.9419 291.2529,145.0913 Q290.6138,145.2407 289.9082,145.2407 Q287.4014,145.2407 286.0815,143.5889 Q284.7617,141.937 284.7617,138.8159 Q284.7617,135.6865 286.0815,134.0347 Q287.4014,132.3828 289.9082,132.3828 Q290.6138,132.3828 291.2612,132.5322 Q291.9087,132.6816 292.4731,132.9805 L292.4731,135.7031 Q291.8423,135.1221 291.2488,134.8523 Q290.6553,134.5825 290.0244,134.5825 Q288.6797,134.5825 287.9949,135.6492 Q287.3101,136.7158 287.3101,138.8159 Q287.3101,140.9077 287.9949,141.9744 Q288.6797,143.041 290.0244,143.041 Q290.6553,143.041 291.2488,142.7712 Q291.8423,142.5015 292.4731,141.9204 Z "/><text fill="#000000" font-family="sans-serif" font-size="12" lengthAdjust="spacingAndGlyphs" textLength="127" x="304" y="143.0352">SkillDamageComputor</text><line style="stroke: #A80036; stroke-width: 1.5;" x1="276" x2="433" y1="154.5" y2="154.5"/><line style="stroke: #A80036; stroke-width: 1.5;" x1="276" x2="433" y1="162.5" y2="162.5"/><!--class SkillDenfenseComputor--><rect fill="#FEFECE" filter="url(#fskhdlomtxl3h)" height="48" id="SkillDenfenseComputor" style="stroke: #A80036; stroke-width: 1.5;" width="165" x="562" y="8"/><ellipse cx="577" cy="24" fill="#ADD1B2" rx="11" ry="11" style="stroke: #A80036; stroke-width: 1.0;"/><path d="M579.4731,30.1431 Q578.8921,30.4419 578.2529,30.5913 Q577.6138,30.7407 576.9082,30.7407 Q574.4014,30.7407 573.0815,29.0889 Q571.7617,27.437 571.7617,24.3159 Q571.7617,21.1865 573.0815,19.5347 Q574.4014,17.8828 576.9082,17.8828 Q577.6138,17.8828 578.2612,18.0322 Q578.9087,18.1816 579.4731,18.4805 L579.4731,21.2031 Q578.8423,20.6221 578.2488,20.3523 Q577.6553,20.0825 577.0244,20.0825 Q575.6797,20.0825 574.9949,21.1492 Q574.3101,22.2158 574.3101,24.3159 Q574.3101,26.4077 574.9949,27.4744 Q575.6797,28.541 577.0244,28.541 Q577.6553,28.541 578.2488,28.2712 Q578.8423,28.0015 579.4731,27.4204 Z "/><text fill="#000000" font-family="sans-serif" font-size="12" lengthAdjust="spacingAndGlyphs" textLength="133" x="591" y="28.5352">SkillDenfenseComputor</text><line style="stroke: #A80036; stroke-width: 1.5;" x1="563" x2="726" y1="40" y2="40"/><line style="stroke: #A80036; stroke-width: 1.5;" x1="563" x2="726" y1="48" y2="48"/><!--class TargetDamageComputor--><rect fill="#FEFECE" filter="url(#fskhdlomtxl3h)" height="48" id="TargetDamageComputor" style="stroke: #A80036; stroke-width: 1.5;" width="175" x="276" y="8"/><ellipse cx="291" cy="24" fill="#ADD1B2" rx="11" ry="11" style="stroke: #A80036; stroke-width: 1.0;"/><path d="M293.4731,30.1431 Q292.8921,30.4419 292.2529,30.5913 Q291.6138,30.7407 290.9082,30.7407 Q288.4014,30.7407 287.0815,29.0889 Q285.7617,27.437 285.7617,24.3159 Q285.7617,21.1865 287.0815,19.5347 Q288.4014,17.8828 290.9082,17.8828 Q291.6138,17.8828 292.2612,18.0322 Q292.9087,18.1816 293.4731,18.4805 L293.4731,21.2031 Q292.8423,20.6221 292.2488,20.3523 Q291.6553,20.0825 291.0244,20.0825 Q289.6797,20.0825 288.9949,21.1492 Q288.3101,22.2158 288.3101,24.3159 Q288.3101,26.4077 288.9949,27.4744 Q289.6797,28.541 291.0244,28.541 Q291.6553,28.541 292.2488,28.2712 Q292.8423,28.0015 293.4731,27.4204 Z "/><text fill="#000000" font-family="sans-serif" font-size="12" lengthAdjust="spacingAndGlyphs" textLength="143" x="305" y="28.5352">TargetDamageComputor</text><line style="stroke: #A80036; stroke-width: 1.5;" x1="277" x2="450" y1="40" y2="40"/><line style="stroke: #A80036; stroke-width: 1.5;" x1="277" x2="450" y1="48" y2="48"/><!--class TargetDenfenceComputor--><rect fill="#FEFECE" filter="url(#fskhdlomtxl3h)" height="48" id="TargetDenfenceComputor" style="stroke: #A80036; stroke-width: 1.5;" width="181" x="762" y="8"/><ellipse cx="777" cy="24" fill="#ADD1B2" rx="11" ry="11" style="stroke: #A80036; stroke-width: 1.0;"/><path d="M779.4731,30.1431 Q778.8921,30.4419 778.2529,30.5913 Q777.6138,30.7407 776.9082,30.7407 Q774.4014,30.7407 773.0815,29.0889 Q771.7617,27.437 771.7617,24.3159 Q771.7617,21.1865 773.0815,19.5347 Q774.4014,17.8828 776.9082,17.8828 Q777.6138,17.8828 778.2612,18.0322 Q778.9087,18.1816 779.4731,18.4805 L779.4731,21.2031 Q778.8423,20.6221 778.2488,20.3523 Q777.6553,20.0825 777.0244,20.0825 Q775.6797,20.0825 774.9949,21.1492 Q774.3101,22.2158 774.3101,24.3159 Q774.3101,26.4077 774.9949,27.4744 Q775.6797,28.541 777.0244,28.541 Q777.6553,28.541 778.2488,28.2712 Q778.8423,28.0015 779.4731,27.4204 Z "/><text fill="#000000" font-family="sans-serif" font-size="12" lengthAdjust="spacingAndGlyphs" textLength="149" x="791" y="28.5352">TargetDenfenceComputor</text><line style="stroke: #A80036; stroke-width: 1.5;" x1="763" x2="942" y1="40" y2="40"/><line style="stroke: #A80036; stroke-width: 1.5;" x1="763" x2="942" y1="48" y2="48"/><!--class WeaponDamageComputor--><rect fill="#FEFECE" filter="url(#fskhdlomtxl3h)" height="48" id="WeaponDamageComputor" style="stroke: #A80036; stroke-width: 1.5;" width="183" x="6" y="237"/><ellipse cx="21" cy="253" fill="#ADD1B2" rx="11" ry="11" style="stroke: #A80036; stroke-width: 1.0;"/><path d="M23.4731,259.1431 Q22.8921,259.4419 22.2529,259.5913 Q21.6138,259.7407 20.9082,259.7407 Q18.4014,259.7407 17.0815,258.0889 Q15.7617,256.437 15.7617,253.3159 Q15.7617,250.1865 17.0815,248.5347 Q18.4014,246.8828 20.9082,246.8828 Q21.6138,246.8828 22.2612,247.0322 Q22.9087,247.1816 23.4731,247.4805 L23.4731,250.2031 Q22.8423,249.6221 22.2488,249.3523 Q21.6553,249.0825 21.0244,249.0825 Q19.6797,249.0825 18.9949,250.1492 Q18.3101,251.2158 18.3101,253.3159 Q18.3101,255.4077 18.9949,256.4744 Q19.6797,257.541 21.0244,257.541 Q21.6553,257.541 22.2488,257.2712 Q22.8423,257.0015 23.4731,256.4204 Z "/><text fill="#000000" font-family="sans-serif" font-size="12" lengthAdjust="spacingAndGlyphs" textLength="151" x="35" y="257.5352">WeaponDamageComputor</text><line style="stroke: #A80036; stroke-width: 1.5;" x1="7" x2="188" y1="269" y2="269"/><line style="stroke: #A80036; stroke-width: 1.5;" x1="7" x2="188" y1="277" y2="277"/><!--class DamageComputorManager--><rect fill="#FEFECE" filter="url(#fskhdlomtxl3h)" height="48" id="DamageComputorManager" style="stroke: #A80036; stroke-width: 1.5;" width="187" x="224" y="237"/><ellipse cx="239" cy="253" fill="#ADD1B2" rx="11" ry="11" style="stroke: #A80036; stroke-width: 1.0;"/><path d="M241.4731,259.1431 Q240.8921,259.4419 240.2529,259.5913 Q239.6138,259.7407 238.9082,259.7407 Q236.4014,259.7407 235.0815,258.0889 Q233.7617,256.437 233.7617,253.3159 Q233.7617,250.1865 235.0815,248.5347 Q236.4014,246.8828 238.9082,246.8828 Q239.6138,246.8828 240.2612,247.0322 Q240.9087,247.1816 241.4731,247.4805 L241.4731,250.2031 Q240.8423,249.6221 240.2488,249.3523 Q239.6553,249.0825 239.0244,249.0825 Q237.6797,249.0825 236.9949,250.1492 Q236.3101,251.2158 236.3101,253.3159 Q236.3101,255.4077 236.9949,256.4744 Q237.6797,257.541 239.0244,257.541 Q239.6553,257.541 240.2488,257.2712 Q240.8423,257.0015 241.4731,256.4204 Z "/><text fill="#000000" font-family="sans-serif" font-size="12" lengthAdjust="spacingAndGlyphs" textLength="155" x="253" y="257.5352">DamageComputorManager</text><line style="stroke: #A80036; stroke-width: 1.5;" x1="225" x2="410" y1="269" y2="269"/><line style="stroke: #A80036; stroke-width: 1.5;" x1="225" x2="410" y1="277" y2="277"/><!--class DefenceComputorManager--><rect fill="#FEFECE" filter="url(#fskhdlomtxl3h)" height="48" id="DefenceComputorManager" style="stroke: #A80036; stroke-width: 1.5;" width="186" x="784.5" y="237"/><ellipse cx="799.5" cy="253" fill="#ADD1B2" rx="11" ry="11" style="stroke: #A80036; stroke-width: 1.0;"/><path d="M801.9731,259.1431 Q801.3921,259.4419 800.7529,259.5913 Q800.1138,259.7407 799.4082,259.7407 Q796.9014,259.7407 795.5815,258.0889 Q794.2617,256.437 794.2617,253.3159 Q794.2617,250.1865 795.5815,248.5347 Q796.9014,246.8828 799.4082,246.8828 Q800.1138,246.8828 800.7612,247.0322 Q801.4087,247.1816 801.9731,247.4805 L801.9731,250.2031 Q801.3423,249.6221 800.7488,249.3523 Q800.1553,249.0825 799.5244,249.0825 Q798.1797,249.0825 797.4949,250.1492 Q796.8101,251.2158 796.8101,253.3159 Q796.8101,255.4077 797.4949,256.4744 Q798.1797,257.541 799.5244,257.541 Q800.1553,257.541 800.7488,257.2712 Q801.3423,257.0015 801.9731,256.4204 Z "/><text fill="#000000" font-family="sans-serif" font-size="12" lengthAdjust="spacingAndGlyphs" textLength="154" x="813.5" y="257.5352">DefenceComputorManager</text><line style="stroke: #A80036; stroke-width: 1.5;" x1="785.5" x2="969.5" y1="269" y2="269"/><line style="stroke: #A80036; stroke-width: 1.5;" x1="785.5" x2="969.5" y1="277" y2="277"/><!--link EquipmentDamageComputor to DamageComputor--><path d="M147.789,56.003 C150.8597,67.7227 154.6756,82.287 158.3425,96.2822 " fill="none" id="EquipmentDamageComputor-DamageComputor" style="stroke: #A80036; stroke-width: 1.0; stroke-dasharray: 7.0,7.0;"/><polygon fill="none" points="165.2062,94.8606,163.504,115.9818,151.6634,98.409,165.2062,94.8606" style="stroke: #A80036; stroke-width: 1.0;"/><!--link DamageComputor to SkillDamageComputor--><path d="M260.2719,146.5 C265.1725,146.5 270.073,146.5 274.9736,146.5 " fill="none" id="DamageComputor-SkillDamageComputor" style="stroke: #A80036; stroke-width: 1.0; stroke-dasharray: 7.0,7.0;"/><polygon fill="none" points="260.125,153.4999,240.125,146.5,260.125,139.4999,260.125,153.4999" style="stroke: #A80036; stroke-width: 1.0;"/><!--link TargetDamageComputor to DamageComputor--><path d="M323.2505,56.003 C299.1422,70.38 267.8554,89.0381 239.9584,105.6746 " fill="none" id="TargetDamageComputor-DamageComputor" style="stroke: #A80036; stroke-width: 1.0; stroke-dasharray: 7.0,7.0;"/><polygon fill="none" points="243.4375,111.75,222.6747,115.9818,236.2667,99.7258,243.4375,111.75" style="stroke: #A80036; stroke-width: 1.0;"/><!--link DamageComputor to WeaponDamageComputor--><path d="M140.5861,194.3329 C131.1377,208.9525 121.1447,224.4145 113.1638,236.7634 " fill="none" id="DamageComputor-WeaponDamageComputor" style="stroke: #A80036; stroke-width: 1.0; stroke-dasharray: 7.0,7.0;"/><polygon fill="none" points="134.9344,190.1816,151.6694,177.1839,146.6925,197.7808,134.9344,190.1816" style="stroke: #A80036; stroke-width: 1.0;"/><!--link DamageComputor to DamageComputorManager--><path d="M226.3922,189.549 C246.7527,205.5167 269.1192,223.0575 286.5957,236.7634 " fill="none" id="DamageComputor-DamageComputorManager" style="stroke: #A80036; stroke-width: 1.0; stroke-dasharray: 7.0,7.0;"/><polygon fill="none" points="222.0432,195.0342,210.6253,177.1839,230.6827,184.0179,222.0432,195.0342" style="stroke: #A80036; stroke-width: 1.0;"/><!--link DefenceComputor to EquipmentDenfenceComputor--><path d="M688.4217,194.3329 C679.2285,208.9525 669.5057,224.4145 661.7405,236.7634 " fill="none" id="DefenceComputor-EquipmentDenfenceComputor" style="stroke: #A80036; stroke-width: 1.0; stroke-dasharray: 7.0,7.0;"/><polygon fill="none" points="682.633,190.3885,699.2053,177.1839,694.4846,197.841,682.633,190.3885" style="stroke: #A80036; stroke-width: 1.0;"/><!--link SkillDenfenseComputor to DefenceComputor--><path d="M660.0128,56.003 C668.0275,68.404 678.1006,83.9902 687.6183,98.7168 " fill="none" id="SkillDenfenseComputor-DefenceComputor" style="stroke: #A80036; stroke-width: 1.0; stroke-dasharray: 7.0,7.0;"/><polygon fill="none" points="693.7995,95.3849,698.7764,115.9818,682.0414,102.984,693.7995,95.3849" style="stroke: #A80036; stroke-width: 1.0;"/><!--link TargetDenfenceComputor to DefenceComputor--><path d="M824.4092,56.003 C808.5405,69.5624 788.2155,86.9297 769.6217,102.8176 " fill="none" id="TargetDenfenceComputor-DefenceComputor" style="stroke: #A80036; stroke-width: 1.0; stroke-dasharray: 7.0,7.0;"/><polygon fill="none" points="773.9682,108.3111,754.2157,115.9818,764.8734,97.6675,773.9682,108.3111" style="stroke: #A80036; stroke-width: 1.0;"/><!--link DefenceComputor to DefenceComputorManager--><path d="M777.3528,188.8814 C799.8717,205.0979 824.7653,223.0244 844.1003,236.948 " fill="none" id="DefenceComputor-DefenceComputorManager" style="stroke: #A80036; stroke-width: 1.0; stroke-dasharray: 7.0,7.0;"/><polygon fill="none" points="773.2482,194.5518,761.1091,177.1839,781.4294,183.191,773.2482,194.5518" style="stroke: #A80036; stroke-width: 1.0;"/><!--
@startuml facade-pattern-realization

interface DamageComputor {
  + compute()
}

interface DefenceComputor {
  + compute()
}

class EquipmentDamageComputor {

}

class EquipmentDenfenceComputor {

}

class SkillDamageComputor {

}

class SkillDenfenseComputor {

}

class TargetDamageComputor {

}

class TargetDenfenceComputor {

}

class WeaponDamageComputor {

}

class DamageComputorManager {

}

class DefenceComputorManager {

}

EquipmentDamageComputor ..|> DamageComputor
DamageComputor <|.right. SkillDamageComputor
TargetDamageComputor ..|> DamageComputor
DamageComputor <|.. WeaponDamageComputor
DamageComputor <|.. DamageComputorManager

DefenceComputor <|.. EquipmentDenfenceComputor
SkillDenfenseComputor ..|> DefenceComputor
TargetDenfenceComputor..|>DefenceComputor
DefenceComputor <|.. DefenceComputorManager

@enduml

PlantUML version 1.2018.12(Sun Oct 21 18:15:15 CST 2018)
(GPL source distribution)
Java Runtime: Java(TM) SE Runtime Environment
JVM: Java HotSpot(TM) 64-Bit Server VM
Java Version: 1.8.0_171-b11
Operating System: Mac OS X
OS Version: 10.14.3
Default Encoding: UTF-8
Language: zh
Country: CN
--></g></svg>