<?xml version="1.0" encoding="UTF-8" standalone="no"?><svg xmlns="http://www.w3.org/2000/svg" xmlns:xlink="http://www.w3.org/1999/xlink" contentScriptType="application/ecmascript" contentStyleType="text/css" height="240px" preserveAspectRatio="none" style="width:496px;height:240px;" version="1.1" viewBox="0 0 496 240" width="496px" zoomAndPan="magnify"><defs><filter height="300%" id="f1vk3475cbfvno" width="300%" x="-1" y="-1"><feGaussianBlur result="blurOut" stdDeviation="2.0"/><feColorMatrix in="blurOut" result="blurOut2" type="matrix" values="0 0 0 0 0 0 0 0 0 0 0 0 0 0 0 0 0 0 .4 0"/><feOffset dx="4.0" dy="4.0" in="blurOut2" result="blurOut3"/><feBlend in="SourceGraphic" in2="blurOut3" mode="normal"/></filter></defs><g><!--class RoleService--><rect fill="#FEFECE" filter="url(#f1vk3475cbfvno)" height="112.7754" id="RoleService" style="stroke: #A80036; stroke-width: 1.5;" width="256" x="52" y="8"/><ellipse cx="143.25" cy="24" fill="#B4A7E5" rx="11" ry="11" style="stroke: #A80036; stroke-width: 1.0;"/><path d="M139.6777,20.2651 L139.6777,18.1069 L147.0571,18.1069 L147.0571,20.2651 L144.5918,20.2651 L144.5918,28.3418 L147.0571,28.3418 L147.0571,30.5 L139.6777,30.5 L139.6777,28.3418 L142.1431,28.3418 L142.1431,20.2651 Z "/><text fill="#000000" font-family="sans-serif" font-size="12" font-style="italic" lengthAdjust="spacingAndGlyphs" textLength="65" x="163.75" y="28.5352">RoleService</text><line style="stroke: #A80036; stroke-width: 1.5;" x1="53" x2="307" y1="40" y2="40"/><line style="stroke: #A80036; stroke-width: 1.5;" x1="53" x2="307" y1="48" y2="48"/><ellipse cx="63" cy="59.9775" fill="#84BE84" rx="3" ry="3" style="stroke: #038048; stroke-width: 1.0;"/><text fill="#000000" font-family="sans-serif" font-size="11" lengthAdjust="spacingAndGlyphs" textLength="230" x="72" y="62.6348">getCommanderBasic():CommanderBasicVO</text><ellipse cx="63" cy="72.9326" fill="#84BE84" rx="3" ry="3" style="stroke: #038048; stroke-width: 1.0;"/><text fill="#000000" font-family="sans-serif" font-size="11" lengthAdjust="spacingAndGlyphs" textLength="149" x="72" y="75.5898">getCommanderIcon():String</text><ellipse cx="63" cy="85.8877" fill="#84BE84" rx="3" ry="3" style="stroke: #038048; stroke-width: 1.0;"/><text fill="#000000" font-family="sans-serif" font-size="11" lengthAdjust="spacingAndGlyphs" textLength="142" x="72" y="88.5449">getWeaponVo():WeaponVO</text><ellipse cx="63" cy="98.8428" fill="#84BE84" rx="3" ry="3" style="stroke: #038048; stroke-width: 1.0;"/><text fill="#000000" font-family="sans-serif" font-size="11" lengthAdjust="spacingAndGlyphs" textLength="149" x="72" y="101.5">strengthWeaponHead():void</text><ellipse cx="63" cy="111.7979" fill="#84BE84" rx="3" ry="3" style="stroke: #038048; stroke-width: 1.0;"/><text fill="#000000" font-family="sans-serif" font-size="11" lengthAdjust="spacingAndGlyphs" textLength="141" x="72" y="114.4551">strengthWeaponTail():void</text><!--class RoleServiceImpl--><rect fill="#FEFECE" filter="url(#f1vk3475cbfvno)" height="48" id="RoleServiceImpl" style="stroke: #A80036; stroke-width: 1.5;" width="122" x="119" y="181"/><ellipse cx="134" cy="197" fill="#ADD1B2" rx="11" ry="11" style="stroke: #A80036; stroke-width: 1.0;"/><path d="M136.4731,203.1431 Q135.8921,203.4419 135.2529,203.5913 Q134.6138,203.7407 133.9082,203.7407 Q131.4014,203.7407 130.0815,202.0889 Q128.7617,200.437 128.7617,197.3159 Q128.7617,194.1865 130.0815,192.5347 Q131.4014,190.8828 133.9082,190.8828 Q134.6138,190.8828 135.2612,191.0322 Q135.9087,191.1816 136.4731,191.4805 L136.4731,194.2031 Q135.8423,193.6221 135.2488,193.3523 Q134.6553,193.0825 134.0244,193.0825 Q132.6797,193.0825 131.9949,194.1492 Q131.3101,195.2158 131.3101,197.3159 Q131.3101,199.4077 131.9949,200.4744 Q132.6797,201.541 134.0244,201.541 Q134.6553,201.541 135.2488,201.2712 Q135.8423,201.0015 136.4731,200.4204 Z "/><text fill="#000000" font-family="sans-serif" font-size="12" lengthAdjust="spacingAndGlyphs" textLength="90" x="148" y="201.5352">RoleServiceImpl</text><line style="stroke: #A80036; stroke-width: 1.5;" x1="120" x2="240" y1="213" y2="213"/><line style="stroke: #A80036; stroke-width: 1.5;" x1="120" x2="240" y1="221" y2="221"/><!--class Commander--><rect fill="#FEFECE" filter="url(#f1vk3475cbfvno)" height="48" id="Commander" style="stroke: #A80036; stroke-width: 1.5;" width="103" x="276.5" y="181"/><ellipse cx="291.5" cy="197" fill="#A9DCDF" rx="11" ry="11" style="stroke: #A80036; stroke-width: 1.0;"/><path d="M291.6133,192.5981 L290.4595,197.6699 L292.7754,197.6699 Z M290.1191,190.3569 L293.1157,190.3569 L296.4609,202.75 L294.0122,202.75 L293.2485,199.687 L289.9697,199.687 L289.2227,202.75 L286.7739,202.75 Z "/><text fill="#000000" font-family="sans-serif" font-size="12" font-style="italic" lengthAdjust="spacingAndGlyphs" textLength="71" x="305.5" y="201.5352">Commander</text><line style="stroke: #A80036; stroke-width: 1.5;" x1="277.5" x2="378.5" y1="213" y2="213"/><line style="stroke: #A80036; stroke-width: 1.5;" x1="277.5" x2="378.5" y1="221" y2="221"/><!--class Weapon--><rect fill="#FEFECE" filter="url(#f1vk3475cbfvno)" height="48" id="Weapon" style="stroke: #A80036; stroke-width: 1.5;" width="78" x="6" y="181"/><ellipse cx="21" cy="197" fill="#A9DCDF" rx="11" ry="11" style="stroke: #A80036; stroke-width: 1.0;"/><path d="M21.1133,192.5981 L19.9595,197.6699 L22.2754,197.6699 Z M19.6191,190.3569 L22.6157,190.3569 L25.9609,202.75 L23.5122,202.75 L22.7485,199.687 L19.4697,199.687 L18.7227,202.75 L16.2739,202.75 Z "/><text fill="#000000" font-family="sans-serif" font-size="12" font-style="italic" lengthAdjust="spacingAndGlyphs" textLength="46" x="35" y="201.5352">Weapon</text><line style="stroke: #A80036; stroke-width: 1.5;" x1="7" x2="83" y1="213" y2="213"/><line style="stroke: #A80036; stroke-width: 1.5;" x1="7" x2="83" y1="221" y2="221"/><!--class GameClientWindow--><rect fill="#FEFECE" filter="url(#f1vk3475cbfvno)" height="48" id="GameClientWindow" style="stroke: #A80036; stroke-width: 1.5;" width="142" x="343" y="40.5"/><ellipse cx="358" cy="56.5" fill="#ADD1B2" rx="11" ry="11" style="stroke: #A80036; stroke-width: 1.0;"/><path d="M360.4731,62.6431 Q359.8921,62.9419 359.2529,63.0913 Q358.6138,63.2407 357.9082,63.2407 Q355.4014,63.2407 354.0815,61.5889 Q352.7617,59.937 352.7617,56.8159 Q352.7617,53.6865 354.0815,52.0347 Q355.4014,50.3828 357.9082,50.3828 Q358.6138,50.3828 359.2612,50.5322 Q359.9087,50.6816 360.4731,50.9805 L360.4731,53.7031 Q359.8423,53.1221 359.2488,52.8523 Q358.6553,52.5825 358.0244,52.5825 Q356.6797,52.5825 355.9949,53.6492 Q355.3101,54.7158 355.3101,56.8159 Q355.3101,58.9077 355.9949,59.9744 Q356.6797,61.041 358.0244,61.041 Q358.6553,61.041 359.2488,60.7712 Q359.8423,60.5015 360.4731,59.9204 Z "/><text fill="#000000" font-family="sans-serif" font-size="12" lengthAdjust="spacingAndGlyphs" textLength="110" x="372" y="61.0352">GameClientWindow</text><line style="stroke: #A80036; stroke-width: 1.5;" x1="344" x2="484" y1="72.5" y2="72.5"/><line style="stroke: #A80036; stroke-width: 1.5;" x1="344" x2="484" y1="80.5" y2="80.5"/><!--link RoleService to RoleServiceImpl--><path d="M180,141.4003 C180,155.6612 180,169.5531 180,180.6972 " fill="none" id="RoleService-RoleServiceImpl" style="stroke: #A80036; stroke-width: 1.0;"/><polygon fill="none" points="173.0001,141.2418,180,121.2417,187.0001,141.2417,173.0001,141.2418" style="stroke: #A80036; stroke-width: 1.0;"/><!--link RoleServiceImpl to Commander--><path d="M254.3653,205 C261.6342,205 268.9031,205 276.172,205 " fill="none" id="RoleServiceImpl-Commander" style="stroke: #A80036; stroke-width: 1.0;"/><polygon fill="#FFFFFF" points="241.2813,205,247.2813,209,253.2813,205,247.2813,201,241.2813,205" style="stroke: #A80036; stroke-width: 1.0;"/><text fill="#000000" font-family="sans-serif" font-size="13" lengthAdjust="spacingAndGlyphs" textLength="8" x="248.8295" y="201.7191">1</text><!--link Weapon to RoleServiceImpl--><path d="M84.0234,205 C91.2873,205 98.5511,205 105.815,205 " fill="none" id="Weapon-RoleServiceImpl" style="stroke: #A80036; stroke-width: 1.0;"/><polygon fill="#FFFFFF" points="118.8899,205,112.8899,201,106.8899,205,112.8899,209,118.8899,205" style="stroke: #A80036; stroke-width: 1.0;"/><text fill="#000000" font-family="sans-serif" font-size="13" lengthAdjust="spacingAndGlyphs" textLength="8" x="102.9546" y="201.6732">1</text><!--link RoleService to GameClientWindow--><path d="M313.5067,64.5 C323.2228,64.5 332.9388,64.5 342.6549,64.5 " fill="none" id="RoleService-GameClientWindow" style="stroke: #A80036; stroke-width: 1.0;"/><polygon fill="#A80036" points="308.4258,64.5,317.4258,68.5,313.4258,64.5,317.4258,60.5,308.4258,64.5" style="stroke: #A80036; stroke-width: 1.0;"/><!--
@startuml bridge-pattern

interface RoleService {
  + getCommanderBasic():CommanderBasicVO
  + getCommanderIcon():String
  + getWeaponVo():WeaponVO
  + strengthWeaponHead():void
  + strengthWeaponTail():void
}

class RoleServiceImpl {

}

RoleService <|- - RoleServiceImpl

abstract class Commander {

}
abstract class Weapon

RoleServiceImpl "1" o- Commander
Weapon -o "1" RoleServiceImpl

class GameClientWindow {
}

GameClientWindow -left-> RoleService

@enduml

PlantUML version 1.2018.12(Sun Oct 21 18:15:15 CST 2018)
(GPL source distribution)
Java Runtime: Java(TM) SE Runtime Environment
JVM: Java HotSpot(TM) 64-Bit Server VM
Java Version: 1.8.0_171-b11
Operating System: Mac OS X
OS Version: 10.14.3
Default Encoding: UTF-8
Language: zh
Country: CN
--></g></svg>