<?xml version="1.0" encoding="UTF-8" standalone="no"?><svg xmlns="http://www.w3.org/2000/svg" xmlns:xlink="http://www.w3.org/1999/xlink" contentScriptType="application/ecmascript" contentStyleType="text/css" height="321px" preserveAspectRatio="none" style="width:397px;height:321px;" version="1.1" viewBox="0 0 397 321" width="397px" zoomAndPan="magnify"><defs><filter height="300%" id="fntj3qt4klnhw" width="300%" x="-1" y="-1"><feGaussianBlur result="blurOut" stdDeviation="2.0"/><feColorMatrix in="blurOut" result="blurOut2" type="matrix" values="0 0 0 0 0 0 0 0 0 0 0 0 0 0 0 0 0 0 .4 0"/><feOffset dx="4.0" dy="4.0" in="blurOut2" result="blurOut3"/><feBlend in="SourceGraphic" in2="blurOut3" mode="normal"/></filter></defs><g><!--class PhysicalDamage--><rect fill="#FEFECE" filter="url(#fntj3qt4klnhw)" height="60.9551" id="PhysicalDamage" style="stroke: #A80036; stroke-width: 1.5;" width="167" x="6" y="8"/><ellipse cx="39.9" cy="24" fill="#B4A7E5" rx="11" ry="11" style="stroke: #A80036; stroke-width: 1.0;"/><path d="M36.3277,20.2651 L36.3277,18.1069 L43.7071,18.1069 L43.7071,20.2651 L41.2418,20.2651 L41.2418,28.3418 L43.7071,28.3418 L43.7071,30.5 L36.3277,30.5 L36.3277,28.3418 L38.7931,28.3418 L38.7931,20.2651 Z "/><text fill="#000000" font-family="sans-serif" font-size="12" font-style="italic" lengthAdjust="spacingAndGlyphs" textLength="93" x="58.1" y="28.5352">PhysicalDamage</text><line style="stroke: #A80036; stroke-width: 1.5;" x1="7" x2="172" y1="40" y2="40"/><line style="stroke: #A80036; stroke-width: 1.5;" x1="7" x2="172" y1="48" y2="48"/><ellipse cx="17" cy="59.9775" fill="#84BE84" rx="3" ry="3" style="stroke: #038048; stroke-width: 1.0;"/><text fill="#000000" font-family="sans-serif" font-size="11" lengthAdjust="spacingAndGlyphs" textLength="141" x="26" y="62.6348">computePhysicalDamage()</text><!--class MagicalDamage--><rect fill="#FEFECE" filter="url(#fntj3qt4klnhw)" height="60.9551" id="MagicalDamage" style="stroke: #A80036; stroke-width: 1.5;" width="155" x="12" y="250"/><ellipse cx="41.4" cy="266" fill="#B4A7E5" rx="11" ry="11" style="stroke: #A80036; stroke-width: 1.0;"/><path d="M37.8277,262.2651 L37.8277,260.1069 L45.2071,260.1069 L45.2071,262.2651 L42.7418,262.2651 L42.7418,270.3418 L45.2071,270.3418 L45.2071,272.5 L37.8277,272.5 L37.8277,270.3418 L40.2931,270.3418 L40.2931,262.2651 Z "/><text fill="#000000" font-family="sans-serif" font-size="12" font-style="italic" lengthAdjust="spacingAndGlyphs" textLength="91" x="58.6" y="270.5352">MagicalDamage</text><line style="stroke: #A80036; stroke-width: 1.5;" x1="13" x2="166" y1="282" y2="282"/><line style="stroke: #A80036; stroke-width: 1.5;" x1="13" x2="166" y1="290" y2="290"/><ellipse cx="23" cy="301.9775" fill="#84BE84" rx="3" ry="3" style="stroke: #038048; stroke-width: 1.0;"/><text fill="#000000" font-family="sans-serif" font-size="11" lengthAdjust="spacingAndGlyphs" textLength="129" x="32" y="304.6348">computeMagicDamage()</text><!--class DamageComputor--><rect fill="#FEFECE" filter="url(#fntj3qt4klnhw)" height="60.9551" id="DamageComputor" style="stroke: #A80036; stroke-width: 1.5;" width="137" x="226" y="129"/><ellipse cx="241" cy="145" fill="#B4A7E5" rx="11" ry="11" style="stroke: #A80036; stroke-width: 1.0;"/><path d="M237.4277,141.2651 L237.4277,139.1069 L244.8071,139.1069 L244.8071,141.2651 L242.3418,141.2651 L242.3418,149.3418 L244.8071,149.3418 L244.8071,151.5 L237.4277,151.5 L237.4277,149.3418 L239.8931,149.3418 L239.8931,141.2651 Z "/><text fill="#000000" font-family="sans-serif" font-size="12" font-style="italic" lengthAdjust="spacingAndGlyphs" textLength="105" x="255" y="149.5352">DamageComputor</text><line style="stroke: #A80036; stroke-width: 1.5;" x1="227" x2="362" y1="161" y2="161"/><line style="stroke: #A80036; stroke-width: 1.5;" x1="227" x2="362" y1="169" y2="169"/><ellipse cx="237" cy="180.9775" fill="#84BE84" rx="3" ry="3" style="stroke: #038048; stroke-width: 1.0;"/><text fill="#000000" font-family="sans-serif" font-size="11" lengthAdjust="spacingAndGlyphs" textLength="55" x="246" y="183.6348">compute()</text><!--class SkillDamageComputor--><rect fill="#FEFECE" filter="url(#fntj3qt4klnhw)" height="60.9551" id="SkillDamageComputor" style="stroke: #A80036; stroke-width: 1.5;" width="159" x="10" y="129"/><ellipse cx="25" cy="145" fill="#ADD1B2" rx="11" ry="11" style="stroke: #A80036; stroke-width: 1.0;"/><path d="M27.4731,151.1431 Q26.8921,151.4419 26.2529,151.5913 Q25.6138,151.7407 24.9082,151.7407 Q22.4014,151.7407 21.0815,150.0889 Q19.7617,148.437 19.7617,145.3159 Q19.7617,142.1865 21.0815,140.5347 Q22.4014,138.8828 24.9082,138.8828 Q25.6138,138.8828 26.2612,139.0322 Q26.9087,139.1816 27.4731,139.4805 L27.4731,142.2031 Q26.8423,141.6221 26.2488,141.3523 Q25.6553,141.0825 25.0244,141.0825 Q23.6797,141.0825 22.9949,142.1492 Q22.3101,143.2158 22.3101,145.3159 Q22.3101,147.4077 22.9949,148.4744 Q23.6797,149.541 25.0244,149.541 Q25.6553,149.541 26.2488,149.2712 Q26.8423,149.0015 27.4731,148.4204 Z "/><text fill="#000000" font-family="sans-serif" font-size="12" lengthAdjust="spacingAndGlyphs" textLength="127" x="39" y="149.5352">SkillDamageComputor</text><line style="stroke: #A80036; stroke-width: 1.5;" x1="11" x2="168" y1="161" y2="161"/><line style="stroke: #A80036; stroke-width: 1.5;" x1="11" x2="168" y1="169" y2="169"/><ellipse cx="21" cy="180.9775" fill="#84BE84" rx="3" ry="3" style="stroke: #038048; stroke-width: 1.0;"/><text fill="#000000" font-family="sans-serif" font-size="11" lengthAdjust="spacingAndGlyphs" textLength="55" x="30" y="183.6348">compute()</text><!--class TargetDamageComputor--><rect fill="#FEFECE" filter="url(#fntj3qt4klnhw)" height="48" id="TargetDamageComputor" style="stroke: #A80036; stroke-width: 1.5;" width="175" x="208" y="14.5"/><ellipse cx="223" cy="30.5" fill="#ADD1B2" rx="11" ry="11" style="stroke: #A80036; stroke-width: 1.0;"/><path d="M225.4731,36.6431 Q224.8921,36.9419 224.2529,37.0913 Q223.6138,37.2407 222.9082,37.2407 Q220.4014,37.2407 219.0815,35.5889 Q217.7617,33.937 217.7617,30.8159 Q217.7617,27.6865 219.0815,26.0347 Q220.4014,24.3828 222.9082,24.3828 Q223.6138,24.3828 224.2612,24.5322 Q224.9087,24.6816 225.4731,24.9805 L225.4731,27.7031 Q224.8423,27.1221 224.2488,26.8523 Q223.6553,26.5825 223.0244,26.5825 Q221.6797,26.5825 220.9949,27.6492 Q220.3101,28.7158 220.3101,30.8159 Q220.3101,32.9077 220.9949,33.9744 Q221.6797,35.041 223.0244,35.041 Q223.6553,35.041 224.2488,34.7712 Q224.8423,34.5015 225.4731,33.9204 Z "/><text fill="#000000" font-family="sans-serif" font-size="12" lengthAdjust="spacingAndGlyphs" textLength="143" x="237" y="35.0352">TargetDamageComputor</text><line style="stroke: #A80036; stroke-width: 1.5;" x1="209" x2="382" y1="46.5" y2="46.5"/><line style="stroke: #A80036; stroke-width: 1.5;" x1="209" x2="382" y1="54.5" y2="54.5"/><!--class WeaponDamageComputor--><rect fill="#FEFECE" filter="url(#fntj3qt4klnhw)" height="48" id="WeaponDamageComputor" style="stroke: #A80036; stroke-width: 1.5;" width="183" x="203" y="256.5"/><ellipse cx="218" cy="272.5" fill="#ADD1B2" rx="11" ry="11" style="stroke: #A80036; stroke-width: 1.0;"/><path d="M220.4731,278.6431 Q219.8921,278.9419 219.2529,279.0913 Q218.6138,279.2407 217.9082,279.2407 Q215.4014,279.2407 214.0815,277.5889 Q212.7617,275.937 212.7617,272.8159 Q212.7617,269.6865 214.0815,268.0347 Q215.4014,266.3828 217.9082,266.3828 Q218.6138,266.3828 219.2612,266.5322 Q219.9087,266.6816 220.4731,266.9805 L220.4731,269.7031 Q219.8423,269.1221 219.2488,268.8523 Q218.6553,268.5825 218.0244,268.5825 Q216.6797,268.5825 215.9949,269.6492 Q215.3101,270.7158 215.3101,272.8159 Q215.3101,274.9077 215.9949,275.9744 Q216.6797,277.041 218.0244,277.041 Q218.6553,277.041 219.2488,276.7712 Q219.8423,276.5015 220.4731,275.9204 Z "/><text fill="#000000" font-family="sans-serif" font-size="12" lengthAdjust="spacingAndGlyphs" textLength="151" x="232" y="277.0352">WeaponDamageComputor</text><line style="stroke: #A80036; stroke-width: 1.5;" x1="204" x2="385" y1="288.5" y2="288.5"/><line style="stroke: #A80036; stroke-width: 1.5;" x1="204" x2="385" y1="296.5" y2="296.5"/><!--link SkillDamageComputor to DamageComputor--><path d="M169.1777,159.5 C181.3041,159.5 193.4304,159.5 205.5567,159.5 " fill="none" id="SkillDamageComputor-DamageComputor" style="stroke: #A80036; stroke-width: 1.0; stroke-dasharray: 7.0,7.0;"/><polygon fill="none" points="205.9644,152.4999,225.9644,159.5,205.9644,166.4999,205.9644,152.4999" style="stroke: #A80036; stroke-width: 1.0;"/><!--link TargetDamageComputor to DamageComputor--><path d="M295.3,62.6953 C295.1907,75.9305 295.0509,92.8439 294.9189,108.819 " fill="none" id="TargetDamageComputor-DamageComputor" style="stroke: #A80036; stroke-width: 1.0;"/><polygon fill="none" points="301.9181,108.9494,294.753,128.8909,287.9186,108.8337,301.9181,108.9494" style="stroke: #A80036; stroke-width: 1.0;"/><!--link DamageComputor to WeaponDamageComputor--><path d="M294.5,210.1787 C294.5,226.2165 294.5,243.2003 294.5,256.4587 " fill="none" id="DamageComputor-WeaponDamageComputor" style="stroke: #A80036; stroke-width: 1.0;"/><polygon fill="none" points="287.5001,210.0334,294.5,190.0334,301.5001,210.0334,287.5001,210.0334" style="stroke: #A80036; stroke-width: 1.0;"/><!--link PhysicalDamage to SkillDamageComputor--><path d="M89.5,74.3138 C89.5,91.694 89.5,112.3549 89.5,128.9764 " fill="none" id="PhysicalDamage-SkillDamageComputor" style="stroke: #A80036; stroke-width: 1.0;"/><polygon fill="#A80036" points="89.5,69.0334,85.5,78.0334,89.5,74.0334,93.5,78.0334,89.5,69.0334" style="stroke: #A80036; stroke-width: 1.0;"/><!--link SkillDamageComputor to MagicalDamage--><path d="M89.5,190.0334 C89.5,206.6565 89.5,227.3175 89.5,244.6964 " fill="none" id="SkillDamageComputor-MagicalDamage" style="stroke: #A80036; stroke-width: 1.0;"/><polygon fill="#A80036" points="89.5,249.9764,93.5,240.9764,89.5,244.9764,85.5,240.9764,89.5,249.9764" style="stroke: #A80036; stroke-width: 1.0;"/><!--
@startuml adapter-pattern

interface PhysicalDamage {
  + computePhysicalDamage()
}

interface MagicalDamage {
  + computeMagicDamage()
}

interface DamageComputor {
  + compute()
}

class SkillDamageComputor {
  + compute()
}

class TargetDamageComputor

class WeaponDamageComputor

DamageComputor <|.left. SkillDamageComputor
DamageComputor <|-up- TargetDamageComputor
DamageComputor <|- - WeaponDamageComputor

SkillDamageComputor -up-> PhysicalDamage
MagicalDamage <-down- SkillDamageComputor

@enduml

PlantUML version 1.2018.12(Sun Oct 21 18:15:15 CST 2018)
(GPL source distribution)
Java Runtime: Java(TM) SE Runtime Environment
JVM: Java HotSpot(TM) 64-Bit Server VM
Java Version: 1.8.0_171-b11
Operating System: Mac OS X
OS Version: 10.14.3
Default Encoding: UTF-8
Language: zh
Country: CN
--></g></svg>