<?xml version="1.0" encoding="UTF-8" standalone="no"?><svg xmlns="http://www.w3.org/2000/svg" xmlns:xlink="http://www.w3.org/1999/xlink" contentScriptType="application/ecmascript" contentStyleType="text/css" height="309px" preserveAspectRatio="none" style="width:393px;height:309px;" version="1.1" viewBox="0 0 393 309" width="393px" zoomAndPan="magnify"><defs><filter height="300%" id="fh21xvpjxvuuo" width="300%" x="-1" y="-1"><feGaussianBlur result="blurOut" stdDeviation="2.0"/><feColorMatrix in="blurOut" result="blurOut2" type="matrix" values="0 0 0 0 0 0 0 0 0 0 0 0 0 0 0 0 0 0 .4 0"/><feOffset dx="4.0" dy="4.0" in="blurOut2" result="blurOut3"/><feBlend in="SourceGraphic" in2="blurOut3" mode="normal"/></filter></defs><g><!--class Mementor--><rect fill="#FEFECE" filter="url(#fh21xvpjxvuuo)" height="73.9102" id="Mementor" style="stroke: #A80036; stroke-width: 1.5;" width="168" x="6" y="8"/><ellipse cx="56.75" cy="24" fill="#B4A7E5" rx="11" ry="11" style="stroke: #A80036; stroke-width: 1.0;"/><path d="M53.1777,20.2651 L53.1777,18.1069 L60.5571,18.1069 L60.5571,20.2651 L58.0918,20.2651 L58.0918,28.3418 L60.5571,28.3418 L60.5571,30.5 L53.1777,30.5 L53.1777,28.3418 L55.6431,28.3418 L55.6431,20.2651 Z "/><text fill="#000000" font-family="sans-serif" font-size="12" font-style="italic" lengthAdjust="spacingAndGlyphs" textLength="58" x="77.25" y="28.5352">Mementor</text><line style="stroke: #A80036; stroke-width: 1.5;" x1="7" x2="173" y1="40" y2="40"/><line style="stroke: #A80036; stroke-width: 1.5;" x1="7" x2="173" y1="48" y2="48"/><ellipse cx="17" cy="59.9775" fill="#84BE84" rx="3" ry="3" style="stroke: #038048; stroke-width: 1.0;"/><text fill="#000000" font-family="sans-serif" font-size="11" lengthAdjust="spacingAndGlyphs" textLength="142" x="26" y="62.6348">createMemento():Memento</text><ellipse cx="17" cy="72.9326" fill="#84BE84" rx="3" ry="3" style="stroke: #038048; stroke-width: 1.0;"/><text fill="#000000" font-family="sans-serif" font-size="11" lengthAdjust="spacingAndGlyphs" textLength="122" x="26" y="75.5898">restoreMemento():void</text><!--class Target--><rect fill="#FEFECE" filter="url(#fh21xvpjxvuuo)" height="48" id="Target" style="stroke: #A80036; stroke-width: 1.5;" width="70" x="101" y="142"/><ellipse cx="116" cy="158" fill="#A9DCDF" rx="11" ry="11" style="stroke: #A80036; stroke-width: 1.0;"/><path d="M116.1133,153.5981 L114.9595,158.6699 L117.2754,158.6699 Z M114.6191,151.3569 L117.6157,151.3569 L120.9609,163.75 L118.5122,163.75 L117.7485,160.687 L114.4697,160.687 L113.7227,163.75 L111.2739,163.75 Z "/><text fill="#000000" font-family="sans-serif" font-size="12" font-style="italic" lengthAdjust="spacingAndGlyphs" textLength="38" x="130" y="162.5352">Target</text><line style="stroke: #A80036; stroke-width: 1.5;" x1="102" x2="170" y1="174" y2="174"/><line style="stroke: #A80036; stroke-width: 1.5;" x1="102" x2="170" y1="182" y2="182"/><!--class Memento--><rect fill="#FEFECE" filter="url(#fh21xvpjxvuuo)" height="48" id="Memento" style="stroke: #A80036; stroke-width: 1.5;" width="85" x="229.5" y="142"/><ellipse cx="244.5" cy="158" fill="#B4A7E5" rx="11" ry="11" style="stroke: #A80036; stroke-width: 1.0;"/><path d="M240.9277,154.2651 L240.9277,152.1069 L248.3071,152.1069 L248.3071,154.2651 L245.8418,154.2651 L245.8418,162.3418 L248.3071,162.3418 L248.3071,164.5 L240.9277,164.5 L240.9277,162.3418 L243.3931,162.3418 L243.3931,154.2651 Z "/><text fill="#000000" font-family="sans-serif" font-size="12" font-style="italic" lengthAdjust="spacingAndGlyphs" textLength="53" x="258.5" y="162.5352">Memento</text><line style="stroke: #A80036; stroke-width: 1.5;" x1="230.5" x2="313.5" y1="174" y2="174"/><line style="stroke: #A80036; stroke-width: 1.5;" x1="230.5" x2="313.5" y1="182" y2="182"/><!--class TargetMemento--><rect fill="#FEFECE" filter="url(#fh21xvpjxvuuo)" height="48" id="TargetMemento" style="stroke: #A80036; stroke-width: 1.5;" width="123" x="210.5" y="250"/><ellipse cx="225.5" cy="266" fill="#ADD1B2" rx="11" ry="11" style="stroke: #A80036; stroke-width: 1.0;"/><path d="M227.9731,272.1431 Q227.3921,272.4419 226.7529,272.5913 Q226.1138,272.7407 225.4082,272.7407 Q222.9014,272.7407 221.5815,271.0889 Q220.2617,269.437 220.2617,266.3159 Q220.2617,263.1865 221.5815,261.5347 Q222.9014,259.8828 225.4082,259.8828 Q226.1138,259.8828 226.7612,260.0322 Q227.4087,260.1816 227.9731,260.4805 L227.9731,263.2031 Q227.3423,262.6221 226.7488,262.3523 Q226.1553,262.0825 225.5244,262.0825 Q224.1797,262.0825 223.4949,263.1492 Q222.8101,264.2158 222.8101,266.3159 Q222.8101,268.4077 223.4949,269.4744 Q224.1797,270.541 225.5244,270.541 Q226.1553,270.541 226.7488,270.2712 Q227.3423,270.0015 227.9731,269.4204 Z "/><text fill="#000000" font-family="sans-serif" font-size="12" lengthAdjust="spacingAndGlyphs" textLength="91" x="239.5" y="270.5352">TargetMemento</text><line style="stroke: #A80036; stroke-width: 1.5;" x1="211.5" x2="332.5" y1="282" y2="282"/><line style="stroke: #A80036; stroke-width: 1.5;" x1="211.5" x2="332.5" y1="290" y2="290"/><!--class TargetMementoManager--><rect fill="#FEFECE" filter="url(#fh21xvpjxvuuo)" height="48" id="TargetMementoManager" style="stroke: #A80036; stroke-width: 1.5;" width="173" x="209.5" y="21"/><ellipse cx="224.5" cy="37" fill="#ADD1B2" rx="11" ry="11" style="stroke: #A80036; stroke-width: 1.0;"/><path d="M226.9731,43.1431 Q226.3921,43.4419 225.7529,43.5913 Q225.1138,43.7407 224.4082,43.7407 Q221.9014,43.7407 220.5815,42.0889 Q219.2617,40.437 219.2617,37.3159 Q219.2617,34.1865 220.5815,32.5347 Q221.9014,30.8828 224.4082,30.8828 Q225.1138,30.8828 225.7612,31.0322 Q226.4087,31.1816 226.9731,31.4805 L226.9731,34.2031 Q226.3423,33.6221 225.7488,33.3523 Q225.1553,33.0825 224.5244,33.0825 Q223.1797,33.0825 222.4949,34.1492 Q221.8101,35.2158 221.8101,37.3159 Q221.8101,39.4077 222.4949,40.4744 Q223.1797,41.541 224.5244,41.541 Q225.1553,41.541 225.7488,41.2712 Q226.3423,41.0015 226.9731,40.4204 Z "/><text fill="#000000" font-family="sans-serif" font-size="12" lengthAdjust="spacingAndGlyphs" textLength="141" x="238.5" y="41.5352">TargetMementoManager</text><line style="stroke: #A80036; stroke-width: 1.5;" x1="210.5" x2="381.5" y1="53" y2="53"/><line style="stroke: #A80036; stroke-width: 1.5;" x1="210.5" x2="381.5" y1="61" y2="61"/><!--link Mementor to Target--><path d="M111.4109,101.32 C116.8547,115.6394 122.4177,130.2726 126.8724,141.9903 " fill="none" id="Mementor-Target" style="stroke: #A80036; stroke-width: 1.0; stroke-dasharray: 7.0,7.0;"/><polygon fill="none" points="104.7409,103.4735,104.1769,82.2913,117.8271,98.4985,104.7409,103.4735" style="stroke: #A80036; stroke-width: 1.0;"/><!--link Memento to TargetMemento--><path d="M272,210.2911 C272,223.8171 272,238.1835 272,249.8436 " fill="none" id="Memento-TargetMemento" style="stroke: #A80036; stroke-width: 1.0;"/><polygon fill="none" points="265.0001,210.2373,272,190.2373,279.0001,210.2373,265.0001,210.2373" style="stroke: #A80036; stroke-width: 1.0;"/><!--link TargetMementoManager to Memento--><path d="M288.6195,82.2102 C284.7706,101.615 280.1734,124.7922 276.7908,141.8466 " fill="none" id="TargetMementoManager-Memento" style="stroke: #A80036; stroke-width: 1.0;"/><polygon fill="#FFFFFF" points="291.2009,69.1953,286.11,74.3024,288.8662,80.966,293.9571,75.8589,291.2009,69.1953" style="stroke: #A80036; stroke-width: 1.0;"/><text fill="#000000" font-family="sans-serif" font-size="13" lengthAdjust="spacingAndGlyphs" textLength="8" x="281.0561" y="89.5272">1</text><text fill="#000000" font-family="sans-serif" font-size="13" lengthAdjust="spacingAndGlyphs" textLength="8" x="268.9934" y="131.3436">1</text><!--link Target to Memento--><path d="M171.0625,166 C188.8424,166 206.6223,166 224.4022,166 " fill="none" id="Target-Memento" style="stroke: #A80036; stroke-width: 1.0; stroke-dasharray: 7.0,7.0;"/><polygon fill="#A80036" points="229.417,166,220.417,162,224.417,166,220.417,170,229.417,166" style="stroke: #A80036; stroke-width: 1.0;"/><!--
@startuml memento-pattern

interface Mementor {
  + createMemento():Memento
  + restoreMemento():void
}

abstract class Target

Mementor <|.. Target

interface Memento {

}


class TargetMemento

Memento <|- - TargetMemento

class TargetMementoManager

TargetMementoManager "1" o- - "1" Memento

Target .> Memento

@enduml

PlantUML version 1.2018.12(Sun Oct 21 18:15:15 CST 2018)
(GPL source distribution)
Java Runtime: Java(TM) SE Runtime Environment
JVM: Java HotSpot(TM) 64-Bit Server VM
Java Version: 1.8.0_171-b11
Operating System: Mac OS X
OS Version: 10.14.3
Default Encoding: UTF-8
Language: zh
Country: CN
--></g></svg>