<?xml version="1.0" encoding="UTF-8" standalone="no"?><svg xmlns="http://www.w3.org/2000/svg" xmlns:xlink="http://www.w3.org/1999/xlink" contentScriptType="application/ecmascript" contentStyleType="text/css" height="441px" preserveAspectRatio="none" style="width:723px;height:441px;" version="1.1" viewBox="0 0 723 441" width="723px" zoomAndPan="magnify"><defs><filter height="300%" id="f188akt5dcy0v7" width="300%" x="-1" y="-1"><feGaussianBlur result="blurOut" stdDeviation="2.0"/><feColorMatrix in="blurOut" result="blurOut2" type="matrix" values="0 0 0 0 0 0 0 0 0 0 0 0 0 0 0 0 0 0 .4 0"/><feOffset dx="4.0" dy="4.0" in="blurOut2" result="blurOut3"/><feBlend in="SourceGraphic" in2="blurOut3" mode="normal"/></filter></defs><g><!--class ModelToTableModelUtil--><rect fill="#FEFECE" filter="url(#f188akt5dcy0v7)" height="125.7305" id="ModelToTableModelUtil" style="stroke: #A80036; stroke-width: 1.5;" width="212" x="253" y="142"/><ellipse cx="287.8" cy="158" fill="#A9DCDF" rx="11" ry="11" style="stroke: #A80036; stroke-width: 1.0;"/><path d="M287.9133,153.5981 L286.7595,158.6699 L289.0754,158.6699 Z M286.4191,151.3569 L289.4157,151.3569 L292.7609,163.75 L290.3122,163.75 L289.5485,160.687 L286.2697,160.687 L285.5227,163.75 L283.0739,163.75 Z "/><text fill="#000000" font-family="sans-serif" font-size="12" font-style="italic" lengthAdjust="spacingAndGlyphs" textLength="136" x="306.2" y="162.5352">ModelToTableModelUtil</text><line style="stroke: #A80036; stroke-width: 1.5;" x1="254" x2="464" y1="174" y2="174"/><rect fill="none" height="6" style="stroke: #C82930; stroke-width: 1.0;" width="6" x="261" y="182.9775"/><text fill="#000000" font-family="sans-serif" font-size="11" lengthAdjust="spacingAndGlyphs" textLength="83" x="273" y="188.6348">forModel:String</text><line style="stroke: #A80036; stroke-width: 1.5;" x1="254" x2="464" y1="194.9551" y2="194.9551"/><rect fill="#F24D5C" height="6" style="stroke: #C82930; stroke-width: 1.0;" width="6" x="261" y="203.9326"/><text fill="#000000" font-family="sans-serif" font-size="11" lengthAdjust="spacingAndGlyphs" textLength="178" x="273" y="209.5898">getAttr2HeaderJson():JSONObject</text><rect fill="#F24D5C" height="6" style="stroke: #C82930; stroke-width: 1.0;" width="6" x="261" y="216.8877"/><text fill="#000000" font-family="sans-serif" font-size="11" lengthAdjust="spacingAndGlyphs" textLength="184" x="273" y="222.5449">getHeader2IndexJson():JSONObect</text><polygon fill="#FFFF44" points="264,227.8428,268,231.8428,264,235.8428,260,231.8428" style="stroke: #B38D22; stroke-width: 1.0;"/><text fill="#000000" font-family="sans-serif" font-size="11" font-style="italic" lengthAdjust="spacingAndGlyphs" textLength="177" x="273" y="235.5">getAttr2HeaderFile():InputStream</text><polygon fill="#FFFF44" points="264,240.7979,268,244.7979,264,248.7979,260,244.7979" style="stroke: #B38D22; stroke-width: 1.0;"/><text fill="#000000" font-family="sans-serif" font-size="11" font-style="italic" lengthAdjust="spacingAndGlyphs" textLength="186" x="273" y="248.4551">getHeader2IndexFile():InputStream</text><ellipse cx="264" cy="258.7529" fill="#84BE84" rx="3" ry="3" style="stroke: #038048; stroke-width: 1.0;"/><text fill="#000000" font-family="sans-serif" font-size="11" lengthAdjust="spacingAndGlyphs" textLength="186" x="273" y="261.4102">transferToModel(Object):Object[][]</text><path d="M256,328 L256,429.8633 A0,0 0 0 0 256,429.8633 L462,429.8633 A0,0 0 0 0 462,429.8633 L462,338 L452,328 L363,328 L359,268.3102 L355,328 L256,328 A0,0 0 0 0 256,328 " fill="#FBFB77" filter="url(#f188akt5dcy0v7)" style="stroke: #A80036; stroke-width: 1.0;"/><path d="M452,328 L452,338 L462,338 L452,328 " fill="#FBFB77" style="stroke: #A80036; stroke-width: 1.0;"/><text fill="#000000" font-family="sans-serif" font-size="13" lengthAdjust="spacingAndGlyphs" textLength="39" x="262" y="345.5684">步骤：</text><text fill="#000000" font-family="sans-serif" font-size="13" lengthAdjust="spacingAndGlyphs" textLength="142" x="262" y="360.8789">1. getAttr2HeaderFile()</text><text fill="#000000" font-family="sans-serif" font-size="13" lengthAdjust="spacingAndGlyphs" textLength="147" x="262" y="376.1895">2. getAttr2HeaderJson()</text><text fill="#000000" font-family="sans-serif" font-size="13" lengthAdjust="spacingAndGlyphs" textLength="153" x="262" y="391.5">3. getHeader2IndexFile()</text><text fill="#000000" font-family="sans-serif" font-size="13" lengthAdjust="spacingAndGlyphs" textLength="158" x="262" y="406.8105">4. getHeader2IndexJson()</text><text fill="#000000" font-family="sans-serif" font-size="13" lengthAdjust="spacingAndGlyphs" textLength="185" x="262" y="422.1211">5. 映射并按索引排列，获得结果</text><!--class CommanderTableModelUtil--><rect fill="#FEFECE" filter="url(#f188akt5dcy0v7)" height="73.9102" id="CommanderTableModelUtil" style="stroke: #A80036; stroke-width: 1.5;" width="212" x="253" y="8"/><ellipse cx="278.35" cy="24" fill="#ADD1B2" rx="11" ry="11" style="stroke: #A80036; stroke-width: 1.0;"/><path d="M280.8231,30.1431 Q280.2421,30.4419 279.6029,30.5913 Q278.9638,30.7407 278.2582,30.7407 Q275.7514,30.7407 274.4315,29.0889 Q273.1117,27.437 273.1117,24.3159 Q273.1117,21.1865 274.4315,19.5347 Q275.7514,17.8828 278.2582,17.8828 Q278.9638,17.8828 279.6112,18.0322 Q280.2587,18.1816 280.8231,18.4805 L280.8231,21.2031 Q280.1923,20.6221 279.5988,20.3523 Q279.0053,20.0825 278.3744,20.0825 Q277.0297,20.0825 276.3449,21.1492 Q275.6601,22.2158 275.6601,24.3159 Q275.6601,26.4077 276.3449,27.4744 Q277.0297,28.541 278.3744,28.541 Q279.0053,28.541 279.5988,28.2712 Q280.1923,28.0015 280.8231,27.4204 Z "/><text fill="#000000" font-family="sans-serif" font-size="12" lengthAdjust="spacingAndGlyphs" textLength="157" x="294.65" y="28.5352">CommanderTableModelUtil</text><line style="stroke: #A80036; stroke-width: 1.5;" x1="254" x2="464" y1="40" y2="40"/><line style="stroke: #A80036; stroke-width: 1.5;" x1="254" x2="464" y1="48" y2="48"/><polygon fill="#FFFF44" points="264,54.9775,268,58.9775,264,62.9775,260,58.9775" style="stroke: #B38D22; stroke-width: 1.0;"/><text fill="#000000" font-family="sans-serif" font-size="11" lengthAdjust="spacingAndGlyphs" textLength="177" x="273" y="62.6348">getAttr2HeaderFile():InputStream</text><polygon fill="#FFFF44" points="264,67.9326,268,71.9326,264,75.9326,260,71.9326" style="stroke: #B38D22; stroke-width: 1.0;"/><text fill="#000000" font-family="sans-serif" font-size="11" lengthAdjust="spacingAndGlyphs" textLength="186" x="273" y="75.5898">getHeader2IndexFile():InputStream</text><!--class EquipmentTableModelUtil--><rect fill="#FEFECE" filter="url(#f188akt5dcy0v7)" height="73.9102" id="EquipmentTableModelUtil" style="stroke: #A80036; stroke-width: 1.5;" width="212" x="6" y="168"/><ellipse cx="35.4" cy="184" fill="#ADD1B2" rx="11" ry="11" style="stroke: #A80036; stroke-width: 1.0;"/><path d="M37.8731,190.1431 Q37.2921,190.4419 36.6529,190.5913 Q36.0138,190.7407 35.3082,190.7407 Q32.8014,190.7407 31.4815,189.0889 Q30.1617,187.437 30.1617,184.3159 Q30.1617,181.1865 31.4815,179.5347 Q32.8014,177.8828 35.3082,177.8828 Q36.0138,177.8828 36.6612,178.0322 Q37.3087,178.1816 37.8731,178.4805 L37.8731,181.2031 Q37.2423,180.6221 36.6488,180.3523 Q36.0553,180.0825 35.4244,180.0825 Q34.0797,180.0825 33.3949,181.1492 Q32.7101,182.2158 32.7101,184.3159 Q32.7101,186.4077 33.3949,187.4744 Q34.0797,188.541 35.4244,188.541 Q36.0553,188.541 36.6488,188.2712 Q37.2423,188.0015 37.8731,187.4204 Z "/><text fill="#000000" font-family="sans-serif" font-size="12" lengthAdjust="spacingAndGlyphs" textLength="148" x="52.6" y="188.5352">EquipmentTableModelUtil</text><line style="stroke: #A80036; stroke-width: 1.5;" x1="7" x2="217" y1="200" y2="200"/><line style="stroke: #A80036; stroke-width: 1.5;" x1="7" x2="217" y1="208" y2="208"/><polygon fill="#FFFF44" points="17,214.9775,21,218.9775,17,222.9775,13,218.9775" style="stroke: #B38D22; stroke-width: 1.0;"/><text fill="#000000" font-family="sans-serif" font-size="11" lengthAdjust="spacingAndGlyphs" textLength="177" x="26" y="222.6348">getAttr2HeaderFile():InputStream</text><polygon fill="#FFFF44" points="17,227.9326,21,231.9326,17,235.9326,13,231.9326" style="stroke: #B38D22; stroke-width: 1.0;"/><text fill="#000000" font-family="sans-serif" font-size="11" lengthAdjust="spacingAndGlyphs" textLength="186" x="26" y="235.5898">getHeader2IndexFile():InputStream</text><!--class SkillTableModelUtil--><rect fill="#FEFECE" filter="url(#f188akt5dcy0v7)" height="73.9102" id="SkillTableModelUtil" style="stroke: #A80036; stroke-width: 1.5;" width="212" x="500" y="168"/><ellipse cx="547.75" cy="184" fill="#ADD1B2" rx="11" ry="11" style="stroke: #A80036; stroke-width: 1.0;"/><path d="M550.2231,190.1431 Q549.6421,190.4419 549.0029,190.5913 Q548.3638,190.7407 547.6582,190.7407 Q545.1514,190.7407 543.8315,189.0889 Q542.5117,187.437 542.5117,184.3159 Q542.5117,181.1865 543.8315,179.5347 Q545.1514,177.8828 547.6582,177.8828 Q548.3638,177.8828 549.0112,178.0322 Q549.6587,178.1816 550.2231,178.4805 L550.2231,181.2031 Q549.5923,180.6221 548.9988,180.3523 Q548.4053,180.0825 547.7744,180.0825 Q546.4297,180.0825 545.7449,181.1492 Q545.0601,182.2158 545.0601,184.3159 Q545.0601,186.4077 545.7449,187.4744 Q546.4297,188.541 547.7744,188.541 Q548.4053,188.541 548.9988,188.2712 Q549.5923,188.0015 550.2231,187.4204 Z "/><text fill="#000000" font-family="sans-serif" font-size="12" lengthAdjust="spacingAndGlyphs" textLength="108" x="568.25" y="188.5352">SkillTableModelUtil</text><line style="stroke: #A80036; stroke-width: 1.5;" x1="501" x2="711" y1="200" y2="200"/><line style="stroke: #A80036; stroke-width: 1.5;" x1="501" x2="711" y1="208" y2="208"/><polygon fill="#FFFF44" points="511,214.9775,515,218.9775,511,222.9775,507,218.9775" style="stroke: #B38D22; stroke-width: 1.0;"/><text fill="#000000" font-family="sans-serif" font-size="11" lengthAdjust="spacingAndGlyphs" textLength="177" x="520" y="222.6348">getAttr2HeaderFile():InputStream</text><polygon fill="#FFFF44" points="511,227.9326,515,231.9326,511,235.9326,507,231.9326" style="stroke: #B38D22; stroke-width: 1.0;"/><text fill="#000000" font-family="sans-serif" font-size="11" lengthAdjust="spacingAndGlyphs" textLength="186" x="520" y="235.5898">getHeader2IndexFile():InputStream</text><!--link CommanderTableModelUtil to ModelToTableModelUtil--><path d="M359,82.1094 C359,94.0181 359,107.7271 359,121.5732 " fill="none" id="CommanderTableModelUtil-ModelToTableModelUtil" style="stroke: #A80036; stroke-width: 1.0;"/><polygon fill="none" points="366.0001,121.7638,359,141.7638,352.0001,121.7637,366.0001,121.7638" style="stroke: #A80036; stroke-width: 1.0;"/><!--link EquipmentTableModelUtil to ModelToTableModelUtil--><path d="M218.1328,205 C223.0078,205 227.8828,205 232.7578,205 " fill="none" id="EquipmentTableModelUtil-ModelToTableModelUtil" style="stroke: #A80036; stroke-width: 1.0;"/><polygon fill="none" points="232.7994,197.9999,252.7993,205,232.7993,211.9999,232.7994,197.9999" style="stroke: #A80036; stroke-width: 1.0;"/><!--link ModelToTableModelUtil to SkillTableModelUtil--><path d="M485.1744,205 C490.0494,205 494.9244,205 499.7993,205 " fill="none" id="ModelToTableModelUtil-SkillTableModelUtil" style="stroke: #A80036; stroke-width: 1.0;"/><polygon fill="none" points="485.1328,211.9999,465.1328,205,485.1328,197.9999,485.1328,211.9999" style="stroke: #A80036; stroke-width: 1.0;"/><!--
@startuml template-method-pattern

abstract class ModelToTableModelUtil{
  - forModel:String
  - getAttr2HeaderJson():JSONObject
  - getHeader2IndexJson():JSONObect
  {abstract} # getAttr2HeaderFile():InputStream
  {abstract} # getHeader2IndexFile():InputStream
  + transferToModel(Object):Object[][]
}

note bottom of ModelToTableModelUtil: 步骤：\n1. getAttr2HeaderFile()\n2. getAttr2HeaderJson()\n3. getHeader2IndexFile()\n4. getHeader2IndexJson()\n5. 映射并按索引排列，获得结果

class CommanderTableModelUtil {
  # getAttr2HeaderFile():InputStream
  # getHeader2IndexFile():InputStream
}

class EquipmentTableModelUtil  {
  # getAttr2HeaderFile():InputStream
  # getHeader2IndexFile():InputStream
}

class SkillTableModelUtil {
  # getAttr2HeaderFile():InputStream
  # getHeader2IndexFile():InputStream
}

CommanderTableModelUtil - -|> ModelToTableModelUtil
EquipmentTableModelUtil -|> ModelToTableModelUtil
ModelToTableModelUtil <|- SkillTableModelUtil

@enduml

PlantUML version 1.2018.12(Sun Oct 21 18:15:15 CST 2018)
(GPL source distribution)
Java Runtime: Java(TM) SE Runtime Environment
JVM: Java HotSpot(TM) 64-Bit Server VM
Java Version: 1.8.0_171-b11
Operating System: Mac OS X
OS Version: 10.14.3
Default Encoding: UTF-8
Language: zh
Country: CN
--></g></svg>