<?xml version="1.0" encoding="UTF-8" standalone="no"?><svg xmlns="http://www.w3.org/2000/svg" xmlns:xlink="http://www.w3.org/1999/xlink" contentScriptType="application/ecmascript" contentStyleType="text/css" height="249px" preserveAspectRatio="none" style="width:536px;height:249px;" version="1.1" viewBox="0 0 536 249" width="536px" zoomAndPan="magnify"><defs><filter height="300%" id="fdk9mob358iku" width="300%" x="-1" y="-1"><feGaussianBlur result="blurOut" stdDeviation="2.0"/><feColorMatrix in="blurOut" result="blurOut2" type="matrix" values="0 0 0 0 0 0 0 0 0 0 0 0 0 0 0 0 0 0 .4 0"/><feOffset dx="4.0" dy="4.0" in="blurOut2" result="blurOut3"/><feBlend in="SourceGraphic" in2="blurOut3" mode="normal"/></filter></defs><g><!--cluster java.util--><polygon fill="#FFFFFF" filter="url(#fdk9mob358iku)" points="14,16,77,16,84,38.4883,394,38.4883,394,138,14,138,14,16" style="stroke: #000000; stroke-width: 1.5;"/><line style="stroke: #000000; stroke-width: 1.5;" x1="14" x2="84" y1="38.4883" y2="38.4883"/><text fill="#000000" font-family="sans-serif" font-size="14" font-weight="bold" lengthAdjust="spacingAndGlyphs" textLength="57" x="18" y="31.5352">java.util</text><!--class java.util.Observer--><rect fill="#FEFECE" filter="url(#fdk9mob358iku)" height="60.9551" id="java.util.Observer" style="stroke: #A80036; stroke-width: 1.5;" width="85" x="300.5" y="56"/><ellipse cx="315.5" cy="72" fill="#B4A7E5" rx="11" ry="11" style="stroke: #A80036; stroke-width: 1.0;"/><path d="M311.9277,68.2651 L311.9277,66.1069 L319.3071,66.1069 L319.3071,68.2651 L316.8418,68.2651 L316.8418,76.3418 L319.3071,76.3418 L319.3071,78.5 L311.9277,78.5 L311.9277,76.3418 L314.3931,76.3418 L314.3931,68.2651 Z "/><text fill="#000000" font-family="sans-serif" font-size="12" font-style="italic" lengthAdjust="spacingAndGlyphs" textLength="53" x="329.5" y="76.5352">Observer</text><line style="stroke: #A80036; stroke-width: 1.5;" x1="301.5" x2="384.5" y1="88" y2="88"/><line style="stroke: #A80036; stroke-width: 1.5;" x1="301.5" x2="384.5" y1="96" y2="96"/><ellipse cx="311.5" cy="107.9775" fill="#84BE84" rx="3" ry="3" style="stroke: #038048; stroke-width: 1.0;"/><text fill="#000000" font-family="sans-serif" font-size="11" lengthAdjust="spacingAndGlyphs" textLength="45" x="320.5" y="110.6348">update()</text><!--class java.util.Observable--><rect fill="#FEFECE" filter="url(#fdk9mob358iku)" height="86.8652" id="java.util.Observable" style="stroke: #A80036; stroke-width: 1.5;" width="243" x="22.5" y="43"/><ellipse cx="106.75" cy="59" fill="#ADD1B2" rx="11" ry="11" style="stroke: #A80036; stroke-width: 1.0;"/><path d="M109.2231,65.1431 Q108.6421,65.4419 108.0029,65.5913 Q107.3638,65.7407 106.6582,65.7407 Q104.1514,65.7407 102.8315,64.0889 Q101.5117,62.437 101.5117,59.3159 Q101.5117,56.1865 102.8315,54.5347 Q104.1514,52.8828 106.6582,52.8828 Q107.3638,52.8828 108.0112,53.0322 Q108.6587,53.1816 109.2231,53.4805 L109.2231,56.2031 Q108.5923,55.6221 107.9988,55.3523 Q107.4053,55.0825 106.7744,55.0825 Q105.4297,55.0825 104.7449,56.1492 Q104.0601,57.2158 104.0601,59.3159 Q104.0601,61.4077 104.7449,62.4744 Q105.4297,63.541 106.7744,63.541 Q107.4053,63.541 107.9988,63.2712 Q108.5923,63.0015 109.2231,62.4204 Z "/><text fill="#000000" font-family="sans-serif" font-size="12" lengthAdjust="spacingAndGlyphs" textLength="66" x="127.25" y="63.5352">Observable</text><line style="stroke: #A80036; stroke-width: 1.5;" x1="23.5" x2="264.5" y1="75" y2="75"/><rect fill="none" height="6" style="stroke: #C82930; stroke-width: 1.0;" width="6" x="30.5" y="83.9775"/><text fill="#000000" font-family="sans-serif" font-size="11" lengthAdjust="spacingAndGlyphs" textLength="217" x="42.5" y="89.6348">observers:List&lt;? implements Observer&gt;</text><line style="stroke: #A80036; stroke-width: 1.5;" x1="23.5" x2="264.5" y1="95.9551" y2="95.9551"/><ellipse cx="33.5" cy="107.9326" fill="#84BE84" rx="3" ry="3" style="stroke: #038048; stroke-width: 1.0;"/><text fill="#000000" font-family="sans-serif" font-size="11" lengthAdjust="spacingAndGlyphs" textLength="138" x="42.5" y="110.5898">addObserver(o:Observer)</text><ellipse cx="33.5" cy="120.8877" fill="#84BE84" rx="3" ry="3" style="stroke: #038048; stroke-width: 1.0;"/><text fill="#000000" font-family="sans-serif" font-size="11" lengthAdjust="spacingAndGlyphs" textLength="95" x="42.5" y="123.5449">nofityObservers()</text><!--class Target--><rect fill="#FEFECE" filter="url(#fdk9mob358iku)" height="48" id="Target" style="stroke: #A80036; stroke-width: 1.5;" width="70" x="109" y="190"/><ellipse cx="124" cy="206" fill="#ADD1B2" rx="11" ry="11" style="stroke: #A80036; stroke-width: 1.0;"/><path d="M126.4731,212.1431 Q125.8921,212.4419 125.2529,212.5913 Q124.6138,212.7407 123.9082,212.7407 Q121.4014,212.7407 120.0815,211.0889 Q118.7617,209.437 118.7617,206.3159 Q118.7617,203.1865 120.0815,201.5347 Q121.4014,199.8828 123.9082,199.8828 Q124.6138,199.8828 125.2612,200.0322 Q125.9087,200.1816 126.4731,200.4805 L126.4731,203.2031 Q125.8423,202.6221 125.2488,202.3523 Q124.6553,202.0825 124.0244,202.0825 Q122.6797,202.0825 121.9949,203.1492 Q121.3101,204.2158 121.3101,206.3159 Q121.3101,208.4077 121.9949,209.4744 Q122.6797,210.541 124.0244,210.541 Q124.6553,210.541 125.2488,210.2712 Q125.8423,210.0015 126.4731,209.4204 Z "/><text fill="#000000" font-family="sans-serif" font-size="12" lengthAdjust="spacingAndGlyphs" textLength="38" x="138" y="210.5352">Target</text><line style="stroke: #A80036; stroke-width: 1.5;" x1="110" x2="178" y1="222" y2="222"/><line style="stroke: #A80036; stroke-width: 1.5;" x1="110" x2="178" y1="230" y2="230"/><!--class GameClientWindow--><rect fill="#FEFECE" filter="url(#fdk9mob358iku)" height="48" id="GameClientWindow" style="stroke: #A80036; stroke-width: 1.5;" width="142" x="383" y="190"/><ellipse cx="398" cy="206" fill="#ADD1B2" rx="11" ry="11" style="stroke: #A80036; stroke-width: 1.0;"/><path d="M400.4731,212.1431 Q399.8921,212.4419 399.2529,212.5913 Q398.6138,212.7407 397.9082,212.7407 Q395.4014,212.7407 394.0815,211.0889 Q392.7617,209.437 392.7617,206.3159 Q392.7617,203.1865 394.0815,201.5347 Q395.4014,199.8828 397.9082,199.8828 Q398.6138,199.8828 399.2612,200.0322 Q399.9087,200.1816 400.4731,200.4805 L400.4731,203.2031 Q399.8423,202.6221 399.2488,202.3523 Q398.6553,202.0825 398.0244,202.0825 Q396.6797,202.0825 395.9949,203.1492 Q395.3101,204.2158 395.3101,206.3159 Q395.3101,208.4077 395.9949,209.4744 Q396.6797,210.541 398.0244,210.541 Q398.6553,210.541 399.2488,210.2712 Q399.8423,210.0015 400.4731,209.4204 Z "/><text fill="#000000" font-family="sans-serif" font-size="12" lengthAdjust="spacingAndGlyphs" textLength="110" x="412" y="210.5352">GameClientWindow</text><line style="stroke: #A80036; stroke-width: 1.5;" x1="384" x2="524" y1="222" y2="222"/><line style="stroke: #A80036; stroke-width: 1.5;" x1="384" x2="524" y1="230" y2="230"/><!--class FightStageWindow--><rect fill="#FEFECE" filter="url(#fdk9mob358iku)" height="48" id="FightStageWindow" style="stroke: #A80036; stroke-width: 1.5;" width="134" x="214" y="190"/><ellipse cx="229" cy="206" fill="#ADD1B2" rx="11" ry="11" style="stroke: #A80036; stroke-width: 1.0;"/><path d="M231.4731,212.1431 Q230.8921,212.4419 230.2529,212.5913 Q229.6138,212.7407 228.9082,212.7407 Q226.4014,212.7407 225.0815,211.0889 Q223.7617,209.437 223.7617,206.3159 Q223.7617,203.1865 225.0815,201.5347 Q226.4014,199.8828 228.9082,199.8828 Q229.6138,199.8828 230.2612,200.0322 Q230.9087,200.1816 231.4731,200.4805 L231.4731,203.2031 Q230.8423,202.6221 230.2488,202.3523 Q229.6553,202.0825 229.0244,202.0825 Q227.6797,202.0825 226.9949,203.1492 Q226.3101,204.2158 226.3101,206.3159 Q226.3101,208.4077 226.9949,209.4744 Q227.6797,210.541 229.0244,210.541 Q229.6553,210.541 230.2488,210.2712 Q230.8423,210.0015 231.4731,209.4204 Z "/><text fill="#000000" font-family="sans-serif" font-size="12" lengthAdjust="spacingAndGlyphs" textLength="102" x="243" y="210.5352">FightStageWindow</text><line style="stroke: #A80036; stroke-width: 1.5;" x1="215" x2="347" y1="222" y2="222"/><line style="stroke: #A80036; stroke-width: 1.5;" x1="215" x2="347" y1="230" y2="230"/><!--link java.util.Observable to Target--><path d="M144,150.4025 C144,164.5289 144,178.6454 144,189.9773 " fill="none" id="java.util.Observable-Target" style="stroke: #A80036; stroke-width: 1.0;"/><polygon fill="none" points="137.0001,150.0217,144,130.0217,151.0001,150.0216,137.0001,150.0217" style="stroke: #A80036; stroke-width: 1.0;"/><!--link java.util.Observer to GameClientWindow--><path d="M382.8311,132.2519 C399.7154,151.6461 418.7072,173.461 432.8226,189.6746 " fill="none" id="java.util.Observer-GameClientWindow" style="stroke: #A80036; stroke-width: 1.0; stroke-dasharray: 7.0,7.0;"/><polygon fill="none" points="377.4401,136.7203,369.5873,117.0394,387.9992,127.5276,377.4401,136.7203" style="stroke: #A80036; stroke-width: 1.0;"/><!--link java.util.Observer to FightStageWindow--><path d="M319.3362,135.1636 C310.2723,153.8029 300.3208,174.2677 292.8288,189.6746 " fill="none" id="java.util.Observer-FightStageWindow" style="stroke: #A80036; stroke-width: 1.0; stroke-dasharray: 7.0,7.0;"/><polygon fill="none" points="313.108,131.9644,328.1495,117.0394,325.6983,138.0868,313.108,131.9644" style="stroke: #A80036; stroke-width: 1.0;"/><!--link java.util.Observable to java.util.Observer--><path d="M278.6837,86.5 C285.9223,86.5 293.1609,86.5 300.3994,86.5 " fill="none" id="java.util.Observable-java.util.Observer" style="stroke: #A80036; stroke-width: 1.0;"/><polygon fill="#FFFFFF" points="265.6543,86.5,271.6543,90.5,277.6543,86.5,271.6543,82.5,265.6543,86.5" style="stroke: #A80036; stroke-width: 1.0;"/><!--link Target to GameClientWindow--><path d="M169.2194,189.9772 C181.5534,179.8667 197.2307,169.2442 213.5,164 C270.6066,145.5924 289.9631,150.8308 348.5,164 C369.4642,168.7164 391.1579,178.1013 409.3816,187.4793 " fill="none" id="Target-GameClientWindow" style="stroke: #A80036; stroke-width: 1.0;"/><polygon fill="#A80036" points="413.9375,189.8605,407.8143,182.1465,409.5063,187.5443,404.1084,189.2364,413.9375,189.8605" style="stroke: #A80036; stroke-width: 1.0;"/><!--link Target to FightStageWindow--><path d="M179.0527,214 C188.8872,214 198.7216,214 208.5561,214 " fill="none" id="Target-FightStageWindow" style="stroke: #A80036; stroke-width: 1.0;"/><polygon fill="#A80036" points="213.6989,214,204.6989,210,208.6989,214,204.6989,218,213.6989,214" style="stroke: #A80036; stroke-width: 1.0;"/><!--
@startuml observer-pattern

interface java.util.Observer {
  + update()
}

class java.util.Observable {
  - observers:List<? implements Observer>
  + addObserver(o:Observer)
  + nofityObservers()
}

class Target {

}

java.util.Observable <|-down- Target

class GameClientWindow {

}

class FightStageWindow

java.util.Observer <|.down. GameClientWindow
java.util.Observer <|.down. FightStageWindow

java.util.Observer -right-o java.util.Observable

Target -right-> GameClientWindow
Target -right-> FightStageWindow

@enduml

PlantUML version 1.2018.12(Sun Oct 21 18:15:15 CST 2018)
(GPL source distribution)
Java Runtime: Java(TM) SE Runtime Environment
JVM: Java HotSpot(TM) 64-Bit Server VM
Java Version: 1.8.0_171-b11
Operating System: Mac OS X
OS Version: 10.14.3
Default Encoding: UTF-8
Language: zh
Country: CN
--></g></svg>