<?xml version="1.0" encoding="UTF-8" standalone="no"?><svg xmlns="http://www.w3.org/2000/svg" xmlns:xlink="http://www.w3.org/1999/xlink" contentScriptType="application/ecmascript" contentStyleType="text/css" height="309px" preserveAspectRatio="none" style="width:613px;height:309px;" version="1.1" viewBox="0 0 613 309" width="613px" zoomAndPan="magnify"><defs><filter height="300%" id="ft0ps4edh2h58" width="300%" x="-1" y="-1"><feGaussianBlur result="blurOut" stdDeviation="2.0"/><feColorMatrix in="blurOut" result="blurOut2" type="matrix" values="0 0 0 0 0 0 0 0 0 0 0 0 0 0 0 0 0 0 .4 0"/><feOffset dx="4.0" dy="4.0" in="blurOut2" result="blurOut3"/><feBlend in="SourceGraphic" in2="blurOut3" mode="normal"/></filter></defs><g><!--class LevelManager--><rect fill="#FEFECE" filter="url(#ft0ps4edh2h58)" height="73.9102" id="LevelManager" style="stroke: #A80036; stroke-width: 1.5;" width="149" x="453.5" y="116"/><ellipse cx="485.6" cy="132" fill="#B4A7E5" rx="11" ry="11" style="stroke: #A80036; stroke-width: 1.0;"/><path d="M482.0277,128.2651 L482.0277,126.1069 L489.4071,126.1069 L489.4071,128.2651 L486.9418,128.2651 L486.9418,136.3418 L489.4071,136.3418 L489.4071,138.5 L482.0277,138.5 L482.0277,136.3418 L484.4931,136.3418 L484.4931,128.2651 Z "/><text fill="#000000" font-family="sans-serif" font-size="12" font-style="italic" lengthAdjust="spacingAndGlyphs" textLength="79" x="503.4" y="136.5352">LevelManager</text><line style="stroke: #A80036; stroke-width: 1.5;" x1="454.5" x2="601.5" y1="148" y2="148"/><line style="stroke: #A80036; stroke-width: 1.5;" x1="454.5" x2="601.5" y1="156" y2="156"/><ellipse cx="464.5" cy="167.9775" fill="#84BE84" rx="3" ry="3" style="stroke: #038048; stroke-width: 1.0;"/><text fill="#000000" font-family="sans-serif" font-size="11" lengthAdjust="spacingAndGlyphs" textLength="123" x="473.5" y="170.6348">handleExprience():void</text><ellipse cx="464.5" cy="180.9326" fill="#84BE84" rx="3" ry="3" style="stroke: #038048; stroke-width: 1.0;"/><text fill="#000000" font-family="sans-serif" font-size="11" lengthAdjust="spacingAndGlyphs" textLength="89" x="473.5" y="183.5898">forName():String</text><!--class AbstractExprienceManager--><rect fill="#FEFECE" filter="url(#ft0ps4edh2h58)" height="60.9551" id="AbstractExprienceManager" style="stroke: #A80036; stroke-width: 1.5;" width="187" x="231.5" y="122.5"/><ellipse cx="246.5" cy="138.5" fill="#A9DCDF" rx="11" ry="11" style="stroke: #A80036; stroke-width: 1.0;"/><path d="M246.6133,134.0981 L245.4595,139.1699 L247.7754,139.1699 Z M245.1191,131.8569 L248.1157,131.8569 L251.4609,144.25 L249.0122,144.25 L248.2485,141.187 L244.9697,141.187 L244.2227,144.25 L241.7739,144.25 Z "/><text fill="#000000" font-family="sans-serif" font-size="12" font-style="italic" lengthAdjust="spacingAndGlyphs" textLength="155" x="260.5" y="143.0352">AbstractExprienceManager</text><line style="stroke: #A80036; stroke-width: 1.5;" x1="232.5" x2="417.5" y1="154.5" y2="154.5"/><rect fill="none" height="6" style="stroke: #C82930; stroke-width: 1.0;" width="6" x="239.5" y="163.4775"/><text fill="#000000" font-family="sans-serif" font-size="11" lengthAdjust="spacingAndGlyphs" textLength="100" x="251.5" y="169.1348">next:LevelManager</text><line style="stroke: #A80036; stroke-width: 1.5;" x1="232.5" x2="417.5" y1="175.4551" y2="175.4551"/><!--class PrimaryExperienceManager--><rect fill="#FEFECE" filter="url(#ft0ps4edh2h58)" height="48" id="PrimaryExperienceManager" style="stroke: #A80036; stroke-width: 1.5;" width="190" x="6" y="129"/><ellipse cx="21" cy="145" fill="#ADD1B2" rx="11" ry="11" style="stroke: #A80036; stroke-width: 1.0;"/><path d="M23.4731,151.1431 Q22.8921,151.4419 22.2529,151.5913 Q21.6138,151.7407 20.9082,151.7407 Q18.4014,151.7407 17.0815,150.0889 Q15.7617,148.437 15.7617,145.3159 Q15.7617,142.1865 17.0815,140.5347 Q18.4014,138.8828 20.9082,138.8828 Q21.6138,138.8828 22.2612,139.0322 Q22.9087,139.1816 23.4731,139.4805 L23.4731,142.2031 Q22.8423,141.6221 22.2488,141.3523 Q21.6553,141.0825 21.0244,141.0825 Q19.6797,141.0825 18.9949,142.1492 Q18.3101,143.2158 18.3101,145.3159 Q18.3101,147.4077 18.9949,148.4744 Q19.6797,149.541 21.0244,149.541 Q21.6553,149.541 22.2488,149.2712 Q22.8423,149.0015 23.4731,148.4204 Z "/><text fill="#000000" font-family="sans-serif" font-size="12" lengthAdjust="spacingAndGlyphs" textLength="158" x="35" y="149.5352">PrimaryExperienceManager</text><line style="stroke: #A80036; stroke-width: 1.5;" x1="7" x2="195" y1="161" y2="161"/><line style="stroke: #A80036; stroke-width: 1.5;" x1="7" x2="195" y1="169" y2="169"/><!--class JuniorExperienceManager--><rect fill="#FEFECE" filter="url(#ft0ps4edh2h58)" height="48" id="JuniorExperienceManager" style="stroke: #A80036; stroke-width: 1.5;" width="179" x="235.5" y="8"/><ellipse cx="250.5" cy="24" fill="#ADD1B2" rx="11" ry="11" style="stroke: #A80036; stroke-width: 1.0;"/><path d="M252.9731,30.1431 Q252.3921,30.4419 251.7529,30.5913 Q251.1138,30.7407 250.4082,30.7407 Q247.9014,30.7407 246.5815,29.0889 Q245.2617,27.437 245.2617,24.3159 Q245.2617,21.1865 246.5815,19.5347 Q247.9014,17.8828 250.4082,17.8828 Q251.1138,17.8828 251.7612,18.0322 Q252.4087,18.1816 252.9731,18.4805 L252.9731,21.2031 Q252.3423,20.6221 251.7488,20.3523 Q251.1553,20.0825 250.5244,20.0825 Q249.1797,20.0825 248.4949,21.1492 Q247.8101,22.2158 247.8101,24.3159 Q247.8101,26.4077 248.4949,27.4744 Q249.1797,28.541 250.5244,28.541 Q251.1553,28.541 251.7488,28.2712 Q252.3423,28.0015 252.9731,27.4204 Z "/><text fill="#000000" font-family="sans-serif" font-size="12" lengthAdjust="spacingAndGlyphs" textLength="147" x="264.5" y="28.5352">JuniorExperienceManager</text><line style="stroke: #A80036; stroke-width: 1.5;" x1="236.5" x2="413.5" y1="40" y2="40"/><line style="stroke: #A80036; stroke-width: 1.5;" x1="236.5" x2="413.5" y1="48" y2="48"/><!--class SeniorExperienceManager--><rect fill="#FEFECE" filter="url(#ft0ps4edh2h58)" height="48" id="SeniorExperienceManager" style="stroke: #A80036; stroke-width: 1.5;" width="181" x="234.5" y="250"/><ellipse cx="249.5" cy="266" fill="#ADD1B2" rx="11" ry="11" style="stroke: #A80036; stroke-width: 1.0;"/><path d="M251.9731,272.1431 Q251.3921,272.4419 250.7529,272.5913 Q250.1138,272.7407 249.4082,272.7407 Q246.9014,272.7407 245.5815,271.0889 Q244.2617,269.437 244.2617,266.3159 Q244.2617,263.1865 245.5815,261.5347 Q246.9014,259.8828 249.4082,259.8828 Q250.1138,259.8828 250.7612,260.0322 Q251.4087,260.1816 251.9731,260.4805 L251.9731,263.2031 Q251.3423,262.6221 250.7488,262.3523 Q250.1553,262.0825 249.5244,262.0825 Q248.1797,262.0825 247.4949,263.1492 Q246.8101,264.2158 246.8101,266.3159 Q246.8101,268.4077 247.4949,269.4744 Q248.1797,270.541 249.5244,270.541 Q250.1553,270.541 250.7488,270.2712 Q251.3423,270.0015 251.9731,269.4204 Z "/><text fill="#000000" font-family="sans-serif" font-size="12" lengthAdjust="spacingAndGlyphs" textLength="149" x="263.5" y="270.5352">SeniorExperienceManager</text><line style="stroke: #A80036; stroke-width: 1.5;" x1="235.5" x2="414.5" y1="282" y2="282"/><line style="stroke: #A80036; stroke-width: 1.5;" x1="235.5" x2="414.5" y1="290" y2="290"/><!--link PrimaryExperienceManager to AbstractExprienceManager--><path d="M196.375,153 C201.2856,153 206.1962,153 211.1067,153 " fill="none" id="PrimaryExperienceManager-AbstractExprienceManager" style="stroke: #A80036; stroke-width: 1.0;"/><polygon fill="none" points="211.2947,145.9999,231.2947,153,211.2946,159.9999,211.2947,145.9999" style="stroke: #A80036; stroke-width: 1.0;"/><!--link JuniorExperienceManager to AbstractExprienceManager--><path d="M325,56.1953 C325,69.4305 325,86.3439 325,102.319 " fill="none" id="JuniorExperienceManager-AbstractExprienceManager" style="stroke: #A80036; stroke-width: 1.0;"/><polygon fill="none" points="332.0001,102.3909,325,122.3909,318.0001,102.3908,332.0001,102.3909" style="stroke: #A80036; stroke-width: 1.0;"/><!--link AbstractExprienceManager to SeniorExperienceManager--><path d="M325,203.6787 C325,219.7165 325,236.7003 325,249.9587 " fill="none" id="AbstractExprienceManager-SeniorExperienceManager" style="stroke: #A80036; stroke-width: 1.0;"/><polygon fill="none" points="318.0001,203.5334,325,183.5334,332.0001,203.5334,318.0001,203.5334" style="stroke: #A80036; stroke-width: 1.0;"/><!--link AbstractExprienceManager to LevelManager--><path d="M418.5703,175.7354 C423.4393,175.9068 428.3084,175.9204 433.1774,175.776 " fill="none" id="AbstractExprienceManager-LevelManager" style="stroke: #A80036; stroke-width: 1.0; stroke-dasharray: 7.0,7.0;"/><polygon fill="none" points="432.7319,168.7899,453.1945,174.2928,433.7665,182.7516,432.7319,168.7899" style="stroke: #A80036; stroke-width: 1.0;"/><!--link AbstractExprienceManager to LevelManager--><path d="M431.8249,130.188 C438.9481,130.3564 446.0713,130.8628 453.1945,131.7072 " fill="none" id="AbstractExprienceManager-LevelManager" style="stroke: #A80036; stroke-width: 1.0; stroke-dasharray: 7.0,7.0;"/><polygon fill="#FFFFFF" points="418.5703,130.2646,424.5934,134.2298,430.5701,130.1951,424.547,126.2299,418.5703,130.2646" style="stroke: #A80036; stroke-width: 1.0;"/><text fill="#000000" font-family="sans-serif" font-size="13" lengthAdjust="spacingAndGlyphs" textLength="8" x="426.6503" y="125.3438">1</text><!--
@startuml chain-of-responsibility-pattern

interface LevelManager {
  + handleExprience():void
  + forName():String
}

abstract class AbstractExprienceManager {
  - next:LevelManager

}

class PrimaryExperienceManager
class JuniorExperienceManager
class SeniorExperienceManager

AbstractExprienceManager <|-left- PrimaryExperienceManager
JuniorExperienceManager - -|> AbstractExprienceManager
AbstractExprienceManager <|- - SeniorExperienceManager
AbstractExprienceManager .|> LevelManager
AbstractExprienceManager "1" o. LevelManager



@enduml

PlantUML version 1.2018.12(Sun Oct 21 18:15:15 CST 2018)
(GPL source distribution)
Java Runtime: Java(TM) SE Runtime Environment
JVM: Java HotSpot(TM) 64-Bit Server VM
Java Version: 1.8.0_171-b11
Operating System: Mac OS X
OS Version: 10.14.3
Default Encoding: UTF-8
Language: zh
Country: CN
--></g></svg>