<?xml version="1.0" encoding="UTF-8" standalone="no"?><svg xmlns="http://www.w3.org/2000/svg" xmlns:xlink="http://www.w3.org/1999/xlink" contentScriptType="application/ecmascript" contentStyleType="text/css" height="417px" preserveAspectRatio="none" style="width:575px;height:417px;" version="1.1" viewBox="0 0 575 417" width="575px" zoomAndPan="magnify"><defs><filter height="300%" id="f1r4sk6qys48j2" width="300%" x="-1" y="-1"><feGaussianBlur result="blurOut" stdDeviation="2.0"/><feColorMatrix in="blurOut" result="blurOut2" type="matrix" values="0 0 0 0 0 0 0 0 0 0 0 0 0 0 0 0 0 0 .4 0"/><feOffset dx="4.0" dy="4.0" in="blurOut2" result="blurOut3"/><feBlend in="SourceGraphic" in2="blurOut3" mode="normal"/></filter></defs><g><!--class Target--><rect fill="#FEFECE" filter="url(#f1r4sk6qys48j2)" height="48" id="Target" style="stroke: #A80036; stroke-width: 1.5;" width="70" x="6" y="250"/><ellipse cx="21" cy="266" fill="#A9DCDF" rx="11" ry="11" style="stroke: #A80036; stroke-width: 1.0;"/><path d="M21.1133,261.5981 L19.9595,266.6699 L22.2754,266.6699 Z M19.6191,259.3569 L22.6157,259.3569 L25.9609,271.75 L23.5122,271.75 L22.7485,268.687 L19.4697,268.687 L18.7227,271.75 L16.2739,271.75 Z "/><text fill="#000000" font-family="sans-serif" font-size="12" font-style="italic" lengthAdjust="spacingAndGlyphs" textLength="38" x="35" y="270.5352">Target</text><line style="stroke: #A80036; stroke-width: 1.5;" x1="7" x2="75" y1="282" y2="282"/><line style="stroke: #A80036; stroke-width: 1.5;" x1="7" x2="75" y1="290" y2="290"/><!--class Commander--><rect fill="#FEFECE" filter="url(#f1r4sk6qys48j2)" height="48" id="Commander" style="stroke: #A80036; stroke-width: 1.5;" width="103" x="132.5" y="358"/><ellipse cx="147.5" cy="374" fill="#A9DCDF" rx="11" ry="11" style="stroke: #A80036; stroke-width: 1.0;"/><path d="M147.6133,369.5981 L146.4595,374.6699 L148.7754,374.6699 Z M146.1191,367.3569 L149.1157,367.3569 L152.4609,379.75 L150.0122,379.75 L149.2485,376.687 L145.9697,376.687 L145.2227,379.75 L142.7739,379.75 Z "/><text fill="#000000" font-family="sans-serif" font-size="12" font-style="italic" lengthAdjust="spacingAndGlyphs" textLength="71" x="161.5" y="378.5352">Commander</text><line style="stroke: #A80036; stroke-width: 1.5;" x1="133.5" x2="234.5" y1="390" y2="390"/><line style="stroke: #A80036; stroke-width: 1.5;" x1="133.5" x2="234.5" y1="398" y2="398"/><!--class WarriorCommander--><rect fill="#FEFECE" filter="url(#f1r4sk6qys48j2)" height="48" id="WarriorCommander" style="stroke: #A80036; stroke-width: 1.5;" width="145" x="111.5" y="250"/><ellipse cx="126.5" cy="266" fill="#ADD1B2" rx="11" ry="11" style="stroke: #A80036; stroke-width: 1.0;"/><path d="M128.9731,272.1431 Q128.3921,272.4419 127.7529,272.5913 Q127.1138,272.7407 126.4082,272.7407 Q123.9014,272.7407 122.5815,271.0889 Q121.2617,269.437 121.2617,266.3159 Q121.2617,263.1865 122.5815,261.5347 Q123.9014,259.8828 126.4082,259.8828 Q127.1138,259.8828 127.7612,260.0322 Q128.4087,260.1816 128.9731,260.4805 L128.9731,263.2031 Q128.3423,262.6221 127.7488,262.3523 Q127.1553,262.0825 126.5244,262.0825 Q125.1797,262.0825 124.4949,263.1492 Q123.8101,264.2158 123.8101,266.3159 Q123.8101,268.4077 124.4949,269.4744 Q125.1797,270.541 126.5244,270.541 Q127.1553,270.541 127.7488,270.2712 Q128.3423,270.0015 128.9731,269.4204 Z "/><text fill="#000000" font-family="sans-serif" font-size="12" lengthAdjust="spacingAndGlyphs" textLength="113" x="140.5" y="270.5352">WarriorCommander</text><line style="stroke: #A80036; stroke-width: 1.5;" x1="112.5" x2="255.5" y1="282" y2="282"/><line style="stroke: #A80036; stroke-width: 1.5;" x1="112.5" x2="255.5" y1="290" y2="290"/><!--class MagicianCommander--><rect fill="#FEFECE" filter="url(#f1r4sk6qys48j2)" height="48" id="MagicianCommander" style="stroke: #A80036; stroke-width: 1.5;" width="153" x="339.5" y="250"/><ellipse cx="354.5" cy="266" fill="#ADD1B2" rx="11" ry="11" style="stroke: #A80036; stroke-width: 1.0;"/><path d="M356.9731,272.1431 Q356.3921,272.4419 355.7529,272.5913 Q355.1138,272.7407 354.4082,272.7407 Q351.9014,272.7407 350.5815,271.0889 Q349.2617,269.437 349.2617,266.3159 Q349.2617,263.1865 350.5815,261.5347 Q351.9014,259.8828 354.4082,259.8828 Q355.1138,259.8828 355.7612,260.0322 Q356.4087,260.1816 356.9731,260.4805 L356.9731,263.2031 Q356.3423,262.6221 355.7488,262.3523 Q355.1553,262.0825 354.5244,262.0825 Q353.1797,262.0825 352.4949,263.1492 Q351.8101,264.2158 351.8101,266.3159 Q351.8101,268.4077 352.4949,269.4744 Q353.1797,270.541 354.5244,270.541 Q355.1553,270.541 355.7488,270.2712 Q356.3423,270.0015 356.9731,269.4204 Z "/><text fill="#000000" font-family="sans-serif" font-size="12" lengthAdjust="spacingAndGlyphs" textLength="121" x="368.5" y="270.5352">MagicianCommander</text><line style="stroke: #A80036; stroke-width: 1.5;" x1="340.5" x2="491.5" y1="282" y2="282"/><line style="stroke: #A80036; stroke-width: 1.5;" x1="340.5" x2="491.5" y1="290" y2="290"/><!--class CommanderFactory--><rect fill="#FEFECE" filter="url(#f1r4sk6qys48j2)" height="60.9551" id="CommanderFactory" style="stroke: #A80036; stroke-width: 1.5;" width="246" x="177" y="8"/><ellipse cx="239.75" cy="24" fill="#B4A7E5" rx="11" ry="11" style="stroke: #A80036; stroke-width: 1.0;"/><path d="M236.1777,20.2651 L236.1777,18.1069 L243.5571,18.1069 L243.5571,20.2651 L241.0918,20.2651 L241.0918,28.3418 L243.5571,28.3418 L243.5571,30.5 L236.1777,30.5 L236.1777,28.3418 L238.6431,28.3418 L238.6431,20.2651 Z "/><text fill="#000000" font-family="sans-serif" font-size="12" font-style="italic" lengthAdjust="spacingAndGlyphs" textLength="112" x="260.25" y="28.5352">CommanderFactory</text><line style="stroke: #A80036; stroke-width: 1.5;" x1="178" x2="422" y1="40" y2="40"/><line style="stroke: #A80036; stroke-width: 1.5;" x1="178" x2="422" y1="48" y2="48"/><ellipse cx="188" cy="59.9775" fill="#84BE84" rx="3" ry="3" style="stroke: #038048; stroke-width: 1.0;"/><text fill="#000000" font-family="sans-serif" font-size="11" lengthAdjust="spacingAndGlyphs" textLength="220" x="197" y="62.6348">produceCommander(String):Commander</text><!--class WarriorFactory--><rect fill="#FEFECE" filter="url(#f1r4sk6qys48j2)" height="60.9551" id="WarriorFactory" style="stroke: #A80036; stroke-width: 1.5;" width="246" x="37" y="129"/><ellipse cx="114.25" cy="145" fill="#ADD1B2" rx="11" ry="11" style="stroke: #A80036; stroke-width: 1.0;"/><path d="M116.7231,151.1431 Q116.1421,151.4419 115.5029,151.5913 Q114.8638,151.7407 114.1582,151.7407 Q111.6514,151.7407 110.3315,150.0889 Q109.0117,148.437 109.0117,145.3159 Q109.0117,142.1865 110.3315,140.5347 Q111.6514,138.8828 114.1582,138.8828 Q114.8638,138.8828 115.5112,139.0322 Q116.1587,139.1816 116.7231,139.4805 L116.7231,142.2031 Q116.0923,141.6221 115.4988,141.3523 Q114.9053,141.0825 114.2744,141.0825 Q112.9297,141.0825 112.2449,142.1492 Q111.5601,143.2158 111.5601,145.3159 Q111.5601,147.4077 112.2449,148.4744 Q112.9297,149.541 114.2744,149.541 Q114.9053,149.541 115.4988,149.2712 Q116.0923,149.0015 116.7231,148.4204 Z "/><text fill="#000000" font-family="sans-serif" font-size="12" lengthAdjust="spacingAndGlyphs" textLength="83" x="134.75" y="149.5352">WarriorFactory</text><line style="stroke: #A80036; stroke-width: 1.5;" x1="38" x2="282" y1="161" y2="161"/><line style="stroke: #A80036; stroke-width: 1.5;" x1="38" x2="282" y1="169" y2="169"/><polygon fill="#4177AF" points="48,176.9775,44,182.9775,52,182.9775" style="stroke: #1963A0; stroke-width: 1.0;"/><text fill="#000000" font-family="sans-serif" font-size="11" lengthAdjust="spacingAndGlyphs" textLength="220" x="57" y="183.6348">produceCommander(String):Commander</text><!--class MagicianFactory--><rect fill="#FEFECE" filter="url(#f1r4sk6qys48j2)" height="60.9551" id="MagicianFactory" style="stroke: #A80036; stroke-width: 1.5;" width="246" x="318" y="129"/><ellipse cx="391.25" cy="145" fill="#ADD1B2" rx="11" ry="11" style="stroke: #A80036; stroke-width: 1.0;"/><path d="M393.7231,151.1431 Q393.1421,151.4419 392.5029,151.5913 Q391.8638,151.7407 391.1582,151.7407 Q388.6514,151.7407 387.3315,150.0889 Q386.0117,148.437 386.0117,145.3159 Q386.0117,142.1865 387.3315,140.5347 Q388.6514,138.8828 391.1582,138.8828 Q391.8638,138.8828 392.5112,139.0322 Q393.1587,139.1816 393.7231,139.4805 L393.7231,142.2031 Q393.0923,141.6221 392.4988,141.3523 Q391.9053,141.0825 391.2744,141.0825 Q389.9297,141.0825 389.2449,142.1492 Q388.5601,143.2158 388.5601,145.3159 Q388.5601,147.4077 389.2449,148.4744 Q389.9297,149.541 391.2744,149.541 Q391.9053,149.541 392.4988,149.2712 Q393.0923,149.0015 393.7231,148.4204 Z "/><text fill="#000000" font-family="sans-serif" font-size="12" lengthAdjust="spacingAndGlyphs" textLength="91" x="411.75" y="149.5352">MagicianFactory</text><line style="stroke: #A80036; stroke-width: 1.5;" x1="319" x2="563" y1="161" y2="161"/><line style="stroke: #A80036; stroke-width: 1.5;" x1="319" x2="563" y1="169" y2="169"/><polygon fill="#4177AF" points="329,176.9775,325,182.9775,333,182.9775" style="stroke: #1963A0; stroke-width: 1.0;"/><text fill="#000000" font-family="sans-serif" font-size="11" lengthAdjust="spacingAndGlyphs" textLength="220" x="338" y="183.6348">produceCommander(String):Commander</text><!--link Target to Commander--><path d="M89.2552,310.4445 C109.9429,326.0688 133.5437,343.8932 152.0151,357.8436 " fill="none" id="Target-Commander" style="stroke: #A80036; stroke-width: 1.0;"/><polygon fill="none" points="84.833,315.8768,73.092,298.2373,93.2705,304.7049,84.833,315.8768" style="stroke: #A80036; stroke-width: 1.0;"/><!--link WarriorCommander to Commander--><path d="M184,298.2373 C184,309.9099 184,324.2806 184,337.8027 " fill="none" id="WarriorCommander-Commander" style="stroke: #A80036; stroke-width: 1.0;"/><polygon fill="none" points="191.0001,337.8436,184,357.8436,177.0001,337.8436,191.0001,337.8436" style="stroke: #A80036; stroke-width: 1.0;"/><!--link MagicianCommander to Commander--><path d="M364.2234,298.1029 C331.7347,313.227 289.4313,332.9199 253.975,349.4254 " fill="none" id="MagicianCommander-Commander" style="stroke: #A80036; stroke-width: 1.0;"/><polygon fill="none" points="256.7042,355.8762,235.6183,357.9708,250.7957,343.1841,256.7042,355.8762" style="stroke: #A80036; stroke-width: 1.0;"/><!--link CommanderFactory to WarriorFactory--><path d="M249.5034,82.1434 C231.5469,97.663 211.7297,114.7908 195.3166,128.9764 " fill="none" id="CommanderFactory-WarriorFactory" style="stroke: #A80036; stroke-width: 1.0;"/><polygon fill="none" points="244.9631,76.8154,264.6721,69.0334,254.1178,87.4075,244.9631,76.8154" style="stroke: #A80036; stroke-width: 1.0;"/><!--link CommanderFactory to MagicianFactory--><path d="M350.8572,82.1434 C368.942,97.663 388.9008,114.7908 405.4311,128.9764 " fill="none" id="CommanderFactory-MagicianFactory" style="stroke: #A80036; stroke-width: 1.0;"/><polygon fill="none" points="346.1992,87.3703,335.5803,69.0334,355.3165,76.746,346.1992,87.3703" style="stroke: #A80036; stroke-width: 1.0;"/><!--link WarriorFactory to WarriorCommander--><path d="M166.4316,190.1839 C169.98,207.1131 174.3632,228.0245 177.8637,244.7248 " fill="none" id="WarriorFactory-WarriorCommander" style="stroke: #A80036; stroke-width: 1.0; stroke-dasharray: 7.0,7.0;"/><polygon fill="#A80036" points="178.9198,249.7634,180.9882,240.1342,177.894,244.8698,173.1584,241.7755,178.9198,249.7634" style="stroke: #A80036; stroke-width: 1.0;"/><!--link MagicianFactory to MagicianCommander--><path d="M434.3005,190.1839 C430.6041,207.1131 426.0383,228.0245 422.392,244.7248 " fill="none" id="MagicianFactory-MagicianCommander" style="stroke: #A80036; stroke-width: 1.0; stroke-dasharray: 7.0,7.0;"/><polygon fill="#A80036" points="421.2918,249.7634,427.1196,241.8238,422.3584,244.8785,419.3037,240.1173,421.2918,249.7634" style="stroke: #A80036; stroke-width: 1.0;"/><!--
@startuml factory-pattern

abstract class Target {
}

abstract class Commander {
}
class WarriorCommander {

}

class MagicianCommander {

}

Target <|- - Commander

WarriorCommander - -|> Commander
MagicianCommander - -|> Commander

interface CommanderFactory {
  + produceCommander(String):Commander
}

class WarriorFactory {
  ~ produceCommander(String):Commander
}

class MagicianFactory {
  ~ produceCommander(String):Commander
}


CommanderFactory <|- - WarriorFactory 
CommanderFactory <|- - MagicianFactory

WarriorFactory ..> WarriorCommander
MagicianFactory ..> MagicianCommander


@enduml

PlantUML version 1.2018.12(Sun Oct 21 18:15:15 CST 2018)
(GPL source distribution)
Java Runtime: Java(TM) SE Runtime Environment
JVM: Java HotSpot(TM) 64-Bit Server VM
Java Version: 1.8.0_171-b11
Operating System: Mac OS X
OS Version: 10.14.3
Default Encoding: UTF-8
Language: zh
Country: CN
--></g></svg>