<?xml version="1.0" encoding="UTF-8" standalone="no"?><svg xmlns="http://www.w3.org/2000/svg" xmlns:xlink="http://www.w3.org/1999/xlink" contentScriptType="application/ecmascript" contentStyleType="text/css" height="249px" preserveAspectRatio="none" style="width:770px;height:249px;" version="1.1" viewBox="0 0 770 249" width="770px" zoomAndPan="magnify"><defs><filter height="300%" id="f7ld07b668qv7" width="300%" x="-1" y="-1"><feGaussianBlur result="blurOut" stdDeviation="2.0"/><feColorMatrix in="blurOut" result="blurOut2" type="matrix" values="0 0 0 0 0 0 0 0 0 0 0 0 0 0 0 0 0 0 .4 0"/><feOffset dx="4.0" dy="4.0" in="blurOut2" result="blurOut3"/><feBlend in="SourceGraphic" in2="blurOut3" mode="normal"/></filter></defs><g><!--class Equipment--><rect fill="#FEFECE" filter="url(#f7ld07b668qv7)" height="48" id="Equipment" style="stroke: #A80036; stroke-width: 1.5;" width="94" x="335" y="19.5"/><ellipse cx="350" cy="35.5" fill="#A9DCDF" rx="11" ry="11" style="stroke: #A80036; stroke-width: 1.0;"/><path d="M350.1133,31.0981 L348.9595,36.1699 L351.2754,36.1699 Z M348.6191,28.8569 L351.6157,28.8569 L354.9609,41.25 L352.5122,41.25 L351.7485,38.187 L348.4697,38.187 L347.7227,41.25 L345.2739,41.25 Z "/><text fill="#000000" font-family="sans-serif" font-size="12" font-style="italic" lengthAdjust="spacingAndGlyphs" textLength="62" x="364" y="40.0352">Equipment</text><line style="stroke: #A80036; stroke-width: 1.5;" x1="336" x2="428" y1="51.5" y2="51.5"/><line style="stroke: #A80036; stroke-width: 1.5;" x1="336" x2="428" y1="59.5" y2="59.5"/><!--class SingleEquipment--><rect fill="#FEFECE" filter="url(#f7ld07b668qv7)" height="48" id="SingleEquipment" style="stroke: #A80036; stroke-width: 1.5;" width="127" x="222.5" y="165"/><ellipse cx="237.5" cy="181" fill="#ADD1B2" rx="11" ry="11" style="stroke: #A80036; stroke-width: 1.0;"/><path d="M239.9731,187.1431 Q239.3921,187.4419 238.7529,187.5913 Q238.1138,187.7407 237.4082,187.7407 Q234.9014,187.7407 233.5815,186.0889 Q232.2617,184.437 232.2617,181.3159 Q232.2617,178.1865 233.5815,176.5347 Q234.9014,174.8828 237.4082,174.8828 Q238.1138,174.8828 238.7612,175.0322 Q239.4087,175.1816 239.9731,175.4805 L239.9731,178.2031 Q239.3423,177.6221 238.7488,177.3523 Q238.1553,177.0825 237.5244,177.0825 Q236.1797,177.0825 235.4949,178.1492 Q234.8101,179.2158 234.8101,181.3159 Q234.8101,183.4077 235.4949,184.4744 Q236.1797,185.541 237.5244,185.541 Q238.1553,185.541 238.7488,185.2712 Q239.3423,185.0015 239.9731,184.4204 Z "/><text fill="#000000" font-family="sans-serif" font-size="12" lengthAdjust="spacingAndGlyphs" textLength="95" x="251.5" y="185.5352">SingleEquipment</text><line style="stroke: #A80036; stroke-width: 1.5;" x1="223.5" x2="348.5" y1="197" y2="197"/><line style="stroke: #A80036; stroke-width: 1.5;" x1="223.5" x2="348.5" y1="205" y2="205"/><!--class ComposedEquipment--><rect fill="#FEFECE" filter="url(#f7ld07b668qv7)" height="99.8203" id="ComposedEquipment" style="stroke: #A80036; stroke-width: 1.5;" width="186" x="385" y="139"/><ellipse cx="413.5" cy="155" fill="#ADD1B2" rx="11" ry="11" style="stroke: #A80036; stroke-width: 1.0;"/><path d="M415.9731,161.1431 Q415.3921,161.4419 414.7529,161.5913 Q414.1138,161.7407 413.4082,161.7407 Q410.9014,161.7407 409.5815,160.0889 Q408.2617,158.437 408.2617,155.3159 Q408.2617,152.1865 409.5815,150.5347 Q410.9014,148.8828 413.4082,148.8828 Q414.1138,148.8828 414.7612,149.0322 Q415.4087,149.1816 415.9731,149.4805 L415.9731,152.2031 Q415.3423,151.6221 414.7488,151.3523 Q414.1553,151.0825 413.5244,151.0825 Q412.1797,151.0825 411.4949,152.1492 Q410.8101,153.2158 410.8101,155.3159 Q410.8101,157.4077 411.4949,158.4744 Q412.1797,159.541 413.5244,159.541 Q414.1553,159.541 414.7488,159.2712 Q415.3423,159.0015 415.9731,158.4204 Z "/><text fill="#000000" font-family="sans-serif" font-size="12" lengthAdjust="spacingAndGlyphs" textLength="124" x="430.5" y="159.5352">ComposedEquipment</text><line style="stroke: #A80036; stroke-width: 1.5;" x1="386" x2="570" y1="171" y2="171"/><rect fill="none" height="6" style="stroke: #C82930; stroke-width: 1.0;" width="6" x="393" y="179.9775"/><text fill="#000000" font-family="sans-serif" font-size="11" lengthAdjust="spacingAndGlyphs" textLength="160" x="405" y="185.6348">equipments:List&lt;Equipment&gt;</text><line style="stroke: #A80036; stroke-width: 1.5;" x1="386" x2="570" y1="191.9551" y2="191.9551"/><ellipse cx="396" cy="203.9326" fill="#84BE84" rx="3" ry="3" style="stroke: #038048; stroke-width: 1.0;"/><text fill="#000000" font-family="sans-serif" font-size="11" lengthAdjust="spacingAndGlyphs" textLength="120" x="405" y="206.5898">add(e:Equipment):void</text><ellipse cx="396" cy="216.8877" fill="#84BE84" rx="3" ry="3" style="stroke: #038048; stroke-width: 1.0;"/><text fill="#000000" font-family="sans-serif" font-size="11" lengthAdjust="spacingAndGlyphs" textLength="140" x="405" y="219.5449">remove(e:Equipment):void</text><ellipse cx="396" cy="229.8428" fill="#84BE84" rx="3" ry="3" style="stroke: #038048; stroke-width: 1.0;"/><text fill="#000000" font-family="sans-serif" font-size="11" lengthAdjust="spacingAndGlyphs" textLength="94" x="405" y="232.5">remove(i:int):void</text><path d="M464,15.5 L464,71.4316 A0,0 0 0 0 464,71.4316 L581.3563,71.4316 L523.7594,138.9399 L589.3563,71.4316 L758,71.4316 A0,0 0 0 0 758,71.4316 L758,25.5 L748,15.5 L464,15.5 A0,0 0 0 0 464,15.5 " fill="#FBFB77" filter="url(#f7ld07b668qv7)" style="stroke: #A80036; stroke-width: 1.0;"/><path d="M748,15.5 L748,25.5 L758,25.5 L748,15.5 " fill="#FBFB77" style="stroke: #A80036; stroke-width: 1.0;"/><text fill="#000000" font-family="sans-serif" font-size="13" lengthAdjust="spacingAndGlyphs" textLength="234" x="470" y="33.0684">实际在实现过程中，我们使用了构建者模</text><text fill="#000000" font-family="sans-serif" font-size="13" lengthAdjust="spacingAndGlyphs" textLength="273" x="470" y="48.3789">式对装备进行生成，因此实际类图包含构建者，</text><text fill="#000000" font-family="sans-serif" font-size="13" lengthAdjust="spacingAndGlyphs" textLength="247" x="470" y="63.6895">在此为了简化不尽兴描述，其实现本质相同</text><path d="M6,8 L6,79.2422 A0,0 0 0 0 6,79.2422 L300,79.2422 A0,0 0 0 0 300,79.2422 L300,47.5 L334.6807,43.5 L300,39.5 L300,18 L290,8 L6,8 A0,0 0 0 0 6,8 " fill="#FBFB77" filter="url(#f7ld07b668qv7)" style="stroke: #A80036; stroke-width: 1.0;"/><path d="M290,8 L290,18 L300,18 L290,8 " fill="#FBFB77" style="stroke: #A80036; stroke-width: 1.0;"/><text fill="#000000" font-family="sans-serif" font-size="13" lengthAdjust="spacingAndGlyphs" textLength="195" x="12" y="25.5684">为了构建装备窄接口，我们没有将</text><text fill="#000000" font-family="sans-serif" font-size="13" lengthAdjust="spacingAndGlyphs" textLength="273" x="12" y="40.8789">组合方法添加到该类中，原因在于对于叶子类，</text><text fill="#000000" font-family="sans-serif" font-size="13" lengthAdjust="spacingAndGlyphs" textLength="273" x="12" y="56.1895">其不需要也不必要拥有该方法，为了保证接口的</text><text fill="#000000" font-family="sans-serif" font-size="13" lengthAdjust="spacingAndGlyphs" textLength="234" x="12" y="71.5">干净，故只在子类聚合类中含有组合窗口</text><!--link Equipment to SingleEquipment--><path d="M354.8886,84.5908 C337.7774,110.5249 316.2664,143.1274 301.876,164.9379 " fill="none" id="Equipment-SingleEquipment" style="stroke: #A80036; stroke-width: 1.0;"/><polygon fill="none" points="349.2902,80.3651,366.1476,67.5264,360.9759,88.0752,349.2902,80.3651" style="stroke: #A80036; stroke-width: 1.0;"/><!--link Equipment to ComposedEquipment--><path d="M397.7871,85.08 C407.6067,101.8783 420.3166,121.411 432.8158,138.9781 " fill="none" id="Equipment-ComposedEquipment" style="stroke: #A80036; stroke-width: 1.0;"/><polygon fill="none" points="391.6342,88.4182,388.0938,67.5264,403.8898,81.6505,391.6342,88.4182" style="stroke: #A80036; stroke-width: 1.0;"/><!--link Equipment to ComposedEquipment--><path d="M408.1851,67.5264 C421.5904,83.9468 437.4742,106.4963 450.9124,127.7119 " fill="none" id="Equipment-ComposedEquipment" style="stroke: #A80036; stroke-width: 1.0;"/><polygon fill="#FFFFFF" points="457.8924,138.9781,458.1327,131.771,451.5724,128.7772,451.3321,135.9843,457.8924,138.9781" style="stroke: #A80036; stroke-width: 1.0;"/><!--
@startuml composite-pattern

abstract class Equipment

class SingleEquipment

Equipment <|- - SingleEquipment

class ComposedEquipment {
  - equipments:List<Equipment>
  + add(e:Equipment):void
  + remove(e:Equipment):void
  + remove(i:int):void
}

note top of ComposedEquipment: 实际在实现过程中，我们使用了构建者模\n式对装备进行生成，因此实际类图包含构建者，\n在此为了简化不尽兴描述，其实现本质相同

note left of Equipment: 为了构建装备窄接口，我们没有将\n组合方法添加到该类中，原因在于对于叶子类，\n其不需要也不必要拥有该方法，为了保证接口的\n干净，故只在子类聚合类中含有组合窗口

Equipment <|- - ComposedEquipment

Equipment - -o ComposedEquipment

@enduml

PlantUML version 1.2018.12(Sun Oct 21 18:15:15 CST 2018)
(GPL source distribution)
Java Runtime: Java(TM) SE Runtime Environment
JVM: Java HotSpot(TM) 64-Bit Server VM
Java Version: 1.8.0_171-b11
Operating System: Mac OS X
OS Version: 10.14.3
Default Encoding: UTF-8
Language: zh
Country: CN
--></g></svg>