<?xml version="1.0" encoding="UTF-8" standalone="no"?><svg xmlns="http://www.w3.org/2000/svg" xmlns:xlink="http://www.w3.org/1999/xlink" contentScriptType="application/ecmascript" contentStyleType="text/css" height="213px" preserveAspectRatio="none" style="width:534px;height:213px;" version="1.1" viewBox="0 0 534 213" width="534px" zoomAndPan="magnify"><defs><filter height="300%" id="f1lqm3g67hvfkz" width="300%" x="-1" y="-1"><feGaussianBlur result="blurOut" stdDeviation="2.0"/><feColorMatrix in="blurOut" result="blurOut2" type="matrix" values="0 0 0 0 0 0 0 0 0 0 0 0 0 0 0 0 0 0 .4 0"/><feOffset dx="4.0" dy="4.0" in="blurOut2" result="blurOut3"/><feBlend in="SourceGraphic" in2="blurOut3" mode="normal"/></filter></defs><g><!--class LevelUpStrategy--><rect fill="#FEFECE" filter="url(#f1lqm3g67hvfkz)" height="73.9102" id="LevelUpStrategy" style="stroke: #A80036; stroke-width: 1.5;" width="222" x="154.5" y="8"/><ellipse cx="215.75" cy="24" fill="#B4A7E5" rx="11" ry="11" style="stroke: #A80036; stroke-width: 1.0;"/><path d="M212.1777,20.2651 L212.1777,18.1069 L219.5571,18.1069 L219.5571,20.2651 L217.0918,20.2651 L217.0918,28.3418 L219.5571,28.3418 L219.5571,30.5 L212.1777,30.5 L212.1777,28.3418 L214.6431,28.3418 L214.6431,20.2651 Z "/><text fill="#000000" font-family="sans-serif" font-size="12" font-style="italic" lengthAdjust="spacingAndGlyphs" textLength="91" x="236.25" y="28.5352">LevelUpStrategy</text><line style="stroke: #A80036; stroke-width: 1.5;" x1="155.5" x2="375.5" y1="40" y2="40"/><ellipse cx="165.5" cy="51.9775" fill="none" rx="3" ry="3" style="stroke: #038048; stroke-width: 1.0;"/><text fill="#000000" font-family="sans-serif" font-size="11" lengthAdjust="spacingAndGlyphs" text-decoration="underline" textLength="156" x="174.5" y="54.6348">UNIT_LEVEL_EXPRIENCE=100</text><line style="stroke: #000000; stroke-width: 1.0;" x1="174.5" x2="330.5" y1="56.6348" y2="56.6348"/><line style="stroke: #A80036; stroke-width: 1.5;" x1="155.5" x2="375.5" y1="60.9551" y2="60.9551"/><ellipse cx="165.5" cy="72.9326" fill="#84BE84" rx="3" ry="3" style="stroke: #038048; stroke-width: 1.0;"/><text fill="#000000" font-family="sans-serif" font-size="11" lengthAdjust="spacingAndGlyphs" textLength="196" x="174.5" y="75.5898">getLevelupExperienceNeeded(int):int</text><!--class JuniorStrategy--><rect fill="#FEFECE" filter="url(#f1lqm3g67hvfkz)" height="48" id="JuniorStrategy" style="stroke: #A80036; stroke-width: 1.5;" width="111" x="412" y="21"/><ellipse cx="427" cy="37" fill="#ADD1B2" rx="11" ry="11" style="stroke: #A80036; stroke-width: 1.0;"/><path d="M429.4731,43.1431 Q428.8921,43.4419 428.2529,43.5913 Q427.6138,43.7407 426.9082,43.7407 Q424.4014,43.7407 423.0815,42.0889 Q421.7617,40.437 421.7617,37.3159 Q421.7617,34.1865 423.0815,32.5347 Q424.4014,30.8828 426.9082,30.8828 Q427.6138,30.8828 428.2612,31.0322 Q428.9087,31.1816 429.4731,31.4805 L429.4731,34.2031 Q428.8423,33.6221 428.2488,33.3523 Q427.6553,33.0825 427.0244,33.0825 Q425.6797,33.0825 424.9949,34.1492 Q424.3101,35.2158 424.3101,37.3159 Q424.3101,39.4077 424.9949,40.4744 Q425.6797,41.541 427.0244,41.541 Q427.6553,41.541 428.2488,41.2712 Q428.8423,41.0015 429.4731,40.4204 Z "/><text fill="#000000" font-family="sans-serif" font-size="12" lengthAdjust="spacingAndGlyphs" textLength="79" x="441" y="41.5352">JuniorStrategy</text><line style="stroke: #A80036; stroke-width: 1.5;" x1="413" x2="522" y1="53" y2="53"/><line style="stroke: #A80036; stroke-width: 1.5;" x1="413" x2="522" y1="61" y2="61"/><!--class PrimaryStrategy--><rect fill="#FEFECE" filter="url(#f1lqm3g67hvfkz)" height="48" id="PrimaryStrategy" style="stroke: #A80036; stroke-width: 1.5;" width="122" x="109.5" y="148.5"/><ellipse cx="124.5" cy="164.5" fill="#ADD1B2" rx="11" ry="11" style="stroke: #A80036; stroke-width: 1.0;"/><path d="M126.9731,170.6431 Q126.3921,170.9419 125.7529,171.0913 Q125.1138,171.2407 124.4082,171.2407 Q121.9014,171.2407 120.5815,169.5889 Q119.2617,167.937 119.2617,164.8159 Q119.2617,161.6865 120.5815,160.0347 Q121.9014,158.3828 124.4082,158.3828 Q125.1138,158.3828 125.7612,158.5322 Q126.4087,158.6816 126.9731,158.9805 L126.9731,161.7031 Q126.3423,161.1221 125.7488,160.8523 Q125.1553,160.5825 124.5244,160.5825 Q123.1797,160.5825 122.4949,161.6492 Q121.8101,162.7158 121.8101,164.8159 Q121.8101,166.9077 122.4949,167.9744 Q123.1797,169.041 124.5244,169.041 Q125.1553,169.041 125.7488,168.7712 Q126.3423,168.5015 126.9731,167.9204 Z "/><text fill="#000000" font-family="sans-serif" font-size="12" lengthAdjust="spacingAndGlyphs" textLength="90" x="138.5" y="169.0352">PrimaryStrategy</text><line style="stroke: #A80036; stroke-width: 1.5;" x1="110.5" x2="230.5" y1="180.5" y2="180.5"/><line style="stroke: #A80036; stroke-width: 1.5;" x1="110.5" x2="230.5" y1="188.5" y2="188.5"/><!--class SeniorStrategy--><rect fill="#FEFECE" filter="url(#f1lqm3g67hvfkz)" height="48" id="SeniorStrategy" style="stroke: #A80036; stroke-width: 1.5;" width="113" x="6" y="21"/><ellipse cx="21" cy="37" fill="#ADD1B2" rx="11" ry="11" style="stroke: #A80036; stroke-width: 1.0;"/><path d="M23.4731,43.1431 Q22.8921,43.4419 22.2529,43.5913 Q21.6138,43.7407 20.9082,43.7407 Q18.4014,43.7407 17.0815,42.0889 Q15.7617,40.437 15.7617,37.3159 Q15.7617,34.1865 17.0815,32.5347 Q18.4014,30.8828 20.9082,30.8828 Q21.6138,30.8828 22.2612,31.0322 Q22.9087,31.1816 23.4731,31.4805 L23.4731,34.2031 Q22.8423,33.6221 22.2488,33.3523 Q21.6553,33.0825 21.0244,33.0825 Q19.6797,33.0825 18.9949,34.1492 Q18.3101,35.2158 18.3101,37.3159 Q18.3101,39.4077 18.9949,40.4744 Q19.6797,41.541 21.0244,41.541 Q21.6553,41.541 22.2488,41.2712 Q22.8423,41.0015 23.4731,40.4204 Z "/><text fill="#000000" font-family="sans-serif" font-size="12" lengthAdjust="spacingAndGlyphs" textLength="81" x="35" y="41.5352">SeniorStrategy</text><line style="stroke: #A80036; stroke-width: 1.5;" x1="7" x2="118" y1="53" y2="53"/><line style="stroke: #A80036; stroke-width: 1.5;" x1="7" x2="118" y1="61" y2="61"/><!--class AbstractExprienceManager--><rect fill="#FEFECE" filter="url(#f1lqm3g67hvfkz)" height="60.9551" id="AbstractExprienceManager" style="stroke: #A80036; stroke-width: 1.5;" width="187" x="267" y="142"/><ellipse cx="282" cy="158" fill="#A9DCDF" rx="11" ry="11" style="stroke: #A80036; stroke-width: 1.0;"/><path d="M282.1133,153.5981 L280.9595,158.6699 L283.2754,158.6699 Z M280.6191,151.3569 L283.6157,151.3569 L286.9609,163.75 L284.5122,163.75 L283.7485,160.687 L280.4697,160.687 L279.7227,163.75 L277.2739,163.75 Z "/><text fill="#000000" font-family="sans-serif" font-size="12" font-style="italic" lengthAdjust="spacingAndGlyphs" textLength="155" x="296" y="162.5352">AbstractExprienceManager</text><line style="stroke: #A80036; stroke-width: 1.5;" x1="268" x2="453" y1="174" y2="174"/><rect fill="none" height="6" style="stroke: #C82930; stroke-width: 1.0;" width="6" x="275" y="182.9775"/><text fill="#000000" font-family="sans-serif" font-size="11" lengthAdjust="spacingAndGlyphs" textLength="133" x="287" y="188.6348">strategy:LevelUpStrategy</text><line style="stroke: #A80036; stroke-width: 1.5;" x1="268" x2="453" y1="194.9551" y2="194.9551"/><!--link LevelUpStrategy to JuniorStrategy--><path d="M396.7711,45 C401.7972,45 406.8234,45 411.8495,45 " fill="none" id="LevelUpStrategy-JuniorStrategy" style="stroke: #A80036; stroke-width: 1.0; stroke-dasharray: 7.0,7.0;"/><polygon fill="none" points="396.7578,51.9999,376.7578,45,396.7578,37.9999,396.7578,51.9999" style="stroke: #A80036; stroke-width: 1.0;"/><!--link LevelUpStrategy to PrimaryStrategy--><path d="M225.7258,98.3811 C212.78,115.7558 199.0473,134.1865 188.5145,148.3226 " fill="none" id="LevelUpStrategy-PrimaryStrategy" style="stroke: #A80036; stroke-width: 1.0; stroke-dasharray: 7.0,7.0;"/><polygon fill="none" points="220.2038,94.0763,237.7667,82.221,231.4302,102.4411,220.2038,94.0763" style="stroke: #A80036; stroke-width: 1.0;"/><!--link SeniorStrategy to LevelUpStrategy--><path d="M119.1973,45 C124.2313,45 129.2654,45 134.2995,45 " fill="none" id="SeniorStrategy-LevelUpStrategy" style="stroke: #A80036; stroke-width: 1.0; stroke-dasharray: 7.0,7.0;"/><polygon fill="none" points="134.3442,37.9999,154.3442,45,134.3442,51.9999,134.3442,37.9999" style="stroke: #A80036; stroke-width: 1.0;"/><!--link LevelUpStrategy to AbstractExprienceManager--><path d="M293.2333,82.221 C304.7138,97.629 318.0693,115.5535 329.84,131.351 " fill="none" id="LevelUpStrategy-AbstractExprienceManager" style="stroke: #A80036; stroke-width: 1.0; stroke-dasharray: 7.0,7.0;"/><polygon fill="#FFFFFF" points="337.6932,141.8909,337.3159,134.6897,330.5234,132.2683,330.9008,139.4695,337.6932,141.8909" style="stroke: #A80036; stroke-width: 1.0;"/><text fill="#000000" font-family="sans-serif" font-size="13" lengthAdjust="spacingAndGlyphs" textLength="8" x="323.8292" y="131.1618">1</text><!--
@startuml strategy-pattern

interface LevelUpStrategy {
  + getLevelupExperienceNeeded(int):int
  {static} + UNIT_LEVEL_EXPRIENCE=100
}

class JuniorStrategy 
class PrimaryStrategy 
class SeniorStrategy

LevelUpStrategy <|. JuniorStrategy
LevelUpStrategy <|.. PrimaryStrategy
LevelUpStrategy <|.left. SeniorStrategy

abstract class AbstractExprienceManager {
  - strategy:LevelUpStrategy
}

AbstractExprienceManager "1" o.up. LevelUpStrategy

@enduml

PlantUML version 1.2018.12(Sun Oct 21 18:15:15 CST 2018)
(GPL source distribution)
Java Runtime: Java(TM) SE Runtime Environment
JVM: Java HotSpot(TM) 64-Bit Server VM
Java Version: 1.8.0_171-b11
Operating System: Mac OS X
OS Version: 10.14.3
Default Encoding: UTF-8
Language: zh
Country: CN
--></g></svg>