<?xml version="1.0" encoding="UTF-8" standalone="no"?><svg xmlns="http://www.w3.org/2000/svg" xmlns:xlink="http://www.w3.org/1999/xlink" contentScriptType="application/ecmascript" contentStyleType="text/css" height="239px" preserveAspectRatio="none" style="width:619px;height:239px;" version="1.1" viewBox="0 0 619 239" width="619px" zoomAndPan="magnify"><defs><filter height="300%" id="fqppqqddsafp3" width="300%" x="-1" y="-1"><feGaussianBlur result="blurOut" stdDeviation="2.0"/><feColorMatrix in="blurOut" result="blurOut2" type="matrix" values="0 0 0 0 0 0 0 0 0 0 0 0 0 0 0 0 0 0 .4 0"/><feOffset dx="4.0" dy="4.0" in="blurOut2" result="blurOut3"/><feBlend in="SourceGraphic" in2="blurOut3" mode="normal"/></filter></defs><g><!--class ModelToTableModelUtil--><rect fill="#FEFECE" filter="url(#fqppqqddsafp3)" height="73.9102" id="ModelToTableModelUtil" style="stroke: #A80036; stroke-width: 1.5;" width="212" x="221" y="155"/><ellipse cx="255.8" cy="171" fill="#A9DCDF" rx="11" ry="11" style="stroke: #A80036; stroke-width: 1.0;"/><path d="M255.9133,166.5981 L254.7595,171.6699 L257.0754,171.6699 Z M254.4191,164.3569 L257.4157,164.3569 L260.7609,176.75 L258.3122,176.75 L257.5485,173.687 L254.2697,173.687 L253.5227,176.75 L251.0739,176.75 Z "/><text fill="#000000" font-family="sans-serif" font-size="12" font-style="italic" lengthAdjust="spacingAndGlyphs" textLength="136" x="274.2" y="175.5352">ModelToTableModelUtil</text><line style="stroke: #A80036; stroke-width: 1.5;" x1="222" x2="432" y1="187" y2="187"/><rect fill="none" height="6" style="stroke: #C82930; stroke-width: 1.0;" width="6" x="229" y="195.9775"/><text fill="#000000" font-family="sans-serif" font-size="11" lengthAdjust="spacingAndGlyphs" textLength="83" x="241" y="201.6348">forModel:String</text><line style="stroke: #A80036; stroke-width: 1.5;" x1="222" x2="432" y1="207.9551" y2="207.9551"/><ellipse cx="232" cy="219.9326" fill="#84BE84" rx="3" ry="3" style="stroke: #038048; stroke-width: 1.0;"/><text fill="#000000" font-family="sans-serif" font-size="11" lengthAdjust="spacingAndGlyphs" textLength="186" x="241" y="222.5898">transferToModel(Object):Object[][]</text><!--class CommanderTableModelUtil--><rect fill="#FEFECE" filter="url(#fqppqqddsafp3)" height="48" id="CommanderTableModelUtil" style="stroke: #A80036; stroke-width: 1.5;" width="189" x="368.5" y="27.5"/><ellipse cx="383.5" cy="43.5" fill="#ADD1B2" rx="11" ry="11" style="stroke: #A80036; stroke-width: 1.0;"/><path d="M385.9731,49.6431 Q385.3921,49.9419 384.7529,50.0913 Q384.1138,50.2407 383.4082,50.2407 Q380.9014,50.2407 379.5815,48.5889 Q378.2617,46.937 378.2617,43.8159 Q378.2617,40.6865 379.5815,39.0347 Q380.9014,37.3828 383.4082,37.3828 Q384.1138,37.3828 384.7612,37.5322 Q385.4087,37.6816 385.9731,37.9805 L385.9731,40.7031 Q385.3423,40.1221 384.7488,39.8523 Q384.1553,39.5825 383.5244,39.5825 Q382.1797,39.5825 381.4949,40.6492 Q380.8101,41.7158 380.8101,43.8159 Q380.8101,45.9077 381.4949,46.9744 Q382.1797,48.041 383.5244,48.041 Q384.1553,48.041 384.7488,47.7712 Q385.3423,47.5015 385.9731,46.9204 Z "/><text fill="#000000" font-family="sans-serif" font-size="12" lengthAdjust="spacingAndGlyphs" textLength="157" x="397.5" y="48.0352">CommanderTableModelUtil</text><line style="stroke: #A80036; stroke-width: 1.5;" x1="369.5" x2="556.5" y1="59.5" y2="59.5"/><line style="stroke: #A80036; stroke-width: 1.5;" x1="369.5" x2="556.5" y1="67.5" y2="67.5"/><!--class EquipmentTableModelUtil--><rect fill="#FEFECE" filter="url(#fqppqqddsafp3)" height="48" id="EquipmentTableModelUtil" style="stroke: #A80036; stroke-width: 1.5;" width="180" x="6" y="168"/><ellipse cx="21" cy="184" fill="#ADD1B2" rx="11" ry="11" style="stroke: #A80036; stroke-width: 1.0;"/><path d="M23.4731,190.1431 Q22.8921,190.4419 22.2529,190.5913 Q21.6138,190.7407 20.9082,190.7407 Q18.4014,190.7407 17.0815,189.0889 Q15.7617,187.437 15.7617,184.3159 Q15.7617,181.1865 17.0815,179.5347 Q18.4014,177.8828 20.9082,177.8828 Q21.6138,177.8828 22.2612,178.0322 Q22.9087,178.1816 23.4731,178.4805 L23.4731,181.2031 Q22.8423,180.6221 22.2488,180.3523 Q21.6553,180.0825 21.0244,180.0825 Q19.6797,180.0825 18.9949,181.1492 Q18.3101,182.2158 18.3101,184.3159 Q18.3101,186.4077 18.9949,187.4744 Q19.6797,188.541 21.0244,188.541 Q21.6553,188.541 22.2488,188.2712 Q22.8423,188.0015 23.4731,187.4204 Z "/><text fill="#000000" font-family="sans-serif" font-size="12" lengthAdjust="spacingAndGlyphs" textLength="148" x="35" y="188.5352">EquipmentTableModelUtil</text><line style="stroke: #A80036; stroke-width: 1.5;" x1="7" x2="185" y1="200" y2="200"/><line style="stroke: #A80036; stroke-width: 1.5;" x1="7" x2="185" y1="208" y2="208"/><!--class SkillTableModelUtil--><rect fill="#FEFECE" filter="url(#fqppqqddsafp3)" height="48" id="SkillTableModelUtil" style="stroke: #A80036; stroke-width: 1.5;" width="140" x="468" y="168"/><ellipse cx="483" cy="184" fill="#ADD1B2" rx="11" ry="11" style="stroke: #A80036; stroke-width: 1.0;"/><path d="M485.4731,190.1431 Q484.8921,190.4419 484.2529,190.5913 Q483.6138,190.7407 482.9082,190.7407 Q480.4014,190.7407 479.0815,189.0889 Q477.7617,187.437 477.7617,184.3159 Q477.7617,181.1865 479.0815,179.5347 Q480.4014,177.8828 482.9082,177.8828 Q483.6138,177.8828 484.2612,178.0322 Q484.9087,178.1816 485.4731,178.4805 L485.4731,181.2031 Q484.8423,180.6221 484.2488,180.3523 Q483.6553,180.0825 483.0244,180.0825 Q481.6797,180.0825 480.9949,181.1492 Q480.3101,182.2158 480.3101,184.3159 Q480.3101,186.4077 480.9949,187.4744 Q481.6797,188.541 483.0244,188.541 Q483.6553,188.541 484.2488,188.2712 Q484.8423,188.0015 485.4731,187.4204 Z "/><text fill="#000000" font-family="sans-serif" font-size="12" lengthAdjust="spacingAndGlyphs" textLength="108" x="497" y="188.5352">SkillTableModelUtil</text><line style="stroke: #A80036; stroke-width: 1.5;" x1="469" x2="607" y1="200" y2="200"/><line style="stroke: #A80036; stroke-width: 1.5;" x1="469" x2="607" y1="208" y2="208"/><!--class SharedModelUtilFactory--><rect fill="#FEFECE" filter="url(#fqppqqddsafp3)" height="86.8652" id="SharedModelUtilFactory" style="stroke: #A80036; stroke-width: 1.5;" width="285" x="48.5" y="8"/><ellipse cx="119.75" cy="24" fill="#ADD1B2" rx="11" ry="11" style="stroke: #A80036; stroke-width: 1.0;"/><path d="M122.2231,30.1431 Q121.6421,30.4419 121.0029,30.5913 Q120.3638,30.7407 119.6582,30.7407 Q117.1514,30.7407 115.8315,29.0889 Q114.5117,27.437 114.5117,24.3159 Q114.5117,21.1865 115.8315,19.5347 Q117.1514,17.8828 119.6582,17.8828 Q120.3638,17.8828 121.0112,18.0322 Q121.6587,18.1816 122.2231,18.4805 L122.2231,21.2031 Q121.5923,20.6221 120.9988,20.3523 Q120.4053,20.0825 119.7744,20.0825 Q118.4297,20.0825 117.7449,21.1492 Q117.0601,22.2158 117.0601,24.3159 Q117.0601,26.4077 117.7449,27.4744 Q118.4297,28.541 119.7744,28.541 Q120.4053,28.541 120.9988,28.2712 Q121.5923,28.0015 122.2231,27.4204 Z "/><text fill="#000000" font-family="sans-serif" font-size="12" lengthAdjust="spacingAndGlyphs" textLength="134" x="140.25" y="28.5352">SharedModelUtilFactory</text><line style="stroke: #A80036; stroke-width: 1.5;" x1="49.5" x2="332.5" y1="40" y2="40"/><rect fill="none" height="6" style="stroke: #C82930; stroke-width: 1.0;" width="6" x="56.5" y="48.9775"/><text fill="#000000" font-family="sans-serif" font-size="11" lengthAdjust="spacingAndGlyphs" textLength="259" x="68.5" y="54.6348">utilCaches:Map&lt;String,ModelToTableModelUtil&gt;</text><line style="stroke: #A80036; stroke-width: 1.5;" x1="49.5" x2="332.5" y1="60.9551" y2="60.9551"/><polygon fill="#FFFF44" points="59.5,67.9326,63.5,71.9326,59.5,75.9326,55.5,71.9326" style="stroke: #B38D22; stroke-width: 1.0;"/><text fill="#000000" font-family="sans-serif" font-size="11" lengthAdjust="spacingAndGlyphs" textLength="135" x="68.5" y="75.5898">SharedModelUtilFactory()</text><ellipse cx="59.5" cy="85.8877" fill="#84BE84" rx="3" ry="3" style="stroke: #038048; stroke-width: 1.0;"/><text fill="#000000" font-family="sans-serif" font-size="11" lengthAdjust="spacingAndGlyphs" text-decoration="underline" textLength="215" x="68.5" y="88.5449">sharedFactory():SharedModelUtilFactory</text><line style="stroke: #000000; stroke-width: 1.0;" x1="68.5" x2="283.5" y1="90.5449" y2="90.5449"/><!--link CommanderTableModelUtil to ModelToTableModelUtil--><path d="M439.6208,75.6528 C422.384,93.4599 398.2988,118.3421 376.8237,140.5277 " fill="none" id="CommanderTableModelUtil-ModelToTableModelUtil" style="stroke: #A80036; stroke-width: 1.0;"/><polygon fill="none" points="381.7792,145.4729,362.8394,154.9748,371.7199,135.7358,381.7792,145.4729" style="stroke: #A80036; stroke-width: 1.0;"/><!--link EquipmentTableModelUtil to ModelToTableModelUtil--><path d="M186.2344,192 C191.1058,192 195.9773,192 200.8488,192 " fill="none" id="EquipmentTableModelUtil-ModelToTableModelUtil" style="stroke: #A80036; stroke-width: 1.0;"/><polygon fill="none" points="200.876,184.9999,220.8759,192,200.8759,198.9999,200.876,184.9999" style="stroke: #A80036; stroke-width: 1.0;"/><!--link ModelToTableModelUtil to SkillTableModelUtil--><path d="M453.4493,192 C458.1898,192 462.9304,192 467.671,192 " fill="none" id="ModelToTableModelUtil-SkillTableModelUtil" style="stroke: #A80036; stroke-width: 1.0;"/><polygon fill="none" points="453.3243,198.9999,433.3242,192,453.3242,184.9999,453.3243,198.9999" style="stroke: #A80036; stroke-width: 1.0;"/><!--link SharedModelUtilFactory to ModelToTableModelUtil--><path d="M242.6317,104.8401 C258.8141,121.558 276.3113,139.6341 291.1537,154.9676 " fill="none" id="SharedModelUtilFactory-ModelToTableModelUtil" style="stroke: #A80036; stroke-width: 1.0;"/><polygon fill="#FFFFFF" points="233.2858,95.1849,234.5848,102.278,241.632,103.8071,240.3329,96.7139,233.2858,95.1849" style="stroke: #A80036; stroke-width: 1.0;"/><text fill="#000000" font-family="sans-serif" font-size="13" lengthAdjust="spacingAndGlyphs" textLength="8" x="230.909" y="115.3037">n</text><!--
@startuml flyweight-pattern

abstract class ModelToTableModelUtil {
  - forModel:String
  + transferToModel(Object):Object[][]
}

class CommanderTableModelUtil {
}

class EquipmentTableModelUtil  {
}

class SkillTableModelUtil {
}

CommanderTableModelUtil - -|> ModelToTableModelUtil
EquipmentTableModelUtil -|> ModelToTableModelUtil
ModelToTableModelUtil <|- SkillTableModelUtil

class SharedModelUtilFactory {
  - utilCaches:Map<String,ModelToTableModelUtil>
  # SharedModelUtilFactory()
  {static} + sharedFactory():SharedModelUtilFactory
}

ModelToTableModelUtil -down-o "n" SharedModelUtilFactory

@enduml

PlantUML version 1.2018.12(Sun Oct 21 18:15:15 CST 2018)
(GPL source distribution)
Java Runtime: Java(TM) SE Runtime Environment
JVM: Java HotSpot(TM) 64-Bit Server VM
Java Version: 1.8.0_171-b11
Operating System: Mac OS X
OS Version: 10.14.3
Default Encoding: UTF-8
Language: zh
Country: CN
--></g></svg>