<?xml version="1.0" encoding="UTF-8" standalone="no"?><svg xmlns="http://www.w3.org/2000/svg" xmlns:xlink="http://www.w3.org/1999/xlink" contentScriptType="application/ecmascript" contentStyleType="text/css" height="520px" preserveAspectRatio="none" style="width:692px;height:520px;" version="1.1" viewBox="0 0 692 520" width="692px" zoomAndPan="magnify"><defs><filter height="300%" id="f1dxpm39hbu5e6" width="300%" x="-1" y="-1"><feGaussianBlur result="blurOut" stdDeviation="2.0"/><feColorMatrix in="blurOut" result="blurOut2" type="matrix" values="0 0 0 0 0 0 0 0 0 0 0 0 0 0 0 0 0 0 .4 0"/><feOffset dx="4.0" dy="4.0" in="blurOut2" result="blurOut3"/><feBlend in="SourceGraphic" in2="blurOut3" mode="normal"/></filter></defs><g><!--class TargetBuilder--><rect fill="#FEFECE" filter="url(#f1dxpm39hbu5e6)" height="138.6855" id="TargetBuilder" style="stroke: #A80036; stroke-width: 1.5;" width="229" x="6" y="8"/><ellipse cx="77.25" cy="24" fill="#B4A7E5" rx="11" ry="11" style="stroke: #A80036; stroke-width: 1.0;"/><path d="M73.6777,20.2651 L73.6777,18.1069 L81.0571,18.1069 L81.0571,20.2651 L78.5918,20.2651 L78.5918,28.3418 L81.0571,28.3418 L81.0571,30.5 L73.6777,30.5 L73.6777,28.3418 L76.1431,28.3418 L76.1431,20.2651 Z "/><text fill="#000000" font-family="sans-serif" font-size="12" font-style="italic" lengthAdjust="spacingAndGlyphs" textLength="78" x="97.75" y="28.5352">TargetBuilder</text><line style="stroke: #A80036; stroke-width: 1.5;" x1="7" x2="234" y1="40" y2="40"/><line style="stroke: #A80036; stroke-width: 1.5;" x1="7" x2="234" y1="48" y2="48"/><ellipse cx="17" cy="59.9775" fill="#84BE84" rx="3" ry="3" style="stroke: #038048; stroke-width: 1.0;"/><text fill="#000000" font-family="sans-serif" font-size="11" lengthAdjust="spacingAndGlyphs" textLength="73" x="26" y="62.6348">build():Target</text><ellipse cx="17" cy="72.9326" fill="#84BE84" rx="3" ry="3" style="stroke: #038048; stroke-width: 1.0;"/><text fill="#000000" font-family="sans-serif" font-size="11" lengthAdjust="spacingAndGlyphs" textLength="166" x="26" y="75.5898">health(health:int):TargetBuilder</text><ellipse cx="17" cy="85.8877" fill="#84BE84" rx="3" ry="3" style="stroke: #038048; stroke-width: 1.0;"/><text fill="#000000" font-family="sans-serif" font-size="11" lengthAdjust="spacingAndGlyphs" textLength="154" x="26" y="88.5449">name(n:String):TargetBuilder</text><ellipse cx="17" cy="98.8428" fill="#84BE84" rx="3" ry="3" style="stroke: #038048; stroke-width: 1.0;"/><text fill="#000000" font-family="sans-serif" font-size="11" lengthAdjust="spacingAndGlyphs" textLength="194" x="26" y="101.5">physicalDamage(d:int):TargetBuilder</text><ellipse cx="17" cy="111.7979" fill="#84BE84" rx="3" ry="3" style="stroke: #038048; stroke-width: 1.0;"/><text fill="#000000" font-family="sans-serif" font-size="11" lengthAdjust="spacingAndGlyphs" textLength="191" x="26" y="114.4551">magicalDamage(d:int):TargetBuilder</text><ellipse cx="17" cy="124.7529" fill="#84BE84" rx="3" ry="3" style="stroke: #038048; stroke-width: 1.0;"/><text fill="#000000" font-family="sans-serif" font-size="11" lengthAdjust="spacingAndGlyphs" textLength="139" x="26" y="127.4102">armor(a:int):TargetBuilder</text><ellipse cx="17" cy="137.708" fill="#84BE84" rx="3" ry="3" style="stroke: #038048; stroke-width: 1.0;"/><text fill="#000000" font-family="sans-serif" font-size="11" lengthAdjust="spacingAndGlyphs" textLength="203" x="26" y="140.3652">magicalResistance(r:int):TargetBuilder</text><!--class CommanderBuilder--><rect fill="#FEFECE" filter="url(#f1dxpm39hbu5e6)" height="73.9102" id="CommanderBuilder" style="stroke: #A80036; stroke-width: 1.5;" width="216" x="16.5" y="207"/><ellipse cx="64.75" cy="223" fill="#B4A7E5" rx="11" ry="11" style="stroke: #A80036; stroke-width: 1.0;"/><path d="M61.1777,219.2651 L61.1777,217.1069 L68.5571,217.1069 L68.5571,219.2651 L66.0918,219.2651 L66.0918,227.3418 L68.5571,227.3418 L68.5571,229.5 L61.1777,229.5 L61.1777,227.3418 L63.6431,227.3418 L63.6431,219.2651 Z "/><text fill="#000000" font-family="sans-serif" font-size="12" font-style="italic" lengthAdjust="spacingAndGlyphs" textLength="111" x="85.25" y="227.5352">CommanderBuilder</text><line style="stroke: #A80036; stroke-width: 1.5;" x1="17.5" x2="231.5" y1="239" y2="239"/><line style="stroke: #A80036; stroke-width: 1.5;" x1="17.5" x2="231.5" y1="247" y2="247"/><ellipse cx="27.5" cy="258.9775" fill="#84BE84" rx="3" ry="3" style="stroke: #038048; stroke-width: 1.0;"/><text fill="#000000" font-family="sans-serif" font-size="11" lengthAdjust="spacingAndGlyphs" textLength="174" x="36.5" y="261.6348">energy(e:int):CommanderBuilder</text><ellipse cx="27.5" cy="271.9326" fill="#84BE84" rx="3" ry="3" style="stroke: #038048; stroke-width: 1.0;"/><text fill="#000000" font-family="sans-serif" font-size="11" lengthAdjust="spacingAndGlyphs" textLength="190" x="36.5" y="274.5898">exprience(e:int):CommanderBuilder</text><!--class Commander--><rect fill="#FEFECE" filter="url(#f1dxpm39hbu5e6)" height="60.9551" id="Commander" style="stroke: #A80036; stroke-width: 1.5;" width="178" x="271.5" y="449"/><ellipse cx="320.75" cy="465" fill="#A9DCDF" rx="11" ry="11" style="stroke: #A80036; stroke-width: 1.0;"/><path d="M320.8633,460.5981 L319.7095,465.6699 L322.0254,465.6699 Z M319.3691,458.3569 L322.3657,458.3569 L325.7109,470.75 L323.2622,470.75 L322.4985,467.687 L319.2197,467.687 L318.4727,470.75 L316.0239,470.75 Z "/><text fill="#000000" font-family="sans-serif" font-size="12" font-style="italic" lengthAdjust="spacingAndGlyphs" textLength="71" x="341.25" y="469.5352">Commander</text><line style="stroke: #A80036; stroke-width: 1.5;" x1="272.5" x2="448.5" y1="481" y2="481"/><line style="stroke: #A80036; stroke-width: 1.5;" x1="272.5" x2="448.5" y1="489" y2="489"/><ellipse cx="282.5" cy="500.9775" fill="#84BE84" rx="3" ry="3" style="stroke: #038048; stroke-width: 1.0;"/><text fill="#000000" font-family="sans-serif" font-size="11" lengthAdjust="spacingAndGlyphs" text-decoration="underline" textLength="152" x="291.5" y="503.6348">builder():CommanderBuilder</text><line style="stroke: #000000; stroke-width: 1.0;" x1="291.5" x2="443.5" y1="505.6348" y2="505.6348"/><!--class WarriorCommander--><rect fill="#FEFECE" filter="url(#f1dxpm39hbu5e6)" height="48" id="WarriorCommander" style="stroke: #A80036; stroke-width: 1.5;" width="145" x="288" y="341"/><ellipse cx="303" cy="357" fill="#ADD1B2" rx="11" ry="11" style="stroke: #A80036; stroke-width: 1.0;"/><path d="M305.4731,363.1431 Q304.8921,363.4419 304.2529,363.5913 Q303.6138,363.7407 302.9082,363.7407 Q300.4014,363.7407 299.0815,362.0889 Q297.7617,360.437 297.7617,357.3159 Q297.7617,354.1865 299.0815,352.5347 Q300.4014,350.8828 302.9082,350.8828 Q303.6138,350.8828 304.2612,351.0322 Q304.9087,351.1816 305.4731,351.4805 L305.4731,354.2031 Q304.8423,353.6221 304.2488,353.3523 Q303.6553,353.0825 303.0244,353.0825 Q301.6797,353.0825 300.9949,354.1492 Q300.3101,355.2158 300.3101,357.3159 Q300.3101,359.4077 300.9949,360.4744 Q301.6797,361.541 303.0244,361.541 Q303.6553,361.541 304.2488,361.2712 Q304.8423,361.0015 305.4731,360.4204 Z "/><text fill="#000000" font-family="sans-serif" font-size="12" lengthAdjust="spacingAndGlyphs" textLength="113" x="317" y="361.5352">WarriorCommander</text><line style="stroke: #A80036; stroke-width: 1.5;" x1="289" x2="432" y1="373" y2="373"/><line style="stroke: #A80036; stroke-width: 1.5;" x1="289" x2="432" y1="381" y2="381"/><!--class MagicianCommander--><rect fill="#FEFECE" filter="url(#f1dxpm39hbu5e6)" height="48" id="MagicianCommander" style="stroke: #A80036; stroke-width: 1.5;" width="153" x="488" y="341"/><ellipse cx="503" cy="357" fill="#ADD1B2" rx="11" ry="11" style="stroke: #A80036; stroke-width: 1.0;"/><path d="M505.4731,363.1431 Q504.8921,363.4419 504.2529,363.5913 Q503.6138,363.7407 502.9082,363.7407 Q500.4014,363.7407 499.0815,362.0889 Q497.7617,360.437 497.7617,357.3159 Q497.7617,354.1865 499.0815,352.5347 Q500.4014,350.8828 502.9082,350.8828 Q503.6138,350.8828 504.2612,351.0322 Q504.9087,351.1816 505.4731,351.4805 L505.4731,354.2031 Q504.8423,353.6221 504.2488,353.3523 Q503.6553,353.0825 503.0244,353.0825 Q501.6797,353.0825 500.9949,354.1492 Q500.3101,355.2158 500.3101,357.3159 Q500.3101,359.4077 500.9949,360.4744 Q501.6797,361.541 503.0244,361.541 Q503.6553,361.541 504.2488,361.2712 Q504.8423,361.0015 505.4731,360.4204 Z "/><text fill="#000000" font-family="sans-serif" font-size="12" lengthAdjust="spacingAndGlyphs" textLength="121" x="517" y="361.5352">MagicianCommander</text><line style="stroke: #A80036; stroke-width: 1.5;" x1="489" x2="640" y1="373" y2="373"/><line style="stroke: #A80036; stroke-width: 1.5;" x1="489" x2="640" y1="381" y2="381"/><!--class AbstractCommanderBuilder--><rect fill="#FEFECE" filter="url(#f1dxpm39hbu5e6)" height="48" id="AbstractCommanderBuilder" style="stroke: #A80036; stroke-width: 1.5;" width="191" x="270" y="53.5"/><ellipse cx="285" cy="69.5" fill="#A9DCDF" rx="11" ry="11" style="stroke: #A80036; stroke-width: 1.0;"/><path d="M285.1133,65.0981 L283.9595,70.1699 L286.2754,70.1699 Z M283.6191,62.8569 L286.6157,62.8569 L289.9609,75.25 L287.5122,75.25 L286.7485,72.187 L283.4697,72.187 L282.7227,75.25 L280.2739,75.25 Z "/><text fill="#000000" font-family="sans-serif" font-size="12" font-style="italic" lengthAdjust="spacingAndGlyphs" textLength="159" x="299" y="74.0352">AbstractCommanderBuilder</text><line style="stroke: #A80036; stroke-width: 1.5;" x1="271" x2="460" y1="85.5" y2="85.5"/><line style="stroke: #A80036; stroke-width: 1.5;" x1="271" x2="460" y1="93.5" y2="93.5"/><!--class WarriorCommanderBuilder--><rect fill="#FEFECE" filter="url(#f1dxpm39hbu5e6)" height="48" id="WarriorCommanderBuilder" style="stroke: #A80036; stroke-width: 1.5;" width="185" x="268" y="220"/><ellipse cx="283" cy="236" fill="#ADD1B2" rx="11" ry="11" style="stroke: #A80036; stroke-width: 1.0;"/><path d="M285.4731,242.1431 Q284.8921,242.4419 284.2529,242.5913 Q283.6138,242.7407 282.9082,242.7407 Q280.4014,242.7407 279.0815,241.0889 Q277.7617,239.437 277.7617,236.3159 Q277.7617,233.1865 279.0815,231.5347 Q280.4014,229.8828 282.9082,229.8828 Q283.6138,229.8828 284.2612,230.0322 Q284.9087,230.1816 285.4731,230.4805 L285.4731,233.2031 Q284.8423,232.6221 284.2488,232.3523 Q283.6553,232.0825 283.0244,232.0825 Q281.6797,232.0825 280.9949,233.1492 Q280.3101,234.2158 280.3101,236.3159 Q280.3101,238.4077 280.9949,239.4744 Q281.6797,240.541 283.0244,240.541 Q283.6553,240.541 284.2488,240.2712 Q284.8423,240.0015 285.4731,239.4204 Z "/><text fill="#000000" font-family="sans-serif" font-size="12" lengthAdjust="spacingAndGlyphs" textLength="153" x="297" y="240.5352">WarriorCommanderBuilder</text><line style="stroke: #A80036; stroke-width: 1.5;" x1="269" x2="452" y1="252" y2="252"/><line style="stroke: #A80036; stroke-width: 1.5;" x1="269" x2="452" y1="260" y2="260"/><!--class MagicianCommanderBuilder--><rect fill="#FEFECE" filter="url(#f1dxpm39hbu5e6)" height="48" id="MagicianCommanderBuilder" style="stroke: #A80036; stroke-width: 1.5;" width="193" x="488" y="220"/><ellipse cx="503" cy="236" fill="#ADD1B2" rx="11" ry="11" style="stroke: #A80036; stroke-width: 1.0;"/><path d="M505.4731,242.1431 Q504.8921,242.4419 504.2529,242.5913 Q503.6138,242.7407 502.9082,242.7407 Q500.4014,242.7407 499.0815,241.0889 Q497.7617,239.437 497.7617,236.3159 Q497.7617,233.1865 499.0815,231.5347 Q500.4014,229.8828 502.9082,229.8828 Q503.6138,229.8828 504.2612,230.0322 Q504.9087,230.1816 505.4731,230.4805 L505.4731,233.2031 Q504.8423,232.6221 504.2488,232.3523 Q503.6553,232.0825 503.0244,232.0825 Q501.6797,232.0825 500.9949,233.1492 Q500.3101,234.2158 500.3101,236.3159 Q500.3101,238.4077 500.9949,239.4744 Q501.6797,240.541 503.0244,240.541 Q503.6553,240.541 504.2488,240.2712 Q504.8423,240.0015 505.4731,239.4204 Z "/><text fill="#000000" font-family="sans-serif" font-size="12" lengthAdjust="spacingAndGlyphs" textLength="161" x="517" y="240.5352">MagicianCommanderBuilder</text><line style="stroke: #A80036; stroke-width: 1.5;" x1="489" x2="680" y1="252" y2="252"/><line style="stroke: #A80036; stroke-width: 1.5;" x1="489" x2="680" y1="260" y2="260"/><!--link WarriorCommander to Commander--><path d="M360.5,389.003 C360.5,400.5864 360.5,414.9487 360.5,428.7938 " fill="none" id="WarriorCommander-Commander" style="stroke: #A80036; stroke-width: 1.0;"/><polygon fill="none" points="367.5001,428.9818,360.5,448.9818,353.5001,428.9817,367.5001,428.9818" style="stroke: #A80036; stroke-width: 1.0;"/><!--link MagicianCommander to Commander--><path d="M521.7349,389.003 C495.877,403.5163 462.2467,422.3922 432.3952,439.1471 " fill="none" id="MagicianCommander-Commander" style="stroke: #A80036; stroke-width: 1.0;"/><polygon fill="none" points="435.7399,445.297,414.8731,448.9818,428.8876,433.0885,435.7399,445.297" style="stroke: #A80036; stroke-width: 1.0;"/><!--link TargetBuilder to CommanderBuilder--><path d="M122.6623,167.505 C122.9961,181.4014 123.3239,195.0452 123.6081,206.8737 " fill="none" id="TargetBuilder-CommanderBuilder" style="stroke: #A80036; stroke-width: 1.0;"/><polygon fill="none" points="115.6556,167.3086,122.1732,147.1463,129.6516,166.9723,115.6556,167.3086" style="stroke: #A80036; stroke-width: 1.0;"/><!--link AbstractCommanderBuilder to CommanderBuilder--><path d="M330.7139,101.5327 C295.3447,125.9683 239.5483,164.5164 194.9091,195.3564 " fill="none" id="AbstractCommanderBuilder-CommanderBuilder" style="stroke: #A80036; stroke-width: 1.0; stroke-dasharray: 7.0,7.0;"/><polygon fill="none" points="198.8466,201.1442,178.4128,206.7532,190.8888,189.6257,198.8466,201.1442" style="stroke: #A80036; stroke-width: 1.0;"/><!--link AbstractCommanderBuilder to WarriorCommanderBuilder--><path d="M364.1614,122.0745 C363.2195,153.4402 361.9948,194.2235 361.2279,219.7602 " fill="none" id="AbstractCommanderBuilder-WarriorCommanderBuilder" style="stroke: #A80036; stroke-width: 1.0;"/><polygon fill="none" points="357.1757,121.4914,364.773,101.7105,371.1694,121.9117,357.1757,121.4914" style="stroke: #A80036; stroke-width: 1.0;"/><!--link AbstractCommanderBuilder to MagicianCommanderBuilder--><path d="M413.3881,113.9081 C455.6367,146.0286 516.0263,191.9413 552.6171,219.7602 " fill="none" id="AbstractCommanderBuilder-MagicianCommanderBuilder" style="stroke: #A80036; stroke-width: 1.0;"/><polygon fill="none" points="409.0291,119.3874,397.3445,101.7105,417.5022,108.2426,409.0291,119.3874" style="stroke: #A80036; stroke-width: 1.0;"/><!--link MagicianCommanderBuilder to MagicianCommander--><path d="M580.5008,268.1953 C577.2851,287.6504 572.7556,315.0535 569.3362,335.7408 " fill="none" id="MagicianCommanderBuilder-MagicianCommander" style="stroke: #A80036; stroke-width: 1.0; stroke-dasharray: 7.0,7.0;"/><polygon fill="#A80036" points="568.4923,340.8466,573.9065,332.6194,569.3077,335.9135,566.0136,331.3147,568.4923,340.8466" style="stroke: #A80036; stroke-width: 1.0;"/><!--link WarriorCommanderBuilder to WarriorCommander--><path d="M360.5,268.1953 C360.5,287.6504 360.5,315.0535 360.5,335.7408 " fill="none" id="WarriorCommanderBuilder-WarriorCommander" style="stroke: #A80036; stroke-width: 1.0; stroke-dasharray: 7.0,7.0;"/><polygon fill="#A80036" points="360.5,340.8466,364.5,331.8466,360.5,335.8466,356.5,331.8466,360.5,340.8466" style="stroke: #A80036; stroke-width: 1.0;"/><!--link CommanderBuilder to Commander--><path d="M165.2254,284.6391 C211.9341,331.2489 287.4743,406.629 329.5993,448.6648 " fill="none" id="CommanderBuilder-Commander" style="stroke: #A80036; stroke-width: 1.0; stroke-dasharray: 7.0,7.0;"/><polygon fill="#A80036" points="161.6346,281.0559,165.1798,290.2446,165.1738,284.5877,170.8307,284.5818,161.6346,281.0559" style="stroke: #A80036; stroke-width: 1.0;"/><!--
@startuml builder-pattern

interface TargetBuilder{
  + build():Target
  + health(health:int):TargetBuilder
  + name(n:String):TargetBuilder
  + physicalDamage(d:int):TargetBuilder
  + magicalDamage(d:int):TargetBuilder
  + armor(a:int):TargetBuilder
  + magicalResistance(r:int):TargetBuilder
}

interface CommanderBuilder {
  + energy(e:int):CommanderBuilder
  + exprience(e:int):CommanderBuilder
}

abstract class Commander {
  + {static} builder():CommanderBuilder
}
class WarriorCommander
class MagicianCommander

WarriorCommander - -|> Commander
MagicianCommander - -|> Commander

abstract class AbstractCommanderBuilder {

}

class WarriorCommanderBuilder {

}

class MagicianCommanderBuilder {

}

TargetBuilder <|- - CommanderBuilder

AbstractCommanderBuilder ..|> CommanderBuilder

AbstractCommanderBuilder <|- - WarriorCommanderBuilder
AbstractCommanderBuilder <|- - MagicianCommanderBuilder

MagicianCommanderBuilder ..> MagicianCommander
WarriorCommanderBuilder ..> WarriorCommander

CommanderBuilder <.. Commander

@enduml

PlantUML version 1.2018.12(Sun Oct 21 18:15:15 CST 2018)
(GPL source distribution)
Java Runtime: Java(TM) SE Runtime Environment
JVM: Java HotSpot(TM) 64-Bit Server VM
Java Version: 1.8.0_171-b11
Operating System: Mac OS X
OS Version: 10.14.3
Default Encoding: UTF-8
Language: zh
Country: CN
--></g></svg>