<?xml version="1.0" encoding="UTF-8" standalone="no"?><svg xmlns="http://www.w3.org/2000/svg" xmlns:xlink="http://www.w3.org/1999/xlink" contentScriptType="application/ecmascript" contentStyleType="text/css" height="391px" preserveAspectRatio="none" style="width:318px;height:391px;" version="1.1" viewBox="0 0 318 391" width="318px" zoomAndPan="magnify"><defs><filter height="300%" id="f33kaftbtfq7o" width="300%" x="-1" y="-1"><feGaussianBlur result="blurOut" stdDeviation="2.0"/><feColorMatrix in="blurOut" result="blurOut2" type="matrix" values="0 0 0 0 0 0 0 0 0 0 0 0 0 0 0 0 0 0 .4 0"/><feOffset dx="4.0" dy="4.0" in="blurOut2" result="blurOut3"/><feBlend in="SourceGraphic" in2="blurOut3" mode="normal"/></filter></defs><g><!--class FirstOperationState--><rect fill="#FEFECE" filter="url(#f33kaftbtfq7o)" height="48" id="FirstOperationState" style="stroke: #A80036; stroke-width: 1.5;" width="141" x="115.5" y="116"/><ellipse cx="130.5" cy="132" fill="#ADD1B2" rx="11" ry="11" style="stroke: #A80036; stroke-width: 1.0;"/><path d="M132.9731,138.1431 Q132.3921,138.4419 131.7529,138.5913 Q131.1138,138.7407 130.4082,138.7407 Q127.9014,138.7407 126.5815,137.0889 Q125.2617,135.437 125.2617,132.3159 Q125.2617,129.1865 126.5815,127.5347 Q127.9014,125.8828 130.4082,125.8828 Q131.1138,125.8828 131.7612,126.0322 Q132.4087,126.1816 132.9731,126.4805 L132.9731,129.2031 Q132.3423,128.6221 131.7488,128.3523 Q131.1553,128.0825 130.5244,128.0825 Q129.1797,128.0825 128.4949,129.1492 Q127.8101,130.2158 127.8101,132.3159 Q127.8101,134.4077 128.4949,135.4744 Q129.1797,136.541 130.5244,136.541 Q131.1553,136.541 131.7488,136.2712 Q132.3423,136.0015 132.9731,135.4204 Z "/><text fill="#000000" font-family="sans-serif" font-size="12" lengthAdjust="spacingAndGlyphs" textLength="109" x="144.5" y="136.5352">FirstOperationState</text><line style="stroke: #A80036; stroke-width: 1.5;" x1="116.5" x2="255.5" y1="148" y2="148"/><line style="stroke: #A80036; stroke-width: 1.5;" x1="116.5" x2="255.5" y1="156" y2="156"/><!--class SecondOperationState--><rect fill="#FEFECE" filter="url(#f33kaftbtfq7o)" height="48" id="SecondOperationState" style="stroke: #A80036; stroke-width: 1.5;" width="158" x="6" y="224"/><ellipse cx="21" cy="240" fill="#ADD1B2" rx="11" ry="11" style="stroke: #A80036; stroke-width: 1.0;"/><path d="M23.4731,246.1431 Q22.8921,246.4419 22.2529,246.5913 Q21.6138,246.7407 20.9082,246.7407 Q18.4014,246.7407 17.0815,245.0889 Q15.7617,243.437 15.7617,240.3159 Q15.7617,237.1865 17.0815,235.5347 Q18.4014,233.8828 20.9082,233.8828 Q21.6138,233.8828 22.2612,234.0322 Q22.9087,234.1816 23.4731,234.4805 L23.4731,237.2031 Q22.8423,236.6221 22.2488,236.3523 Q21.6553,236.0825 21.0244,236.0825 Q19.6797,236.0825 18.9949,237.1492 Q18.3101,238.2158 18.3101,240.3159 Q18.3101,242.4077 18.9949,243.4744 Q19.6797,244.541 21.0244,244.541 Q21.6553,244.541 22.2488,244.2712 Q22.8423,244.0015 23.4731,243.4204 Z "/><text fill="#000000" font-family="sans-serif" font-size="12" lengthAdjust="spacingAndGlyphs" textLength="126" x="35" y="244.5352">SecondOperationState</text><line style="stroke: #A80036; stroke-width: 1.5;" x1="7" x2="163" y1="256" y2="256"/><line style="stroke: #A80036; stroke-width: 1.5;" x1="7" x2="163" y1="264" y2="264"/><!--class MonsterOperationState--><rect fill="#FEFECE" filter="url(#f33kaftbtfq7o)" height="48" id="MonsterOperationState" style="stroke: #A80036; stroke-width: 1.5;" width="163" x="135.5" y="332"/><ellipse cx="150.5" cy="348" fill="#ADD1B2" rx="11" ry="11" style="stroke: #A80036; stroke-width: 1.0;"/><path d="M152.9731,354.1431 Q152.3921,354.4419 151.7529,354.5913 Q151.1138,354.7407 150.4082,354.7407 Q147.9014,354.7407 146.5815,353.0889 Q145.2617,351.437 145.2617,348.3159 Q145.2617,345.1865 146.5815,343.5347 Q147.9014,341.8828 150.4082,341.8828 Q151.1138,341.8828 151.7612,342.0322 Q152.4087,342.1816 152.9731,342.4805 L152.9731,345.2031 Q152.3423,344.6221 151.7488,344.3523 Q151.1553,344.0825 150.5244,344.0825 Q149.1797,344.0825 148.4949,345.1492 Q147.8101,346.2158 147.8101,348.3159 Q147.8101,350.4077 148.4949,351.4744 Q149.1797,352.541 150.5244,352.541 Q151.1553,352.541 151.7488,352.2712 Q152.3423,352.0015 152.9731,351.4204 Z "/><text fill="#000000" font-family="sans-serif" font-size="12" lengthAdjust="spacingAndGlyphs" textLength="131" x="164.5" y="352.5352">MonsterOperationState</text><line style="stroke: #A80036; stroke-width: 1.5;" x1="136.5" x2="297.5" y1="364" y2="364"/><line style="stroke: #A80036; stroke-width: 1.5;" x1="136.5" x2="297.5" y1="372" y2="372"/><!--class GameOverState--><rect fill="#FEFECE" filter="url(#f33kaftbtfq7o)" height="48" id="GameOverState" style="stroke: #A80036; stroke-width: 1.5;" width="121" x="125.5" y="8"/><ellipse cx="140.5" cy="24" fill="#ADD1B2" rx="11" ry="11" style="stroke: #A80036; stroke-width: 1.0;"/><path d="M142.9731,30.1431 Q142.3921,30.4419 141.7529,30.5913 Q141.1138,30.7407 140.4082,30.7407 Q137.9014,30.7407 136.5815,29.0889 Q135.2617,27.437 135.2617,24.3159 Q135.2617,21.1865 136.5815,19.5347 Q137.9014,17.8828 140.4082,17.8828 Q141.1138,17.8828 141.7612,18.0322 Q142.4087,18.1816 142.9731,18.4805 L142.9731,21.2031 Q142.3423,20.6221 141.7488,20.3523 Q141.1553,20.0825 140.5244,20.0825 Q139.1797,20.0825 138.4949,21.1492 Q137.8101,22.2158 137.8101,24.3159 Q137.8101,26.4077 138.4949,27.4744 Q139.1797,28.541 140.5244,28.541 Q141.1553,28.541 141.7488,28.2712 Q142.3423,28.0015 142.9731,27.4204 Z "/><text fill="#000000" font-family="sans-serif" font-size="12" lengthAdjust="spacingAndGlyphs" textLength="89" x="154.5" y="28.5352">GameOverState</text><line style="stroke: #A80036; stroke-width: 1.5;" x1="126.5" x2="245.5" y1="40" y2="40"/><line style="stroke: #A80036; stroke-width: 1.5;" x1="126.5" x2="245.5" y1="48" y2="48"/><!--link FirstOperationState to SecondOperationState--><path d="M163.3336,164.2373 C147.8693,180.7734 127.3409,202.7246 111.1788,220.0069 " fill="none" id="FirstOperationState-SecondOperationState" style="stroke: #A80036; stroke-width: 1.0; stroke-dasharray: 7.0,7.0;"/><polygon fill="#A80036" points="107.5907,223.8436,116.6597,220.0025,111.006,220.1918,110.8167,214.5381,107.5907,223.8436" style="stroke: #A80036; stroke-width: 1.0;"/><!--link SecondOperationState to MonsterOperationState--><path d="M114.6234,272.2373 C135.0889,288.9819 162.3408,311.2788 183.5822,328.6582 " fill="none" id="SecondOperationState-MonsterOperationState" style="stroke: #A80036; stroke-width: 1.0; stroke-dasharray: 7.0,7.0;"/><polygon fill="#A80036" points="187.4755,331.8436,183.0429,323.0486,183.6057,328.6774,177.9769,329.2402,187.4755,331.8436" style="stroke: #A80036; stroke-width: 1.0;"/><!--link FirstOperationState to MonsterOperationState--><path d="M190.2227,169.4226 C196.4007,212.4693 207.7889,291.8195 213.5169,331.7309 " fill="none" id="FirstOperationState-MonsterOperationState" style="stroke: #A80036; stroke-width: 1.0; stroke-dasharray: 7.0,7.0;"/><polygon fill="#A80036" points="189.4958,164.3581,186.8152,173.8351,190.2062,169.3074,194.734,172.6984,189.4958,164.3581" style="stroke: #A80036; stroke-width: 1.0;"/><!--link GameOverState to SecondOperationState--><path d="M146.4032,59.3545 C128.4898,73.9751 108.9233,93.5824 98,116 C81.155,150.5704 80.7553,196.2101 82.5133,223.7657 " fill="none" id="GameOverState-SecondOperationState" style="stroke: #A80036; stroke-width: 1.0; stroke-dasharray: 7.0,7.0;"/><polygon fill="#A80036" points="150.4347,56.1237,140.9102,58.6304,146.533,59.2504,145.913,64.8732,150.4347,56.1237" style="stroke: #A80036; stroke-width: 1.0;"/><!--link GameOverState to MonsterOperationState--><path d="M226.995,59.2551 C245.0158,73.7363 264.267,93.254 274,116 C306.1788,191.2016 258.6114,287.7857 232.3816,331.9842 " fill="none" id="GameOverState-MonsterOperationState" style="stroke: #A80036; stroke-width: 1.0; stroke-dasharray: 7.0,7.0;"/><polygon fill="#A80036" points="222.932,56.0567,227.5295,64.7666,226.8607,59.1494,232.4779,58.4806,222.932,56.0567" style="stroke: #A80036; stroke-width: 1.0;"/><!--link GameOverState to FirstOperationState--><path d="M186,61.3947 C186,78.4785 186,99.7416 186,115.8436 " fill="none" id="GameOverState-FirstOperationState" style="stroke: #A80036; stroke-width: 1.0; stroke-dasharray: 7.0,7.0;"/><polygon fill="#A80036" points="186,56.2373,182,65.2373,186,61.2373,190,65.2373,186,56.2373" style="stroke: #A80036; stroke-width: 1.0;"/><!--
@startuml state-flow

class FirstOperationState
class SecondOperationState
class MonsterOperationState
class GameOverState

FirstOperationState ..> SecondOperationState

SecondOperationState ..> MonsterOperationState

FirstOperationState <.. MonsterOperationState

GameOverState <.. SecondOperationState
GameOverState <.. MonsterOperationState
GameOverState <.. FirstOperationState

@enduml

PlantUML version 1.2018.12(Sun Oct 21 18:15:15 CST 2018)
(GPL source distribution)
Java Runtime: Java(TM) SE Runtime Environment
JVM: Java HotSpot(TM) 64-Bit Server VM
Java Version: 1.8.0_171-b11
Operating System: Mac OS X
OS Version: 10.14.3
Default Encoding: UTF-8
Language: zh
Country: CN
--></g></svg>