<?xml version="1.0" encoding="UTF-8" standalone="no"?><svg xmlns="http://www.w3.org/2000/svg" xmlns:xlink="http://www.w3.org/1999/xlink" contentScriptType="application/ecmascript" contentStyleType="text/css" height="187px" preserveAspectRatio="none" style="width:440px;height:187px;" version="1.1" viewBox="0 0 440 187" width="440px" zoomAndPan="magnify"><defs><filter height="300%" id="f2cvmvvij7fv6" width="300%" x="-1" y="-1"><feGaussianBlur result="blurOut" stdDeviation="2.0"/><feColorMatrix in="blurOut" result="blurOut2" type="matrix" values="0 0 0 0 0 0 0 0 0 0 0 0 0 0 0 0 0 0 .4 0"/><feOffset dx="4.0" dy="4.0" in="blurOut2" result="blurOut3"/><feBlend in="SourceGraphic" in2="blurOut3" mode="normal"/></filter></defs><g><!--class Attacker--><rect fill="#FEFECE" filter="url(#f2cvmvvij7fv6)" height="60.9551" id="Attacker" style="stroke: #A80036; stroke-width: 1.5;" width="92" x="77.5" y="116"/><ellipse cx="97.9" cy="132" fill="#B4A7E5" rx="11" ry="11" style="stroke: #A80036; stroke-width: 1.0;"/><path d="M94.3277,128.2651 L94.3277,126.1069 L101.7071,126.1069 L101.7071,128.2651 L99.2418,128.2651 L99.2418,136.3418 L101.7071,136.3418 L101.7071,138.5 L94.3277,138.5 L94.3277,136.3418 L96.7931,136.3418 L96.7931,128.2651 Z "/><text fill="#000000" font-family="sans-serif" font-size="12" font-style="italic" lengthAdjust="spacingAndGlyphs" textLength="48" x="113.1" y="136.5352">Attacker</text><line style="stroke: #A80036; stroke-width: 1.5;" x1="78.5" x2="168.5" y1="148" y2="148"/><line style="stroke: #A80036; stroke-width: 1.5;" x1="78.5" x2="168.5" y1="156" y2="156"/><ellipse cx="88.5" cy="167.9775" fill="#84BE84" rx="3" ry="3" style="stroke: #038048; stroke-width: 1.0;"/><text fill="#000000" font-family="sans-serif" font-size="11" lengthAdjust="spacingAndGlyphs" textLength="66" x="97.5" y="170.6348">attack():void</text><!--class StagePartner--><rect fill="#FEFECE" filter="url(#f2cvmvvij7fv6)" height="48" id="StagePartner" style="stroke: #A80036; stroke-width: 1.5;" width="105" x="144" y="8"/><ellipse cx="159" cy="24" fill="#A9DCDF" rx="11" ry="11" style="stroke: #A80036; stroke-width: 1.0;"/><path d="M159.1133,19.5981 L157.9595,24.6699 L160.2754,24.6699 Z M157.6191,17.3569 L160.6157,17.3569 L163.9609,29.75 L161.5122,29.75 L160.7485,26.687 L157.4697,26.687 L156.7227,29.75 L154.2739,29.75 Z "/><text fill="#000000" font-family="sans-serif" font-size="12" font-style="italic" lengthAdjust="spacingAndGlyphs" textLength="73" x="173" y="28.5352">StagePartner</text><line style="stroke: #A80036; stroke-width: 1.5;" x1="145" x2="248" y1="40" y2="40"/><line style="stroke: #A80036; stroke-width: 1.5;" x1="145" x2="248" y1="48" y2="48"/><!--class CommanderPartner--><rect fill="#FEFECE" filter="url(#f2cvmvvij7fv6)" height="48" id="CommanderPartner" style="stroke: #A80036; stroke-width: 1.5;" width="145" x="284" y="8"/><ellipse cx="299" cy="24" fill="#ADD1B2" rx="11" ry="11" style="stroke: #A80036; stroke-width: 1.0;"/><path d="M301.4731,30.1431 Q300.8921,30.4419 300.2529,30.5913 Q299.6138,30.7407 298.9082,30.7407 Q296.4014,30.7407 295.0815,29.0889 Q293.7617,27.437 293.7617,24.3159 Q293.7617,21.1865 295.0815,19.5347 Q296.4014,17.8828 298.9082,17.8828 Q299.6138,17.8828 300.2612,18.0322 Q300.9087,18.1816 301.4731,18.4805 L301.4731,21.2031 Q300.8423,20.6221 300.2488,20.3523 Q299.6553,20.0825 299.0244,20.0825 Q297.6797,20.0825 296.9949,21.1492 Q296.3101,22.2158 296.3101,24.3159 Q296.3101,26.4077 296.9949,27.4744 Q297.6797,28.541 299.0244,28.541 Q299.6553,28.541 300.2488,28.2712 Q300.8423,28.0015 301.4731,27.4204 Z "/><text fill="#000000" font-family="sans-serif" font-size="12" lengthAdjust="spacingAndGlyphs" textLength="113" x="313" y="28.5352">CommanderPartner</text><line style="stroke: #A80036; stroke-width: 1.5;" x1="285" x2="428" y1="40" y2="40"/><line style="stroke: #A80036; stroke-width: 1.5;" x1="285" x2="428" y1="48" y2="48"/><!--class CommanderAttackProxy--><rect fill="#FEFECE" filter="url(#f2cvmvvij7fv6)" height="48" id="CommanderAttackProxy" style="stroke: #A80036; stroke-width: 1.5;" width="171" x="238" y="122.5"/><ellipse cx="253" cy="138.5" fill="#ADD1B2" rx="11" ry="11" style="stroke: #A80036; stroke-width: 1.0;"/><path d="M255.4731,144.6431 Q254.8921,144.9419 254.2529,145.0913 Q253.6138,145.2407 252.9082,145.2407 Q250.4014,145.2407 249.0815,143.5889 Q247.7617,141.937 247.7617,138.8159 Q247.7617,135.6865 249.0815,134.0347 Q250.4014,132.3828 252.9082,132.3828 Q253.6138,132.3828 254.2612,132.5322 Q254.9087,132.6816 255.4731,132.9805 L255.4731,135.7031 Q254.8423,135.1221 254.2488,134.8523 Q253.6553,134.5825 253.0244,134.5825 Q251.6797,134.5825 250.9949,135.6492 Q250.3101,136.7158 250.3101,138.8159 Q250.3101,140.9077 250.9949,141.9744 Q251.6797,143.041 253.0244,143.041 Q253.6553,143.041 254.2488,142.7712 Q254.8423,142.5015 255.4731,141.9204 Z "/><text fill="#000000" font-family="sans-serif" font-size="12" lengthAdjust="spacingAndGlyphs" textLength="139" x="267" y="143.0352">CommanderAttackProxy</text><line style="stroke: #A80036; stroke-width: 1.5;" x1="239" x2="408" y1="154.5" y2="154.5"/><line style="stroke: #A80036; stroke-width: 1.5;" x1="239" x2="408" y1="162.5" y2="162.5"/><!--class StageService--><rect fill="#FEFECE" filter="url(#f2cvmvvij7fv6)" height="48" id="StageService" style="stroke: #A80036; stroke-width: 1.5;" width="103" x="6" y="8"/><ellipse cx="21" cy="24" fill="#B4A7E5" rx="11" ry="11" style="stroke: #A80036; stroke-width: 1.0;"/><path d="M17.4277,20.2651 L17.4277,18.1069 L24.8071,18.1069 L24.8071,20.2651 L22.3418,20.2651 L22.3418,28.3418 L24.8071,28.3418 L24.8071,30.5 L17.4277,30.5 L17.4277,28.3418 L19.8931,28.3418 L19.8931,20.2651 Z "/><text fill="#000000" font-family="sans-serif" font-size="12" font-style="italic" lengthAdjust="spacingAndGlyphs" textLength="71" x="35" y="28.5352">StageService</text><line style="stroke: #A80036; stroke-width: 1.5;" x1="7" x2="108" y1="40" y2="40"/><line style="stroke: #A80036; stroke-width: 1.5;" x1="7" x2="108" y1="48" y2="48"/><!--link StagePartner to Attacker--><path d="M181.1968,56.003 C173.2904,68.404 163.3534,83.9902 153.9644,98.7168 " fill="none" id="StagePartner-Attacker" style="stroke: #A80036; stroke-width: 1.0; stroke-dasharray: 7.0,7.0;"/><polygon fill="none" points="159.6113,102.8808,142.957,115.9818,147.8064,95.3545,159.6113,102.8808" style="stroke: #A80036; stroke-width: 1.0;"/><!--link StagePartner to CommanderPartner--><path d="M269.4298,32 C274.1685,32 278.9073,32 283.646,32 " fill="none" id="StagePartner-CommanderPartner" style="stroke: #A80036; stroke-width: 1.0;"/><polygon fill="none" points="269.3125,38.9999,249.3125,32,269.3125,24.9999,269.3125,38.9999" style="stroke: #A80036; stroke-width: 1.0;"/><!--link StagePartner to CommanderAttackProxy--><path d="M238.0278,69.4404 C257.2284,86.7512 279.4862,106.8183 296.4743,122.1343 " fill="none" id="StagePartner-CommanderAttackProxy" style="stroke: #A80036; stroke-width: 1.0;"/><polygon fill="none" points="233.2903,74.5942,223.1234,56.003,242.6649,64.1962,233.2903,74.5942" style="stroke: #A80036; stroke-width: 1.0;"/><!--link CommanderPartner to CommanderAttackProxy--><path d="M349.5821,56.003 C345.1241,71.4708 339.2381,91.8937 334.1859,109.4233 " fill="none" id="CommanderPartner-CommanderAttackProxy" style="stroke: #A80036; stroke-width: 1.0;"/><polygon fill="#FFFFFF" points="330.5224,122.1343,336.0276,117.4767,333.8456,110.6036,328.3404,115.2612,330.5224,122.1343" style="stroke: #A80036; stroke-width: 1.0;"/><text fill="#000000" font-family="sans-serif" font-size="13" lengthAdjust="spacingAndGlyphs" textLength="8" x="338.7844" y="76.6838">1</text><text fill="#000000" font-family="sans-serif" font-size="13" lengthAdjust="spacingAndGlyphs" textLength="8" x="323.2969" y="111.5769">1</text><!--link StageService to Attacker--><path d="M71.3358,56.003 C80.6049,72.0835 92.961,93.5195 103.3209,111.4924 " fill="none" id="StageService-Attacker" style="stroke: #A80036; stroke-width: 1.0; stroke-dasharray: 7.0,7.0;"/><polygon fill="#A80036" points="105.9087,115.9818,104.8796,106.1869,103.4117,111.6499,97.9486,110.1821,105.9087,115.9818" style="stroke: #A80036; stroke-width: 1.0;"/><!--
@startuml proxy-pattern

interface Attacker {
  + attack():void
}

abstract class StagePartner {
  
}

class CommanderPartner 
class CommanderAttackProxy

StagePartner ..|> Attacker

StagePartner <|- CommanderPartner

CommanderAttackProxy -up-|> StagePartner
CommanderPartner "1" - -o "1" CommanderAttackProxy

interface StageService 

StageService ..> Attacker

@enduml

PlantUML version 1.2018.12(Sun Oct 21 18:15:15 CST 2018)
(GPL source distribution)
Java Runtime: Java(TM) SE Runtime Environment
JVM: Java HotSpot(TM) 64-Bit Server VM
Java Version: 1.8.0_171-b11
Operating System: Mac OS X
OS Version: 10.14.3
Default Encoding: UTF-8
Language: zh
Country: CN
--></g></svg>